<svg width="16" height="14" viewBox="0 0 16 14" fill="none" xmlns="http://www.w3.org/2000/svg">
<path d="M12.2665 7.93728C9.90728 8.45244 9.31759 11.7491 9.31764 13.3331C10.0124 13.3331 11.3929 13.0444 11.3574 11.8897C11.3131 10.4463 12.0891 9.58039 12.5769 8.91424C12.9672 8.38133 14.1585 7.93725 14.7055 7.78183C14.8754 7.61899 14.6256 7.42211 12.2665 7.93728Z" fill="white"/>
<path d="M9.50418 12.1101L11.3525 11.9606L11.3525 13.3331L9.31764 13.3331L9.50418 12.1101Z" fill="white"/>
<path d="M0.537301 6.24961L15.7919 6.24961L15.7919 7.84834L0.537304 7.84834L0.537301 6.24961Z" fill="white"/>
<path d="M12.2665 6.12726C9.90727 5.61209 9.31757 2.3154 9.31762 0.731456C10.0123 0.731456 11.3929 1.02013 11.3574 2.17484C11.3131 3.61822 12.0891 4.48414 12.5769 5.15029C12.9671 5.68321 14.1585 6.12728 14.7055 6.2827C14.8754 6.44554 14.6256 6.64242 12.2665 6.12726Z" fill="white"/>
<path d="M9.50416 1.95442L11.3525 2.10388L11.3525 0.731445L9.31762 0.731456L9.50416 1.95442Z" fill="white"/>
</svg>
