<svg width="87" height="112" viewBox="0 0 87 112" fill="none" xmlns="http://www.w3.org/2000/svg">
<mask id="mask0_1374_5607" style="mask-type:alpha" maskUnits="userSpaceOnUse" x="0" y="0" width="87" height="112">
<rect width="87" height="112" fill="#D9D9D9"/>
</mask>
<g mask="url(#mask0_1374_5607)">
<mask id="path-2-outside-1_1374_5607" maskUnits="userSpaceOnUse" x="-0.214844" y="5" width="84" height="112" fill="black">
<rect fill="white" x="-0.214844" y="5" width="84" height="112"/>
<path d="M54.9558 115V90.1786H2.1382V78.4895L54.6672 7.48878H68.2323V78.4895H82.2304V90.1786H68.2323V115H54.9558ZM12.8172 83.5403L10.7968 78.4895H54.9558V19.3222L59.1408 20.4767L12.8172 83.5403Z"/>
</mask>
<path d="M54.9558 115H53.4041V116.552H54.9558V115ZM54.9558 90.1786H56.5075V88.6269H54.9558V90.1786ZM2.1382 90.1786H0.586475V91.7303H2.1382V90.1786ZM2.1382 78.4895L0.890761 77.5666L0.586475 77.9779V78.4895H2.1382ZM54.6672 7.48878V5.93706H53.885L53.4197 6.56588L54.6672 7.48878ZM68.2323 7.48878H69.7841V5.93706H68.2323V7.48878ZM68.2323 78.4895H66.6806V80.0412H68.2323V78.4895ZM82.2304 78.4895H83.7822V76.9378H82.2304V78.4895ZM82.2304 90.1786V91.7303H83.7822V90.1786H82.2304ZM68.2323 90.1786V88.6269H66.6806V90.1786H68.2323ZM68.2323 115V116.552H69.7841V115H68.2323ZM12.8172 83.5403L11.3764 84.1166L12.4139 86.7104L14.0678 84.459L12.8172 83.5403ZM10.7968 78.4895V76.9378H8.50487L9.35608 79.0658L10.7968 78.4895ZM54.9558 78.4895V80.0412H56.5075V78.4895H54.9558ZM54.9558 19.3222L55.3684 17.8264L53.4041 17.2845V19.3222H54.9558ZM59.1408 20.4767L60.3914 21.3953L61.7249 19.5799L59.5534 18.9809L59.1408 20.4767ZM56.5075 115V90.1786H53.4041V115H56.5075ZM54.9558 88.6269H2.1382V91.7303H54.9558V88.6269ZM3.68992 90.1786V78.4895H0.586475V90.1786H3.68992ZM3.38564 79.4124L55.9146 8.41168L53.4197 6.56588L0.890761 77.5666L3.38564 79.4124ZM54.6672 9.0405H68.2323V5.93706H54.6672V9.0405ZM66.6806 7.48878V78.4895H69.7841V7.48878H66.6806ZM68.2323 80.0412H82.2304V76.9378H68.2323V80.0412ZM80.6787 78.4895V90.1786H83.7822V78.4895H80.6787ZM82.2304 88.6269H68.2323V91.7303H82.2304V88.6269ZM66.6806 90.1786V115H69.7841V90.1786H66.6806ZM68.2323 113.448H54.9558V116.552H68.2323V113.448ZM14.2579 82.9641L12.2376 77.9132L9.35608 79.0658L11.3764 84.1166L14.2579 82.9641ZM10.7968 80.0412H54.9558V76.9378H10.7968V80.0412ZM56.5075 78.4895V19.3222H53.4041V78.4895H56.5075ZM54.5431 20.8181L58.7281 21.9726L59.5534 18.9809L55.3684 17.8264L54.5431 20.8181ZM57.8902 19.5581L11.5666 82.6217L14.0678 84.459L60.3914 21.3953L57.8902 19.5581Z" fill="#FF2A00" mask="url(#path-2-outside-1_1374_5607)"/>
</g>
</svg>
