<svg width="45" height="37" viewBox="0 0 45 37" fill="none" xmlns="http://www.w3.org/2000/svg">
<path d="M38.2917 6.25V6.75H38.7917H44.4167V9.83333H42.875H42.375V10.3333V32.7917V33.2917H42.875H44.4167V36.375H0.5V33.2917H2.04167H2.54167V32.7917V10.3333V9.83333H2.04167H0.5V6.75H6.125H6.625V6.25V2.16667C6.625 1.75779 6.78743 1.36566 7.07654 1.07654C7.36566 0.787425 7.75779 0.625 8.16667 0.625H36.75C37.1589 0.625 37.551 0.787425 37.8401 1.07654C38.1292 1.36566 38.2917 1.75779 38.2917 2.16667V6.25ZM39.2917 10.3333V9.83333H38.7917H6.125H5.625V10.3333V32.7917V33.2917H6.125H12.25H12.75V32.7917V19H15.8333V32.7917V33.2917H16.3333H20.4167H20.9167V32.7917V19H24V32.7917V33.2917H24.5H28.5833H29.0833V32.7917V19H32.1667V32.7917V33.2917H32.6667H38.7917H39.2917V32.7917V10.3333ZM10.2083 3.70833H9.70833V4.20833V6.25V6.75H10.2083H34.7083H35.2083V6.25V4.20833V3.70833H34.7083H10.2083Z" fill="#FF2A00" stroke="#ff2a00"/>
</svg>
