<svg width="47" height="47" viewBox="0 0 47 47" fill="none" xmlns="http://www.w3.org/2000/svg">
<path d="M0.4 46.5992V44.0421H46.6V46.5992H0.4Z" fill="white" stroke="black" stroke-width="0.8"/>
<path d="M40.2857 37.3276H43.2428V39.8848H3.75712V37.3276H6.71426H7.11426V36.9276V15.1062V14.7062H6.71426H5.03569C4.69659 14.7062 4.37138 14.5715 4.1316 14.3317C3.89182 14.0919 3.75712 13.7667 3.75712 13.4276L3.75712 8.39207C3.75712 8.39205 3.75712 8.39202 3.75712 8.392C3.75712 8.39197 3.75712 8.39193 3.75712 8.3919C3.75726 8.12919 3.83833 7.87291 3.98929 7.65791C4.14028 7.44286 4.35386 7.27955 4.60097 7.19021L4.60167 7.18996L23.0653 0.475926C23.0654 0.475875 23.0655 0.475824 23.0657 0.475772C23.3463 0.374417 23.6536 0.374417 23.9343 0.475772C23.9344 0.475824 23.9345 0.475875 23.9347 0.475926L42.3983 7.18996L42.399 7.19021C42.6461 7.27955 42.8597 7.44286 43.0107 7.6579C43.1616 7.87291 43.2427 8.12919 43.2428 8.3919C43.2428 8.39196 43.2428 8.39201 43.2428 8.39207V13.4276C43.2428 13.7667 43.1081 14.0919 42.8683 14.3317C42.6286 14.5715 42.3034 14.7062 41.9643 14.7062H40.2857H39.8857V15.1062V36.9276V37.3276H40.2857ZM6.57744 9.19102L6.31426 9.28682V9.5669V11.749V12.149H6.71426H40.2857H40.6857V11.749V9.5669V9.28682L40.4225 9.19102L23.6368 3.08102L23.5 3.03122L23.3632 3.08102L6.57744 9.19102ZM26.8571 37.3276H27.2571V36.9276V15.1062V14.7062H26.8571H20.1428H19.7428V15.1062V36.9276V37.3276H20.1428H26.8571ZM10.0714 14.7062H9.6714V15.1062V36.9276V37.3276H10.0714H16.7857H17.1857V36.9276V15.1062V14.7062H16.7857H10.0714ZM36.9285 37.3276H37.3285V36.9276V15.1062V14.7062H36.9285H30.2143H29.8143V15.1062V36.9276V37.3276H30.2143H36.9285Z" fill="white" stroke="black" stroke-width="0.8"/>
</svg>
