<svg width="44" height="44" viewBox="0 0 44 44" fill="none" xmlns="http://www.w3.org/2000/svg">
<path d="M30.7351 11.8528V11.8433L30.7347 11.8338C30.6559 9.76159 29.7772 7.80047 28.2833 6.36224C26.7893 4.92402 24.7962 4.12056 22.7225 4.12056C20.6487 4.12056 18.6556 4.92402 17.1617 6.36224C15.6677 7.80047 14.7891 9.76159 14.7102 11.8338L14.7099 11.8433V11.8528L14.7099 35.623C14.7099 35.6232 14.7099 35.6234 14.7099 35.6236C14.707 37.506 13.9573 39.3103 12.6253 40.6404C11.2932 41.9706 9.48753 42.7178 7.60494 42.7178C5.72059 42.7178 3.91342 41.9692 2.58099 40.6368C1.24855 39.3044 0.5 37.4972 0.5 35.6128V2.17284C0.5 1.72918 0.676245 1.30368 0.989964 0.989964C1.30368 0.676245 1.72918 0.5 2.17284 0.5C2.6165 0.5 3.042 0.676245 3.35572 0.989964C3.66943 1.30368 3.84568 1.72918 3.84568 2.17284V35.6237C3.84568 36.6207 4.24174 37.5769 4.94674 38.2819C5.65174 38.9869 6.60792 39.383 7.60494 39.383C8.60195 39.383 9.55814 38.9869 10.2631 38.2819C10.9681 37.5769 11.3642 36.6207 11.3642 35.6237V11.8605C11.4554 8.91029 12.691 6.11122 14.8096 4.0558C16.93 1.99864 19.7682 0.848107 22.7225 0.848107C25.6768 0.848107 28.5149 1.99864 30.6353 4.0558C32.7539 6.11122 33.9895 8.91029 34.0807 11.8605V17.1546C34.0807 17.5982 33.9045 18.0237 33.5908 18.3374C33.2771 18.6512 32.8516 18.8274 32.4079 18.8274C31.9642 18.8274 31.5387 18.6512 31.225 18.3374C30.9113 18.0237 30.7351 17.5982 30.7351 17.1546V11.8528Z" fill="#FFFBFB" stroke="black"/>
<path d="M24.6723 29.1728L24.6748 29.6703H25.1723H39.6543H40.1543V29.1703V22.5866C40.1543 21.6415 39.7789 20.735 39.1105 20.0667C38.4422 19.3984 37.5358 19.0229 36.5906 19.0229H28.2035C27.2583 19.0229 26.3519 19.3984 25.6835 20.0667C25.0152 20.735 24.6397 21.6415 24.6397 22.5866L24.6398 22.5891L24.6723 29.1728ZM40.4668 33.016H24.3575C23.545 33.016 22.7658 32.6933 22.1913 32.1187C21.6168 31.5442 21.2941 30.765 21.2941 29.9526V22.587C21.2968 20.7553 22.0257 18.9994 23.321 17.7041C24.6162 16.4089 26.3721 15.68 28.2038 15.6772H36.5902C38.422 15.68 40.1779 16.4089 41.4731 17.7041C42.7684 18.9994 43.4973 20.7555 43.5 22.5874V29.9526C43.5 30.7602 43.1811 31.5352 42.6127 32.1089C42.0447 32.6821 41.2736 33.008 40.4668 33.016Z" fill="#FFFBFB" stroke="black"/>
<path d="M27.8012 39.6544V40.1544H28.3012H36.482H36.982V39.6544V33.5161V33.0161H36.482H28.3012H27.8012V33.5161V39.6544ZM37.2742 43.5H27.4988C26.695 43.4948 25.9253 43.1737 25.356 42.6062C24.7868 42.0387 24.4635 41.2704 24.4556 40.4668V31.3432C24.4556 30.8996 24.6318 30.4741 24.9455 30.1604C25.2593 29.8467 25.6847 29.6704 26.1284 29.6704H38.6548C39.0985 29.6704 39.524 29.8467 39.8377 30.1604C40.1514 30.4741 40.3277 30.8996 40.3277 31.3432V40.4668C40.3197 41.272 39.9951 42.0417 39.4239 42.6094C38.8523 43.1775 38.08 43.4975 37.2742 43.5Z" fill="#FFFBFB" stroke="black"/>
</svg>
