<svg width="45" height="47" viewBox="0 0 45 47" fill="none" xmlns="http://www.w3.org/2000/svg">
<path d="M32.6192 12.5378V12.1878V10.9693C32.6192 5.1096 28.0974 0.35 22.5 0.35C16.9026 0.35 12.3808 5.1096 12.3808 10.9693V12.1843V12.1878V12.5378H12.0308L4.88423 12.5378L4.88389 12.5378M32.6192 12.5378H4.88389M32.6192 12.5378H32.9692L40.1158 12.5378M32.6192 12.5378L40.1158 12.5378M4.88389 12.5378C4.5382 12.5382 4.20511 12.6666 3.94908 12.8978C3.69304 13.1291 3.5323 13.4468 3.49775 13.7892C3.49774 13.7893 3.49774 13.7893 3.49773 13.7894L0.357001 45.1202L0.356984 45.1204C0.337525 45.3135 0.358838 45.5086 0.419562 45.6931L0.0871159 45.8025L4.88389 12.5378ZM40.1158 12.5378L40.1161 12.5378C40.116 12.5378 40.1159 12.5378 40.1158 12.5378ZM15.1706 12.1878H15.5206V12.5343H29.4794H29.8294V12.1843V10.9693C29.8294 6.64162 26.5465 3.13122 22.5 3.13122C18.4535 3.13122 15.1706 6.64162 15.1706 10.9693V11.8343V12.1843V12.1878ZM12.3808 15.6655V15.3155H12.0308H6.46473H6.14806L6.11648 15.6306L3.3247 43.4804L3.28611 43.8653H3.67295H41.327H41.7139L41.6753 43.4803L38.88 15.6306L38.8484 15.3155H38.5318H32.9692H32.6192V15.6655V20.8873C32.6192 21.2559 32.4724 21.6095 32.2109 21.8703C31.9494 22.1312 31.5945 22.278 31.2243 22.278C30.8541 22.278 30.4992 22.1312 30.2377 21.8703C29.9762 21.6095 29.8294 21.2559 29.8294 20.8873V15.6655V15.3155H29.4794H15.5206H15.1706V15.6655V20.8873C15.1706 21.2559 15.0238 21.6095 14.7623 21.8703C14.5008 22.1312 14.1459 22.278 13.7757 22.278C13.4055 22.278 13.0506 22.1312 12.7891 21.8703C12.5276 21.6095 12.3808 21.2559 12.3808 20.8873V15.6655Z" fill="#FFFEFE" stroke="black" stroke-width="0.7"/>
</svg>
