<svg width="62" height="50" viewBox="0 0 62 50" fill="none" xmlns="http://www.w3.org/2000/svg">
<path d="M49 49L60.4729 37.5271C60.8104 37.1896 61 36.7318 61 36.2545V20.5C61 18.0147 58.9852 16 56.5 16C54.0148 16 52 18.0147 52 20.5V34" stroke="#FFFDFD" stroke-width="2" stroke-linecap="round" stroke-linejoin="round"/>
<path d="M49 37.0001L51.5743 34.4258C51.847 34.1531 52 33.7835 52 33.3983C52 32.8478 51.6889 32.3447 51.1966 32.0984L49.8679 31.4342C47.5582 30.2792 44.7682 30.7319 42.9421 32.558L40.2574 35.2427C39.1321 36.368 38.5 37.8941 38.5 39.4853V49.0001" stroke="#FFFDFD" stroke-width="2" stroke-linecap="round" stroke-linejoin="round"/>
<path d="M13 49L1.52722 37.5271C1.18963 37.1896 1 36.7318 1 36.2545V20.5C1 18.0147 3.01471 16 5.5 16C7.98529 16 10 18.0147 10 20.5V34" stroke="#FFFDFD" stroke-width="2" stroke-linecap="round" stroke-linejoin="round"/>
<path d="M13 37.0001L10.4256 34.4258C10.1531 34.1531 10 33.7835 10 33.3983C10 32.8478 10.311 32.3447 10.8033 32.0984L12.132 31.4342C14.4419 30.2792 17.2318 30.7319 19.0579 32.558L21.7426 35.2427C22.8679 36.368 23.5 37.8941 23.5 39.4853V49.0001" stroke="#FFFDFD" stroke-width="2" stroke-linecap="round" stroke-linejoin="round"/>
<path d="M36.0001 25H25.9999V18H19V7.99999H25.9999V1H36.0001V7.99999H43V18H36.0001V25Z" stroke="#FFFDFD" stroke-width="2" stroke-linecap="round" stroke-linejoin="round"/>
</svg>
