<svg width="47" height="45" viewBox="0 0 47 45" fill="none" xmlns="http://www.w3.org/2000/svg">
<path d="M34.1163 29.4992L34.1164 29.4992C37.6549 29.3008 40.4032 26.2403 40.2054 22.69C40.0047 19.0836 36.9195 16.4055 33.3962 16.6009C29.8306 16.7992 27.1087 19.846 27.3071 23.4101C27.5054 26.9734 30.5561 29.6976 34.1163 29.4992ZM38.8291 22.7683L38.8291 22.7684C38.9857 25.5704 36.8353 27.9675 34.038 28.1229L34.0491 28.3226L34.038 28.1229C31.2359 28.2789 28.8388 26.1297 28.6828 23.3318C28.5273 20.5341 30.6767 18.1326 33.4745 17.9772C36.2722 17.8212 38.6737 19.9705 38.8291 22.7683ZM30.6256 23.2253L30.6256 23.2253C30.7219 24.9552 32.2057 26.2764 33.9314 26.1807L33.9315 26.1807C35.6614 26.0844 36.9826 24.6012 36.8869 22.8749L36.8869 22.8748C36.79 21.1416 35.3126 19.8231 33.581 19.9194C31.8478 20.0157 30.5293 21.4937 30.6256 23.2253ZM20.6213 26.3479V26.1479H20.4213H8.07768H7.87768V26.3479V35.2822V35.4822H8.07768H20.4213H20.6213V35.2822V26.3479ZM2.15068 5.30518V5.50518H2.35068H33.3392H33.5392V5.30518V2.35068V2.15068H33.3392H2.35068H2.15068V2.35068V5.30518ZM33.5392 7.65642V7.45642H33.3392H2.35068H2.15068V7.65642V41.6743V41.8743H2.35068H33.3392H33.5392V41.6743V31.6445V31.4539L33.3488 31.4448C29.0626 31.2393 25.6041 27.8207 25.3643 23.5166C25.1062 18.8868 28.6589 14.9167 33.2887 14.6582C33.2891 14.6581 33.2894 14.6581 33.2897 14.6581L33.3486 14.6554L33.5392 14.6465V14.4556V7.65642ZM40.724 27.7479L40.6261 27.8926L40.7563 28.0091L46.4657 33.1158C46.7111 33.3353 46.8024 33.5823 46.8 33.8142C46.7975 34.0513 46.6964 34.2882 46.5292 34.4752C46.3619 34.6622 46.1377 34.7888 45.9024 34.8176C45.6723 34.8457 45.4168 34.7824 45.1716 34.5628L45.1715 34.5628L39.4621 29.4561L39.3319 29.3396L39.199 29.4529C38.1502 30.3472 36.9277 30.9447 35.6456 31.2399L35.4905 31.2756V31.4348V42.8502C35.4905 43.3889 35.0539 43.8256 34.5151 43.8256H1.17534C0.63661 43.8256 0.2 43.3889 0.2 42.8502V1.17534C0.2 0.636609 0.636609 0.2 1.17534 0.2H34.5151C35.0539 0.2 35.4905 0.636609 35.4905 1.17534V14.6648V14.824L35.6456 14.8597C39.2799 15.6964 41.9399 18.8459 42.1476 22.5835L42.1476 22.5835C42.2473 24.3703 41.7782 26.1898 40.724 27.7479ZM6.90234 24.1966H21.5966C22.1354 24.1966 22.5725 24.6339 22.5725 25.172V36.4576C22.5725 36.9962 22.1355 37.4329 21.5966 37.4329H6.90234C6.36362 37.4329 5.92701 36.9963 5.92701 36.4576V25.172C5.92701 24.6337 6.36368 24.1966 6.90234 24.1966ZM6.43232 16.1555C6.10103 16.1555 5.86676 16.0316 5.713 15.8563C5.55584 15.677 5.47272 15.4319 5.47272 15.1799C5.47272 14.9279 5.55584 14.6827 5.713 14.5035C5.86676 14.3281 6.10103 14.2043 6.43232 14.2043H18.1874C18.5187 14.2043 18.753 14.3281 18.9067 14.5035C19.0639 14.6827 19.147 14.9279 19.147 15.1799C19.147 15.4319 19.0639 15.677 18.9067 15.8563C18.753 16.0316 18.5187 16.1555 18.1874 16.1555H6.43232ZM6.43232 12.2763C6.10103 12.2763 5.86676 12.1524 5.713 11.977C5.55584 11.7978 5.47272 11.5527 5.47272 11.3006C5.47272 11.0486 5.55584 10.8035 5.713 10.6243C5.86676 10.4489 6.10103 10.325 6.43232 10.325H18.1874C18.5187 10.325 18.753 10.4489 18.9067 10.6243C19.0639 10.8035 19.147 11.0486 19.147 11.3006C19.147 11.5527 19.0639 11.7978 18.9067 11.977C18.753 12.1524 18.5187 12.2763 18.1874 12.2763H6.43232Z" fill="#ff2a00" stroke="#ff2a00" stroke-width="0.4"/>
</svg>
