<svg width="52" height="52" viewBox="0 0 52 52" fill="none" xmlns="http://www.w3.org/2000/svg">
<path d="M48.7368 50H3.26316C2.55579 50 2 49.1201 2 47.9999V4.00001C2 2.87999 2.55579 2 3.26316 2H48.7368C49.4442 2 50 2.87999 50 4.00001V47.9999C50 49.1201 49.4442 50 48.7368 50Z" stroke="#FFFDFD" stroke-width="3" stroke-miterlimit="10" stroke-linecap="round" stroke-linejoin="round"/>
<path d="M44.9474 20.9473H39.8948" stroke="#FFFDFD" stroke-width="3" stroke-miterlimit="10" stroke-linecap="round" stroke-linejoin="round"/>
<path d="M44.9474 31.0527H39.8948" stroke="#FFFDFD" stroke-width="3" stroke-miterlimit="10" stroke-linecap="round" stroke-linejoin="round"/>
<path d="M12.1052 31.0527H7.05261" stroke="#FFFDFD" stroke-width="3" stroke-miterlimit="10" stroke-linecap="round" stroke-linejoin="round"/>
<path d="M12.1052 20.9473H7.05261" stroke="#FFFDFD" stroke-width="3" stroke-miterlimit="10" stroke-linecap="round" stroke-linejoin="round"/>
<path d="M44.9474 9.57886H39.8948" stroke="#FFFDFD" stroke-width="3" stroke-miterlimit="10" stroke-linecap="round" stroke-linejoin="round"/>
<path d="M12.1052 10.842H7.05261" stroke="#FFFDFD" stroke-width="3" stroke-miterlimit="10" stroke-linecap="round" stroke-linejoin="round"/>
<path d="M44.9474 39.8948H39.8948" stroke="#FFFDFD" stroke-width="3" stroke-miterlimit="10" stroke-linecap="round" stroke-linejoin="round"/>
<path d="M12.1052 41.158H7.05261" stroke="#FFFDFD" stroke-width="3" stroke-miterlimit="10" stroke-linecap="round" stroke-linejoin="round"/>
<path d="M30.3928 24.7496L23.117 20.1012C22.1823 19.4948 20.9443 20.2022 20.9443 21.3391V30.6612C20.9443 31.798 22.1823 32.5054 23.117 31.8991L30.3928 27.2506C31.277 26.6443 31.277 25.3306 30.3928 24.7496Z" stroke="#FFFDFD" stroke-width="3" stroke-miterlimit="10" stroke-linecap="round" stroke-linejoin="round"/>
</svg>
