<svg width="56" height="50" viewBox="0 0 56 50" fill="none" xmlns="http://www.w3.org/2000/svg">
<path d="M1.28068 0H54.7192C55.2058 0 55.6001 0.394271 55.6001 0.880856V49.0343C55.6001 49.5209 55.2058 49.9151 54.7192 49.9151H1.28068C0.794094 49.9151 0.399822 49.5209 0.399822 49.0343V0.880856C0.399822 0.394271 0.794094 0 1.28068 0ZM2.16153 48.1534H53.8384V1.76171H21.2467V7.04684H51.1958C51.6824 7.04684 52.0767 7.44111 52.0767 7.9277C52.0767 8.41428 51.6824 8.80855 51.1958 8.80855H4.8041C4.31752 8.80855 3.92324 8.41428 3.92324 7.9277C3.92324 7.44111 4.31752 7.04684 4.8041 7.04684H19.485V1.76171H2.16153V48.1534Z" fill="#FFFCFC"/>
<path d="M10.7939 5.28515C10.3075 5.28515 9.91309 4.89078 9.91309 4.40429C9.91309 3.91781 10.3075 3.52344 10.7939 3.52344C11.2804 3.52344 11.6748 3.91781 11.6748 4.40429C11.6748 4.89078 11.2804 5.28515 10.7939 5.28515Z" fill="#FFFCFC"/>
<path d="M15.6093 5.28515C15.1228 5.28515 14.7284 4.89078 14.7284 4.40429C14.7284 3.91781 15.1228 3.52344 15.6093 3.52344C16.0957 3.52344 16.4901 3.91781 16.4901 4.40429C16.4901 4.89078 16.0957 5.28515 15.6093 5.28515Z" fill="#FFFCFC"/>
<path d="M5.97852 5.28515C5.49204 5.28515 5.09766 4.89078 5.09766 4.40429C5.09766 3.91781 5.49204 3.52344 5.97852 3.52344C6.465 3.52344 6.85938 3.91781 6.85938 4.40429C6.85938 4.89078 6.465 5.28515 5.97852 5.28515Z" fill="#FFFCFC"/>
<path d="M28 21.6309C31.5993 21.6309 34.5273 24.5591 34.5273 28.1582C34.5273 31.7574 31.5993 34.6856 28 34.6856C26.9646 34.6856 25.9315 34.4351 25.0126 33.9613C24.5801 33.7384 24.4104 33.2071 24.6333 32.7746C24.8564 32.3422 25.3876 32.1728 25.82 32.3954C26.4999 32.746 27.2333 32.9238 28 32.9238C30.6277 32.9238 32.7656 30.7859 32.7656 28.1581C32.7656 25.5303 30.6277 23.3925 28 23.3925C25.3722 23.3925 23.2343 25.5303 23.2343 28.1581C23.2343 28.9248 23.4121 29.6582 23.7626 30.3379C23.9855 30.7703 23.8158 31.3015 23.3833 31.5246C22.9511 31.7472 22.4199 31.5781 22.1967 31.1454C21.7229 30.2268 21.4725 29.1939 21.4725 28.1581C21.4726 24.5589 24.4007 21.6309 28 21.6309Z" fill="#FFFCFC"/>
<path d="M13.5437 24.9287H17.2483C17.4657 24.2064 17.7559 23.5082 18.1159 22.842L15.494 20.2202C15.3289 20.055 15.2361 19.831 15.2361 19.5973C15.2361 19.3636 15.3289 19.1397 15.494 18.9744L18.8159 15.6525C19.16 15.3086 19.7177 15.3086 20.0617 15.6525L22.6834 18.2744C23.3496 17.9145 24.0477 17.6242 24.7701 17.4068V13.7021C24.7701 13.2156 25.1644 12.8213 25.651 12.8213H30.3489C30.8355 12.8213 31.2297 13.2156 31.2297 13.7021V17.4068C31.952 17.6242 32.6503 17.9144 33.3164 18.2744L35.9382 15.6525C36.2823 15.3086 36.84 15.3086 37.184 15.6525L40.5058 18.9744C40.671 19.1396 40.7638 19.3636 40.7638 19.5973C40.7638 19.831 40.671 20.0549 40.5058 20.2202L37.884 22.842C38.2438 23.5082 38.5341 24.2063 38.7515 24.9287H42.4562C42.9428 24.9287 43.337 25.323 43.337 25.8096V30.5075C43.337 30.994 42.9428 31.3883 42.4562 31.3883H38.7514C38.534 32.1109 38.2439 32.809 37.884 33.475L40.5057 36.0967C40.671 36.2619 40.7638 36.4859 40.7638 36.7196C40.7638 36.9533 40.671 37.1772 40.5058 37.3425L37.184 40.6644C36.84 41.0082 36.2822 41.0084 35.9383 40.6644L33.3164 38.0427C32.6503 38.4025 31.9522 38.6928 31.2297 38.9102V42.6148C31.2297 43.1013 30.8355 43.4956 30.3489 43.4956H25.651C25.1644 43.4956 24.7701 43.1013 24.7701 42.6148V38.9102C24.0478 38.6928 23.3496 38.4026 22.6834 38.0427L20.0615 40.6644C19.7177 41.0083 19.1599 41.0083 18.8159 40.6644L15.494 37.3425C15.3289 37.1773 15.2361 36.9533 15.2361 36.7196C15.2361 36.4859 15.3289 36.262 15.4941 36.0967L18.1159 33.475C17.7561 32.8088 17.4658 32.1109 17.2484 31.3883H13.5437C13.0571 31.3883 12.6628 30.994 12.6628 30.5075V25.8096C12.6628 25.323 13.0572 24.9287 13.5437 24.9287ZM14.4245 29.6266H17.9247C18.3341 29.6266 18.6896 29.9087 18.7827 30.3076C19.017 31.3133 19.4149 32.2703 19.9652 33.1525C20.1823 33.5003 20.1306 33.9517 19.8406 34.2416L17.3625 36.7196L19.4387 38.7958L21.917 36.3177C22.2068 36.028 22.6581 35.9764 23.006 36.1932C23.8881 36.7437 24.8453 37.1415 25.8509 37.3758C26.2497 37.4688 26.5318 37.8242 26.5318 38.2337V41.7338H29.468V38.2337C29.468 37.8243 29.7501 37.4688 30.149 37.3758C31.1546 37.1415 32.1118 36.7436 32.9939 36.1932C33.3418 35.9763 33.7934 36.0281 34.0829 36.3177L36.5611 38.7958L38.6374 36.7196L36.1592 34.2416C35.8693 33.9516 35.8177 33.5001 36.0347 33.1524C36.585 32.2706 36.9828 31.3135 37.2172 30.3076C37.3102 29.9087 37.6656 29.6266 38.0752 29.6266H41.5753V26.6904H38.0752C37.6657 26.6904 37.3102 26.4083 37.2172 26.0095C36.9829 25.0039 36.585 24.0467 36.0346 23.1645C35.8176 22.8168 35.8693 22.3653 36.1591 22.0754L38.6374 19.5973L36.5611 17.5211L34.083 19.9993C33.7931 20.2892 33.3417 20.3409 32.9939 20.1238C32.1118 19.5733 31.1546 19.1755 30.149 18.9412C29.7501 18.8482 29.468 18.4928 29.468 18.0833V14.5831H26.5318V18.0833C26.5318 18.4927 26.2497 18.8482 25.8509 18.9412C24.8453 19.1755 23.8881 19.5735 23.006 20.1238C22.6581 20.3409 22.2065 20.2888 21.9169 19.9993L19.4387 17.5211L17.3625 19.5973L19.8407 22.0754C20.1306 22.3654 20.1822 22.8169 19.9652 23.1645C19.4148 24.0467 19.017 25.0039 18.7827 26.0095C18.6896 26.4083 18.3342 26.6904 17.9247 26.6904H14.4245V29.6266Z" fill="#FFFCFC"/>
</svg>
