<svg width="45" height="112" viewBox="0 0 45 112" fill="none" xmlns="http://www.w3.org/2000/svg">
<mask id="mask0_1374_5598" style="mask-type:alpha" maskUnits="userSpaceOnUse" x="0" y="0" width="45" height="112">
<rect y="0.275391" width="45" height="111.724" fill="#D9D9D9"/>
</mask>
<g mask="url(#mask0_1374_5598)">
<mask id="path-2-outside-1_1374_5598" maskUnits="userSpaceOnUse" x="4" y="5.30981" width="38" height="112" fill="black">
<rect fill="white" x="4" y="5.30981" width="38" height="112"/>
<path d="M26.1358 115.31V20.065H5.78804V7.7986H40.4225V115.31H26.1358Z"/>
</mask>
<path d="M26.1358 115.31H24.5841V116.862H26.1358V115.31ZM26.1358 20.065H27.6875V18.5133H26.1358V20.065ZM5.78804 20.065H4.23632V21.6167H5.78804V20.065ZM5.78804 7.7986V6.24687H4.23632V7.7986H5.78804ZM40.4225 7.7986H41.9743V6.24687H40.4225V7.7986ZM40.4225 115.31V116.862H41.9743V115.31H40.4225ZM27.6875 115.31V20.065H24.5841V115.31H27.6875ZM26.1358 18.5133H5.78804V21.6167H26.1358V18.5133ZM7.33977 20.065V7.7986H4.23632V20.065H7.33977ZM5.78804 9.35032H40.4225V6.24687H5.78804V9.35032ZM38.8708 7.7986V115.31H41.9743V7.7986H38.8708ZM40.4225 113.758H26.1358V116.862H40.4225V113.758Z" fill="#FF2A00" mask="url(#path-2-outside-1_1374_5598)"/>
</g>
</svg>
