<svg width="77" height="72" viewBox="0 0 77 72" fill="none" xmlns="http://www.w3.org/2000/svg">
<path d="M19.254 21.232C19.1732 20.6889 19.1328 20.1216 19.1328 19.5542C19.1328 16.5229 20.2802 13.7673 22.1547 11.6924C21.6537 11.4574 21.1609 11.1819 20.7004 10.882C18.6563 13.7349 17.1614 17.4307 16.4827 21.5886C17.4927 21.2157 18.4218 21.1104 19.254 21.232ZM38.3791 10.7926C40.6223 7.17717 43.941 5.63843 47.9458 5.10289C44.9173 4.43178 41.461 5.1849 38.3872 7.80178C35.3161 5.18731 31.8502 4.42968 28.8126 5.10289C32.8725 5.6458 36.1811 7.25014 38.3791 10.7926ZM54.6116 11.6923C56.478 13.7671 57.6254 16.5227 57.6254 19.554C57.6254 20.1215 57.585 20.6725 57.5123 21.2156C58.3445 21.1102 59.2655 21.2156 60.2755 21.5884C59.5969 17.4306 58.1102 13.7428 56.0578 10.8898C55.5973 11.1898 55.1125 11.4572 54.6116 11.6923ZM38.6296 64.5127H38.6539C39.2841 64.5046 39.8255 64.1642 40.1001 63.6049C40.5525 62.6889 41.1101 61.5786 41.7161 60.3629H35.4381L37.1834 63.6455C37.4741 64.1884 38.0155 64.5127 38.6296 64.5127ZM50.8787 38.301C50.8787 35.5454 50.2727 32.9517 49.1416 30.7877C46.6934 31.4524 44.0513 31.2903 41.6677 30.2691C41.3363 31.1606 40.7627 32.8626 40.383 33.9164C39.7125 35.8211 37.0299 35.8048 36.3674 33.9083C36.0522 33.0005 35.325 30.9337 35.0907 30.2691C32.7071 31.2985 30.0569 31.4524 27.6167 30.7796C26.4855 32.9517 25.8797 35.5373 25.8797 38.301C25.8797 41.0082 26.4452 43.4558 27.5602 45.5794L28.8369 47.9865C29.4375 47.8914 30.0147 47.9612 30.6467 48.2783C31.5165 47.8421 32.446 47.8257 33.3293 48.2864C34.8906 47.4721 36.6848 48.1987 37.3531 49.6805H39.4054C40.0673 48.2131 41.845 47.4716 43.4211 48.2783C44.2909 47.8421 45.2204 47.8257 46.1037 48.2864C46.7279 47.9608 47.3138 47.8916 47.9459 47.9865C49.3635 45.1655 50.8787 43.0555 50.8787 38.301Z" fill="white"/>
<path d="M21.088 43.3748C22.0657 45.2065 23.213 47.3625 24.4492 49.6805H26.6307C26.8004 49.2914 27.059 48.951 27.374 48.6755L26.1297 46.3412C24.8935 43.9746 24.2633 41.2755 24.2633 38.301C24.2633 35.3669 24.8935 32.595 26.0813 30.2365C25.3218 29.9041 24.5946 29.4989 23.9158 28.9965C23.8916 30.0582 23.7218 31.1686 23.4068 32.2547C21.7909 35.5777 20.684 39.4762 21.088 43.3748ZM41.5462 64.3343C40.9967 65.4286 39.8979 66.1174 38.6779 66.1337H38.6376C37.4255 66.1337 36.3267 65.4772 35.7612 64.4073L33.6039 60.3629H30.1376C31.9717 63.7913 33.725 67.0901 35.1795 69.8215C36.755 72.7717 40.9889 72.7149 42.4837 69.7162C43.833 67.0091 45.4572 63.7509 47.1539 60.363H43.526C42.7825 61.8622 42.0957 63.2401 41.5462 64.3343ZM52.5106 49.6805C53.666 47.3948 54.7406 45.2713 55.6618 43.472C56.389 35.9181 53.0277 34.3781 52.8258 29.0046C52.1551 29.5072 51.428 29.9124 50.6765 30.2447C51.8642 32.5952 52.4944 35.3671 52.4944 38.301C52.4944 41.2837 51.8642 43.9825 50.6199 46.3412C50.3129 46.9329 49.8927 47.7352 49.4079 48.6916C49.7149 48.9673 49.9573 49.2995 50.127 49.6805H52.5106ZM36.0277 16.4013C34.1167 14.4576 31.8265 13.2374 29.1194 13.0945C27.3742 14.1076 26.2025 16.0123 26.2025 18.2088C26.2025 21.467 28.8042 24.1091 32.0119 24.1091C35.2197 24.1091 37.8214 21.467 37.8214 18.2088C37.8214 17.8117 37.781 17.4307 37.7083 17.0578C37.363 17.1445 36.5607 16.9359 36.0277 16.4013ZM32.0121 21.5479C30.1941 21.5479 28.7235 20.0647 28.7235 18.2086C28.7235 17.3657 29.0305 16.5957 29.5395 16.004C29.7416 16.6119 30.299 17.0497 30.9535 17.0497C31.8019 17.0497 32.4643 16.3527 32.4643 15.5016C32.4643 15.2747 32.4159 15.0639 32.335 14.8776C34.0076 15.0478 35.3004 16.4743 35.3004 18.2088C35.3005 20.0647 33.83 21.5479 32.0121 21.5479ZM37.8178 22.8958C38.0005 22.8764 38.1841 22.8609 38.3708 22.8609C38.5623 22.8609 38.7507 22.8763 38.9379 22.8965C38.7352 22.6381 38.5474 22.3672 38.3789 22.0828C38.2099 22.3672 38.0212 22.6378 37.8178 22.8958Z" fill="white"/>
<path d="M20.7493 19.5539C20.7493 25.0896 25.1529 29.5718 30.6069 29.5718C32.0046 29.5718 33.3298 29.2719 34.5337 28.7369C34.3317 28.2344 34.1217 27.7319 33.968 27.4644C33.6125 26.8483 33.6044 26.1028 33.9196 25.4786C33.3136 25.6406 32.6753 25.7299 32.0127 25.7299C27.9162 25.7299 24.5872 22.3582 24.5872 18.2085C24.5872 16.1578 25.4033 14.2938 26.7122 12.9321C25.578 12.8264 24.7116 12.6449 23.7631 12.3405C21.9047 14.1641 20.7493 16.7251 20.7493 19.5539ZM46.1525 29.5716C51.5983 29.5716 56.01 25.0895 56.01 19.5537C56.01 16.7251 54.8546 14.1639 52.9962 12.3403C52.0011 12.664 51.1276 12.8334 50.0471 12.932C51.356 14.2936 52.1721 16.1578 52.1721 18.2083C52.1721 22.3662 48.8431 25.746 44.7466 25.746C44.0921 25.746 43.462 25.6569 42.864 25.4947C43.4135 26.605 42.7509 27.3913 42.2257 28.7366C43.4296 29.2717 44.7546 29.5716 46.1525 29.5716Z" fill="white"/>
<path d="M47.639 13.0943C46.6167 13.1483 45.8255 13.2804 44.6172 13.7427C43.2113 14.3181 41.8942 15.2178 40.7227 16.4011C40.1815 16.9544 39.372 17.1384 39.0501 17.0576C38.9774 17.4305 38.937 17.8113 38.937 18.2086C38.937 21.4668 41.5225 24.1252 44.7465 24.1252C47.9542 24.1252 50.5559 21.4668 50.5559 18.2086C50.5558 16.012 49.3842 14.1074 47.639 13.0943ZM44.7463 21.5477C42.9284 21.5477 41.4417 20.0645 41.4417 18.2084C41.4417 17.3655 41.7487 16.5955 42.2658 16.0038C42.4679 16.6117 43.0334 17.0495 43.6879 17.0495C44.5282 17.0495 45.1987 16.3525 45.1987 15.5014C45.1987 15.2745 45.1503 15.0637 45.0613 14.8774C46.7339 15.0395 48.0347 16.4741 48.0347 18.2086C48.0349 20.0645 46.5644 21.5477 44.7463 21.5477ZM35.3756 26.1405C35.2788 26.2963 35.2784 26.4983 35.3699 26.6573C35.6855 27.2061 36.101 28.2854 36.5744 29.6129C36.9845 30.7547 37.4317 32.0703 37.8886 33.3716C38.0505 33.8323 38.7 33.8332 38.8631 33.3729C39.8547 30.5716 40.7969 27.6808 41.3872 26.6581C41.4793 26.4983 41.4789 26.2956 41.3811 26.1392C39.9977 23.9294 36.7486 23.9299 35.3756 26.1405ZM17.7302 47.8719C18.7188 48.8771 20.389 47.9121 20.0283 46.5451C19.6541 45.1378 19.3868 43.543 19.4137 42.0017C19.1197 37.351 21.4311 33.0354 21.8588 31.8023C22.6738 29.0012 22.6204 25.4898 20.536 23.5598C18.4919 21.6165 13.7887 23.5732 12.1855 28.6661C11.0097 30.9848 11.5977 38.5704 14.5505 43.4759C15.4322 45.2451 16.5946 46.7193 17.7302 47.8719ZM56.2228 23.56C54.1385 25.49 54.0851 29.0014 54.9001 31.8025C55.3276 33.0356 57.6391 37.3512 57.3452 42.0018C57.3719 43.543 57.1047 45.138 56.7306 46.5452C56.3699 47.9123 58.04 48.8772 59.0287 47.8721C60.1644 46.7195 61.3267 45.2453 62.2086 43.4762C65.1613 38.5707 65.7492 30.9851 64.5734 28.6664C62.9701 23.5734 58.2671 21.6166 56.2228 23.56ZM29.7122 11.5103C32.4894 11.7193 35.1663 13.2178 37.181 15.2602C37.615 15.7002 38.3436 15.2787 38.2248 14.6712C37.8001 12.5029 36.4675 10.4332 34.6209 8.98893C29.8634 5.27661 26.1842 8.16599 21.0966 3.83658C20.2812 3.14064 19.5293 2.31048 18.8545 1.33843C18.1119 0.269164 16.4728 0.960588 16.6863 2.24593C16.9201 3.65451 17.4657 5.04819 18.2864 6.28568C21.8555 11.6737 27.5253 11.3029 29.7122 11.5103ZM42.1363 8.98893C40.2896 10.4332 38.9571 12.5029 38.5324 14.6712C38.4135 15.2786 39.1421 15.7 39.5762 15.2602C40.978 13.8391 42.4898 12.8647 44.0459 12.2273C46.9116 11.1362 47.9926 11.6561 50.8897 11.1925C53.9785 10.6697 56.777 8.84312 58.4711 6.28583C59.2918 5.04834 59.8374 3.65466 60.0713 2.24608C60.2847 0.960738 58.6455 0.269315 57.9031 1.33858C57.2282 2.31048 56.4764 3.14079 55.6609 3.83673C50.4278 8.28953 47.0582 5.1481 42.1363 8.98893ZM49.4651 54.2839C48.9451 55.6881 47.2238 56.113 46.112 55.2159C45.3298 55.8468 44.2198 55.8601 43.4213 55.2159C42.3065 56.1154 40.5941 55.6827 40.0762 54.2839C39.4298 52.5413 39.2196 51.7552 39.1551 51.3012H37.6038C37.5391 51.755 37.3291 52.5413 36.6827 54.2839C36.1598 55.6961 34.4343 56.1072 33.3295 55.2159C32.5389 55.8536 31.4391 55.855 30.6469 55.2159C29.5336 56.1142 27.8127 55.6855 27.2938 54.2839C26.6393 52.5089 26.4454 51.7146 26.3807 51.3012H6.28617C6.22962 51.3012 6.16496 51.3173 6.11651 51.3498L0.501021 54.2028C0.193958 54.3567 0 54.6729 0 55.0214C0 55.3699 0.193958 55.686 0.501021 55.8399L6.11651 58.701C6.17306 58.7334 6.22962 58.7415 6.29427 58.7415H68.4446V51.3011H50.378C50.3135 51.7147 50.1195 52.517 49.4651 54.2839ZM6.02771 55.3214L7.33666 56.5047L6.19736 57.834L3.39374 56.4075V53.6356L6.19736 52.2092L7.33666 53.5384L6.02771 54.7218C5.93875 54.7947 5.8903 54.9082 5.8903 55.0217C5.8903 55.135 5.93875 55.2484 6.02771 55.3214ZM74.8277 51.3012H70.0606V58.7416H74.8277C75.8942 58.7416 76.7587 57.8745 76.7587 56.8126V53.2382C76.7589 52.1685 75.8942 51.3012 74.8277 51.3012Z" fill="white"/>
<path d="M31.9845 49.5649C31.2457 49.5649 30.6476 50.165 30.6476 50.918C30.6476 51.3595 31.1073 52.6951 31.4875 53.7243C31.6591 54.1888 32.3124 54.1897 32.4854 53.7258C32.8691 52.6964 33.3334 51.3598 33.3334 50.918C33.3334 50.165 32.7353 49.5649 31.9845 49.5649Z" fill="white"/>
<path d="M29.3115 49.5649C28.5727 49.5649 27.9745 50.165 27.9745 50.918C27.9745 51.3587 28.4324 52.6901 28.8124 53.7186C28.9842 54.1839 29.6388 54.1839 29.8107 53.7186C30.1907 52.6901 30.6488 51.3587 30.6488 50.918C30.6486 50.165 30.0504 49.5649 29.3115 49.5649ZM33.3344 50.918C33.3344 51.3587 33.7923 52.6901 34.1723 53.7186C34.3442 54.1839 34.9987 54.1839 35.1706 53.7186C35.5504 52.6901 36.0085 51.3587 36.0085 50.918C36.0085 50.165 35.4104 49.5649 34.6715 49.5649C33.9326 49.5649 33.3344 50.165 33.3344 50.918ZM44.7624 49.5649C44.0237 49.5649 43.4254 50.165 43.4254 50.918C43.4254 51.3595 43.8852 52.6951 44.2655 53.7243C44.4371 54.1888 45.0902 54.1897 45.2633 53.7258C45.647 52.6964 46.1113 51.3598 46.1113 50.918C46.1113 50.165 45.5131 49.5649 44.7624 49.5649Z" fill="white"/>
<path d="M42.0873 49.5649C41.3485 49.5649 40.7503 50.165 40.7503 50.918C40.7503 51.3587 41.2082 52.6901 41.5881 53.7186C41.7598 54.1839 42.4144 54.1839 42.5864 53.7186C42.9663 52.6901 43.4244 51.3587 43.4244 50.918C43.4244 50.165 42.8262 49.5649 42.0873 49.5649ZM46.1102 50.918C46.1102 51.3587 46.5681 52.6901 46.9481 53.7186C47.12 54.1839 47.7746 54.1839 47.9464 53.7186C48.3263 52.6901 48.7843 51.3587 48.7843 50.918C48.7843 50.165 48.1861 49.5649 47.4472 49.5649C46.7084 49.5649 46.1102 50.165 46.1102 50.918Z" fill="white"/>
<path d="M19.254 21.232C19.1732 20.6889 19.1328 20.1216 19.1328 19.5542C19.1328 16.5229 20.2802 13.7673 22.1547 11.6924C21.6537 11.4574 21.1609 11.1819 20.7004 10.882C18.6563 13.7349 17.1614 17.4307 16.4827 21.5886C17.4927 21.2157 18.4218 21.1104 19.254 21.232ZM38.3791 10.7926C40.6223 7.17717 43.941 5.63843 47.9458 5.10289C44.9173 4.43178 41.461 5.1849 38.3872 7.80178C35.3161 5.18731 31.8502 4.42968 28.8126 5.10289C32.8725 5.6458 36.1811 7.25014 38.3791 10.7926ZM54.6116 11.6923C56.478 13.7671 57.6254 16.5227 57.6254 19.554C57.6254 20.1215 57.585 20.6725 57.5123 21.2156C58.3445 21.1102 59.2655 21.2156 60.2755 21.5884C59.5969 17.4306 58.1102 13.7428 56.0578 10.8898C55.5973 11.1898 55.1125 11.4572 54.6116 11.6923ZM38.6296 64.5127H38.6539C39.2841 64.5046 39.8255 64.1642 40.1001 63.6049C40.5525 62.6889 41.1101 61.5786 41.7161 60.3629H35.4381L37.1834 63.6455C37.4741 64.1884 38.0155 64.5127 38.6296 64.5127ZM50.8787 38.301C50.8787 35.5454 50.2727 32.9517 49.1416 30.7877C46.6934 31.4524 44.0513 31.2903 41.6677 30.2691C41.3363 31.1606 40.7627 32.8626 40.383 33.9164C39.7125 35.8211 37.0299 35.8048 36.3674 33.9083C36.0522 33.0005 35.325 30.9337 35.0907 30.2691C32.7071 31.2985 30.0569 31.4524 27.6167 30.7796C26.4855 32.9517 25.8797 35.5373 25.8797 38.301C25.8797 41.0082 26.4452 43.4558 27.5602 45.5794L28.8369 47.9865C29.4375 47.8914 30.0147 47.9612 30.6467 48.2783C31.5165 47.8421 32.446 47.8257 33.3293 48.2864C34.8906 47.4721 36.6848 48.1987 37.3531 49.6805H39.4054C40.0673 48.2131 41.845 47.4716 43.4211 48.2783C44.2909 47.8421 45.2204 47.8257 46.1037 48.2864C46.7279 47.9608 47.3138 47.8916 47.9459 47.9865C49.3635 45.1655 50.8787 43.0555 50.8787 38.301Z" fill="white"/>
<path d="M21.088 43.3748C22.0657 45.2065 23.213 47.3625 24.4492 49.6805H26.6307C26.8004 49.2914 27.059 48.951 27.374 48.6755L26.1297 46.3412C24.8935 43.9746 24.2633 41.2755 24.2633 38.301C24.2633 35.3669 24.8935 32.595 26.0813 30.2365C25.3218 29.9041 24.5946 29.4989 23.9158 28.9965C23.8916 30.0582 23.7218 31.1686 23.4068 32.2547C21.7909 35.5777 20.684 39.4762 21.088 43.3748ZM41.5462 64.3343C40.9967 65.4286 39.8979 66.1174 38.6779 66.1337H38.6376C37.4255 66.1337 36.3267 65.4772 35.7612 64.4073L33.6039 60.3629H30.1376C31.9717 63.7913 33.725 67.0901 35.1795 69.8215C36.755 72.7717 40.9889 72.7149 42.4837 69.7162C43.833 67.0091 45.4572 63.7509 47.1539 60.363H43.526C42.7825 61.8622 42.0957 63.2401 41.5462 64.3343ZM52.5106 49.6805C53.666 47.3948 54.7406 45.2713 55.6618 43.472C56.389 35.9181 53.0277 34.3781 52.8258 29.0046C52.1551 29.5072 51.428 29.9124 50.6765 30.2447C51.8642 32.5952 52.4944 35.3671 52.4944 38.301C52.4944 41.2837 51.8642 43.9825 50.6199 46.3412C50.3129 46.9329 49.8927 47.7352 49.4079 48.6916C49.7149 48.9673 49.9573 49.2995 50.127 49.6805H52.5106ZM36.0277 16.4013C34.1167 14.4576 31.8265 13.2374 29.1194 13.0945C27.3742 14.1076 26.2025 16.0123 26.2025 18.2088C26.2025 21.467 28.8042 24.1091 32.0119 24.1091C35.2197 24.1091 37.8214 21.467 37.8214 18.2088C37.8214 17.8117 37.781 17.4307 37.7083 17.0578C37.363 17.1445 36.5607 16.9359 36.0277 16.4013ZM32.0121 21.5479C30.1941 21.5479 28.7235 20.0647 28.7235 18.2086C28.7235 17.3657 29.0305 16.5957 29.5395 16.004C29.7416 16.6119 30.299 17.0497 30.9535 17.0497C31.8019 17.0497 32.4643 16.3527 32.4643 15.5016C32.4643 15.2747 32.4159 15.0639 32.335 14.8776C34.0076 15.0478 35.3004 16.4743 35.3004 18.2088C35.3005 20.0647 33.83 21.5479 32.0121 21.5479ZM37.8178 22.8958C38.0005 22.8764 38.1841 22.8609 38.3708 22.8609C38.5623 22.8609 38.7507 22.8763 38.9379 22.8965C38.7352 22.6381 38.5474 22.3672 38.3789 22.0828C38.2099 22.3672 38.0212 22.6378 37.8178 22.8958Z" fill="white"/>
<path d="M20.7493 19.5539C20.7493 25.0896 25.1529 29.5718 30.6069 29.5718C32.0046 29.5718 33.3298 29.2719 34.5337 28.7369C34.3317 28.2344 34.1217 27.7319 33.968 27.4644C33.6125 26.8483 33.6044 26.1028 33.9196 25.4786C33.3136 25.6406 32.6753 25.7299 32.0127 25.7299C27.9162 25.7299 24.5872 22.3582 24.5872 18.2085C24.5872 16.1578 25.4033 14.2938 26.7122 12.9321C25.578 12.8264 24.7116 12.6449 23.7631 12.3405C21.9047 14.1641 20.7493 16.7251 20.7493 19.5539ZM46.1525 29.5716C51.5983 29.5716 56.01 25.0895 56.01 19.5537C56.01 16.7251 54.8546 14.1639 52.9962 12.3403C52.0011 12.664 51.1276 12.8334 50.0471 12.932C51.356 14.2936 52.1721 16.1578 52.1721 18.2083C52.1721 22.3662 48.8431 25.746 44.7466 25.746C44.0921 25.746 43.462 25.6569 42.864 25.4947C43.4135 26.605 42.7509 27.3913 42.2257 28.7366C43.4296 29.2717 44.7546 29.5716 46.1525 29.5716Z" fill="white"/>
<path d="M47.639 13.0943C46.6167 13.1483 45.8255 13.2804 44.6172 13.7427C43.2113 14.3181 41.8942 15.2178 40.7227 16.4011C40.1815 16.9544 39.372 17.1384 39.0501 17.0576C38.9774 17.4305 38.937 17.8113 38.937 18.2086C38.937 21.4668 41.5225 24.1252 44.7465 24.1252C47.9542 24.1252 50.5559 21.4668 50.5559 18.2086C50.5558 16.012 49.3842 14.1074 47.639 13.0943ZM44.7463 21.5477C42.9284 21.5477 41.4417 20.0645 41.4417 18.2084C41.4417 17.3655 41.7487 16.5955 42.2658 16.0038C42.4679 16.6117 43.0334 17.0495 43.6879 17.0495C44.5282 17.0495 45.1987 16.3525 45.1987 15.5014C45.1987 15.2745 45.1503 15.0637 45.0613 14.8774C46.7339 15.0395 48.0347 16.4741 48.0347 18.2086C48.0349 20.0645 46.5644 21.5477 44.7463 21.5477ZM35.3756 26.1405C35.2788 26.2963 35.2784 26.4983 35.3699 26.6573C35.6855 27.2061 36.101 28.2854 36.5744 29.6129C36.9845 30.7547 37.4317 32.0703 37.8886 33.3716C38.0505 33.8323 38.7 33.8332 38.8631 33.3729C39.8547 30.5716 40.7969 27.6808 41.3872 26.6581C41.4793 26.4983 41.4789 26.2956 41.3811 26.1392C39.9977 23.9294 36.7486 23.9299 35.3756 26.1405ZM17.7302 47.8719C18.7188 48.8771 20.389 47.9121 20.0283 46.5451C19.6541 45.1378 19.3868 43.543 19.4137 42.0017C19.1197 37.351 21.4311 33.0354 21.8588 31.8023C22.6738 29.0012 22.6204 25.4898 20.536 23.5598C18.4919 21.6165 13.7887 23.5732 12.1855 28.6661C11.0097 30.9848 11.5977 38.5704 14.5505 43.4759C15.4322 45.2451 16.5946 46.7193 17.7302 47.8719ZM56.2228 23.56C54.1385 25.49 54.0851 29.0014 54.9001 31.8025C55.3276 33.0356 57.6391 37.3512 57.3452 42.0018C57.3719 43.543 57.1047 45.138 56.7306 46.5452C56.3699 47.9123 58.04 48.8772 59.0287 47.8721C60.1644 46.7195 61.3267 45.2453 62.2086 43.4762C65.1613 38.5707 65.7492 30.9851 64.5734 28.6664C62.9701 23.5734 58.2671 21.6166 56.2228 23.56ZM29.7122 11.5103C32.4894 11.7193 35.1663 13.2178 37.181 15.2602C37.615 15.7002 38.3436 15.2787 38.2248 14.6712C37.8001 12.5029 36.4675 10.4332 34.6209 8.98893C29.8634 5.27661 26.1842 8.16599 21.0966 3.83658C20.2812 3.14064 19.5293 2.31048 18.8545 1.33843C18.1119 0.269164 16.4728 0.960588 16.6863 2.24593C16.9201 3.65451 17.4657 5.04819 18.2864 6.28568C21.8555 11.6737 27.5253 11.3029 29.7122 11.5103ZM42.1363 8.98893C40.2896 10.4332 38.9571 12.5029 38.5324 14.6712C38.4135 15.2786 39.1421 15.7 39.5762 15.2602C40.978 13.8391 42.4898 12.8647 44.0459 12.2273C46.9116 11.1362 47.9926 11.6561 50.8897 11.1925C53.9785 10.6697 56.777 8.84312 58.4711 6.28583C59.2918 5.04834 59.8374 3.65466 60.0713 2.24608C60.2847 0.960738 58.6455 0.269315 57.9031 1.33858C57.2282 2.31048 56.4764 3.14079 55.6609 3.83673C50.4278 8.28953 47.0582 5.1481 42.1363 8.98893ZM49.4651 54.2839C48.9451 55.6881 47.2238 56.113 46.112 55.2159C45.3298 55.8468 44.2198 55.8601 43.4213 55.2159C42.3065 56.1154 40.5941 55.6827 40.0762 54.2839C39.4298 52.5413 39.2196 51.7552 39.1551 51.3012H37.6038C37.5391 51.755 37.3291 52.5413 36.6827 54.2839C36.1598 55.6961 34.4343 56.1072 33.3295 55.2159C32.5389 55.8536 31.4391 55.855 30.6469 55.2159C29.5336 56.1142 27.8127 55.6855 27.2938 54.2839C26.6393 52.5089 26.4454 51.7146 26.3807 51.3012H6.28617C6.22962 51.3012 6.16496 51.3173 6.11651 51.3498L0.501021 54.2028C0.193958 54.3567 0 54.6729 0 55.0214C0 55.3699 0.193958 55.686 0.501021 55.8399L6.11651 58.701C6.17306 58.7334 6.22962 58.7415 6.29427 58.7415H68.4446V51.3011H50.378C50.3135 51.7147 50.1195 52.517 49.4651 54.2839ZM6.02771 55.3214L7.33666 56.5047L6.19736 57.834L3.39374 56.4075V53.6356L6.19736 52.2092L7.33666 53.5384L6.02771 54.7218C5.93875 54.7947 5.8903 54.9082 5.8903 55.0217C5.8903 55.135 5.93875 55.2484 6.02771 55.3214ZM74.8277 51.3012H70.0606V58.7416H74.8277C75.8942 58.7416 76.7587 57.8745 76.7587 56.8126V53.2382C76.7589 52.1685 75.8942 51.3012 74.8277 51.3012Z" fill="white"/>
<path d="M31.9845 49.5649C31.2457 49.5649 30.6476 50.165 30.6476 50.918C30.6476 51.3595 31.1073 52.6951 31.4875 53.7243C31.6591 54.1888 32.3124 54.1897 32.4854 53.7258C32.8691 52.6964 33.3334 51.3598 33.3334 50.918C33.3334 50.165 32.7353 49.5649 31.9845 49.5649Z" fill="white"/>
<path d="M29.3115 49.5649C28.5727 49.5649 27.9745 50.165 27.9745 50.918C27.9745 51.3587 28.4324 52.6901 28.8124 53.7186C28.9842 54.1839 29.6388 54.1839 29.8107 53.7186C30.1907 52.6901 30.6488 51.3587 30.6488 50.918C30.6486 50.165 30.0504 49.5649 29.3115 49.5649ZM33.3344 50.918C33.3344 51.3587 33.7923 52.6901 34.1723 53.7186C34.3442 54.1839 34.9987 54.1839 35.1706 53.7186C35.5504 52.6901 36.0085 51.3587 36.0085 50.918C36.0085 50.165 35.4104 49.5649 34.6715 49.5649C33.9326 49.5649 33.3344 50.165 33.3344 50.918ZM44.7624 49.5649C44.0237 49.5649 43.4254 50.165 43.4254 50.918C43.4254 51.3595 43.8852 52.6951 44.2655 53.7243C44.4371 54.1888 45.0902 54.1897 45.2633 53.7258C45.647 52.6964 46.1113 51.3598 46.1113 50.918C46.1113 50.165 45.5131 49.5649 44.7624 49.5649Z" fill="white"/>
<path d="M42.0873 49.5649C41.3485 49.5649 40.7503 50.165 40.7503 50.918C40.7503 51.3587 41.2082 52.6901 41.5881 53.7186C41.7598 54.1839 42.4144 54.1839 42.5864 53.7186C42.9663 52.6901 43.4244 51.3587 43.4244 50.918C43.4244 50.165 42.8262 49.5649 42.0873 49.5649ZM46.1102 50.918C46.1102 51.3587 46.5681 52.6901 46.9481 53.7186C47.12 54.1839 47.7746 54.1839 47.9464 53.7186C48.3263 52.6901 48.7843 51.3587 48.7843 50.918C48.7843 50.165 48.1861 49.5649 47.4472 49.5649C46.7084 49.5649 46.1102 50.165 46.1102 50.918Z" fill="white"/>
</svg>
