<svg width="77" height="72" viewBox="0 0 77 72" fill="none" xmlns="http://www.w3.org/2000/svg">
<path d="M72.4554 70.8113C62.8497 68.0736 55.1431 68.0102 31.5317 68.0102C27.3566 68.0103 23.29 66.6026 19.922 63.9915C16.554 61.3804 14.0598 57.7016 12.8012 53.489L6.09022 32.6049C4.67008 31.8926 3.45661 30.7901 2.57642 29.4123C1.69623 28.0345 1.18158 26.4321 1.08618 24.772C0.990769 23.112 1.3181 21.4554 2.03402 19.9749C2.74993 18.4944 3.82819 17.2443 5.15629 16.3551C6.48439 15.466 8.01365 14.9703 9.58451 14.9197C11.1554 14.8692 12.7103 15.2657 14.0869 16.0679C15.4636 16.8701 16.6116 18.0485 17.4112 19.4803C18.2108 20.912 18.6326 22.5446 18.6326 24.2077C22.9964 40.103 34.9504 45.7313 46.6894 47.9171C47.0272 47.9801 49.6487 52.3527 52.1952 53.555C54.5051 54.6456 60.6546 53.7847 61.2806 54.3621C66.0751 58.7849 70.8265 63.4426 74.1367 68.2229C74.3289 68.5013 74.4347 68.8361 74.4394 69.1809C74.4441 69.5257 74.3475 69.8635 74.1629 70.1477C73.9783 70.4319 73.7149 70.6483 73.409 70.7672C73.1031 70.8861 72.7699 70.9015 72.4554 70.8113ZM3.33396 7.56272C3.78149 7.56272 4.21898 7.42229 4.59109 7.15917C4.9632 6.89605 5.25323 6.52208 5.42449 6.08453C5.59574 5.64699 5.64055 5.16553 5.55322 4.70105C5.4659 4.23656 5.25038 3.8099 4.93391 3.47503C4.61745 3.14017 4.21425 2.91213 3.7753 2.81975C3.33636 2.72738 2.88139 2.77482 2.46793 2.95608C2.05447 3.13734 1.70108 3.44427 1.45247 3.83806C1.20385 4.23185 1.07117 4.69481 1.0712 5.16841C1.0712 5.48285 1.12973 5.79421 1.24344 6.08471C1.35716 6.37521 1.52383 6.63917 1.73395 6.8615C1.94407 7.08384 2.19352 7.2602 2.46805 7.38051C2.74258 7.50083 3.03681 7.56274 3.33396 7.56272ZM10.1554 6.49153C10.5606 6.6925 11.013 6.7618 11.4554 6.69068C11.8978 6.61956 12.3104 6.4112 12.6409 6.09197C12.9714 5.77273 13.2051 5.35695 13.3123 4.8972C13.4195 4.43745 13.3955 3.95438 13.2433 3.50907C13.0911 3.06376 12.8175 2.67622 12.4571 2.39545C12.0968 2.11468 11.6658 1.95329 11.2188 1.93169C10.7718 1.91009 10.3287 2.02925 9.94571 2.2741C9.56267 2.51895 9.25685 2.87849 9.06692 3.30727C8.81225 3.88227 8.78385 4.54078 8.98798 5.13794C9.19211 5.7351 9.61204 6.222 10.1554 6.49153Z" fill="white"/>
<path d="M76.4913 39.2872C76.9482 36.1606 76.8186 32.9694 76.11 29.8958C75.4014 26.8222 74.1277 23.9264 72.3615 21.3737C70.5953 18.821 68.3713 16.6614 65.8164 15.0183C63.2615 13.3752 60.4258 12.2807 57.4712 11.7972C49.6173 10.5124 42.5844 12.1688 37.1333 16.588C31.6218 21.0558 28.0617 28.1743 26.7773 37.2517C23.7772 33.9944 21.2702 29.6972 19.6957 24.042C19.6625 21.9277 19.0232 19.8739 17.8622 18.1527C16.7013 16.4315 15.0736 15.1242 13.1948 14.4039C13.9859 11.922 13.9618 9.52125 13.126 7.12741C13.7528 6.62257 14.1897 5.89858 14.3588 5.08454C14.528 4.27051 14.4185 3.41935 14.0497 2.68284C13.681 1.94633 13.077 1.37235 12.3456 1.06326C11.6141 0.754165 10.8026 0.730046 10.0559 0.995203C9.3092 1.26036 8.67575 1.79756 8.26853 2.511C7.86131 3.22445 7.70678 4.06776 7.83251 4.89056C7.95824 5.71336 8.35604 6.46216 8.95499 7.00343C9.55394 7.54471 10.3151 7.84327 11.1027 7.84588C11.8121 9.83694 11.8167 11.7921 11.1112 13.8757C10.5593 13.8011 10.0025 13.7752 9.44651 13.7984C8.69008 13.8307 7.9399 13.9575 7.21159 14.1761C7.65094 11.9885 7.82908 8.96859 6.24694 6.86742C6.62749 6.13605 6.75027 5.28546 6.59341 4.46723C6.43655 3.64899 6.01024 2.91627 5.39046 2.39965C4.77067 1.88302 3.99767 1.61606 3.20921 1.64633C2.42075 1.67661 1.66807 2.00215 1.08529 2.56494C0.502507 3.12774 0.127496 3.89122 0.0270849 4.71934C-0.0733264 5.54745 0.107386 6.38639 0.537016 7.08665C0.966647 7.78691 1.61728 8.303 2.37298 8.54294C3.12867 8.78287 3.94032 8.73107 4.66329 8.39677C5.77245 10.0737 5.43914 13.0186 4.70984 15.3465C3.23018 16.3026 2.01593 17.6561 1.19033 19.2693C0.364738 20.8826 -0.0428041 22.6984 0.0090754 24.5322C0.0609549 26.366 0.570409 28.1527 1.48572 29.7108C2.40104 31.269 3.68962 32.5431 5.22068 33.4039L11.7888 53.8413C13.1173 58.2797 15.747 62.155 19.2967 64.9054C22.8464 67.6559 27.1316 69.1386 31.5312 69.1385C55.56 69.1385 62.9 69.2562 72.1779 71.9004C72.4077 71.9663 72.6448 71.9998 72.8829 72C73.3689 71.9964 73.8446 71.8509 74.2574 71.5795C74.6703 71.3081 75.0044 70.9214 75.2228 70.4619C75.4412 70.0024 75.5356 69.4881 75.4955 68.9755C75.4553 68.4629 75.2823 67.972 74.9953 67.5569C72.5357 64.0052 68.6786 59.0989 63.7418 54.928C67.0365 53.8435 69.9778 51.803 72.2316 49.0382C74.4853 46.2734 75.9611 42.8952 76.4913 39.2872ZM9.98885 4.75563C9.89461 4.47989 9.89363 4.17809 9.98609 3.90167C10.0785 3.62525 10.2587 3.39131 10.4959 3.2397C10.7331 3.08809 11.0126 3.0282 11.2868 3.07024C11.5611 3.11227 11.8131 3.25362 11.9998 3.47021C12.1866 3.6868 12.2967 3.96523 12.3112 4.25805C12.3258 4.55087 12.2439 4.83997 12.0796 5.07609C11.9153 5.3122 11.6787 5.48073 11.4102 5.55296C11.1416 5.62518 10.8577 5.59663 10.6068 5.47217C10.4641 5.40195 10.336 5.30245 10.2299 5.17945C10.1239 5.05645 10.0419 4.9124 9.98885 4.75563ZM2.13567 5.16968C2.13567 4.91901 2.20592 4.67396 2.33752 4.46554C2.46913 4.25711 2.65618 4.09466 2.87504 3.99873C3.09389 3.9028 3.33471 3.8777 3.56704 3.92661C3.79937 3.97551 4.01278 4.09622 4.18029 4.27347C4.34779 4.45073 4.46186 4.67656 4.50807 4.92242C4.55429 5.16828 4.53057 5.42311 4.43992 5.65471C4.34926 5.8863 4.19575 6.08424 3.99879 6.22351C3.80183 6.36278 3.57026 6.43711 3.33338 6.43711C3.01584 6.43673 2.71141 6.30307 2.48687 6.06547C2.26234 5.82786 2.13603 5.50571 2.13567 5.16968ZM73.2773 68.8887C73.3437 68.9762 73.3806 69.0845 73.3825 69.1967C73.3843 69.3088 73.3509 69.4184 73.2875 69.5083C73.2296 69.6033 73.144 69.6758 73.0437 69.7148C72.9435 69.7537 72.8339 69.7571 72.7317 69.7244C63.1932 67.0058 55.7789 66.8849 31.5312 66.8849C27.5796 66.8966 23.7282 65.5696 20.5406 63.0983C17.353 60.6269 14.9965 57.1409 13.8159 53.1502C13.8135 53.1425 13.8112 53.1341 13.8086 53.127L7.10784 32.2744C7.10434 32.2622 7.10054 32.2501 7.09673 32.2381C7.05057 32.0963 6.97815 31.9658 6.88372 31.8541C6.78929 31.7423 6.67474 31.6517 6.54679 31.5874C5.29877 30.9616 4.23234 29.9928 3.45876 28.7822C2.68519 27.5715 2.23283 26.1634 2.14888 24.7046C2.06493 23.2459 2.35247 21.7901 2.98149 20.489C3.61052 19.188 4.55798 18.0895 5.72501 17.308C6.89203 16.5266 8.23586 16.0909 9.61625 16.0464C10.9966 16.002 12.363 16.3504 13.5728 17.0552C14.7826 17.7601 15.7914 18.7957 16.4941 20.0538C17.1967 21.3119 17.5674 22.7466 17.5674 24.208C17.5675 24.3144 17.5817 24.4202 17.6097 24.5224C19.667 32.0156 23.4839 37.958 28.9544 42.1845C33.4814 45.6818 39.0214 47.9302 45.4214 48.8782C46.573 50.6632 48.0587 52.1788 49.7866 53.3312C51.5145 54.4836 53.4476 55.2481 55.4661 55.5774C56.4014 55.7307 57.3464 55.8078 58.2928 55.8081C59.2176 55.8078 60.1411 55.7332 61.0552 55.585C66.4602 59.8077 70.6744 65.1299 73.2773 68.8887ZM55.7915 53.35C52.4323 52.7961 49.4178 50.8547 47.4094 47.9519C45.401 45.049 44.5627 41.4217 45.0783 37.8656C45.4884 35.0807 46.9256 32.5816 49.0746 30.9165C51.2236 29.2515 53.909 28.5564 56.5417 28.9839C58.5913 29.3218 60.4306 30.5062 61.656 32.2773C62.8814 34.0484 63.3929 36.2616 63.0782 38.4313C62.9568 39.2616 62.6821 40.0585 62.2697 40.7764C61.8573 41.4944 61.3153 42.1193 60.6747 42.6156C60.0341 43.1119 59.3073 43.4698 58.536 43.6689C57.7646 43.868 56.9638 43.9044 56.1792 43.776C54.9673 43.5775 53.8796 42.8778 53.1551 41.8308C52.4307 40.7838 52.1288 39.4752 52.316 38.1927C52.3592 37.8973 52.2897 37.5959 52.1228 37.3548C51.956 37.1136 51.7054 36.9525 51.4263 36.9068C51.1472 36.8612 50.8623 36.9347 50.6345 37.1113C50.4066 37.2879 50.2543 37.553 50.2112 37.8484C49.9377 39.7216 50.3785 41.633 51.4367 43.1623C52.4948 44.6916 54.0837 45.7135 55.8538 46.0033C56.9148 46.177 57.9978 46.1277 59.0409 45.8585C60.084 45.5892 61.0668 45.1051 61.9331 44.4339C62.7994 43.7627 63.5323 42.9175 64.0899 41.9466C64.6475 40.9756 65.019 39.898 65.183 38.7751C65.5835 36.0148 64.9329 33.1991 63.3738 30.9458C61.8148 28.6925 59.4747 27.1857 56.8671 26.7561C53.6763 26.2383 50.4218 27.0809 47.8172 29.0989C45.2127 31.1169 43.4708 34.1456 42.9735 37.5208C42.5312 40.5255 42.9212 43.6015 44.0965 46.3765C39.0198 45.4169 33.4124 43.3461 28.6923 39.1348C29.6991 29.9025 33.0625 22.7274 38.4285 18.3768C43.4075 14.3406 49.8798 12.8354 57.1458 14.0245C59.824 14.4626 62.3944 15.4548 64.7103 16.9442C67.0262 18.4336 69.0421 20.3911 70.6431 22.705C72.244 25.0189 73.3986 27.6438 74.0409 30.4299C74.6832 33.216 74.8006 36.1086 74.3865 38.9427C73.722 43.4606 71.3909 47.5149 67.9048 50.216C64.4186 52.917 60.0622 54.0442 55.7915 53.35ZM32.3029 61.6673C32.2848 61.9522 32.1652 62.2193 31.9681 62.4145C31.7711 62.6096 31.5114 62.7183 31.2415 62.7186C31.2176 62.7186 31.1934 62.7186 31.1691 62.7162C24.9525 62.275 20.3462 58.8317 17.4775 52.4821C17.3562 52.2126 17.3409 51.9031 17.4351 51.6216C17.5292 51.3401 17.7251 51.1097 17.9797 50.9809C18.2342 50.8521 18.5267 50.8355 18.7928 50.9347C19.059 51.034 19.277 51.2409 19.3991 51.5101C21.9461 57.1494 25.8426 60.0793 31.3107 60.4674C31.4503 60.4773 31.5867 60.5161 31.7121 60.5817C31.8375 60.6473 31.9495 60.7385 32.0416 60.8499C32.1337 60.9613 32.2041 61.0908 32.2489 61.2311C32.2937 61.3713 32.312 61.5195 32.3026 61.6673H32.3029Z" fill="white"/>
</svg>
