<svg width="77" height="72" viewBox="0 0 77 72" fill="none" xmlns="http://www.w3.org/2000/svg">
<path d="M60.114 55.9318C57.0539 55.9324 53.1798 54.826 48.6982 52.6305C48.2655 52.4188 48.0928 51.9094 48.3135 51.4934C48.5333 51.0772 49.0644 50.9125 49.4946 51.1233C56.486 54.5473 61.8738 55.1863 64.2774 52.8779C67.4507 49.8249 65.1849 41.7386 58.5036 32.277C58.23 31.8905 58.3356 31.3647 58.7361 31.1024C59.1403 30.8398 59.685 30.9404 59.9574 31.3269C67.356 41.8041 69.4356 50.3072 65.5204 54.0736C64.2294 55.3146 62.3984 55.9318 60.114 55.9318ZM15.5748 22.0484C15.2774 22.0484 14.9865 21.9037 14.8218 21.6405C9.03411 12.4449 7.72831 5.23329 11.2396 1.85603C14.1558 -0.949868 19.8664 -0.563403 27.3177 2.94099C27.7538 3.14644 27.9346 3.6523 27.7216 4.07181C27.5099 4.49192 26.9822 4.6667 26.5464 4.46036C19.9178 1.34362 14.7918 0.828828 12.4823 3.05175C9.67602 5.75196 11.148 12.5392 16.3254 20.7649C16.5773 21.1645 16.4446 21.6849 16.0289 21.9264C15.8859 22.0089 15.7293 22.0484 15.5748 22.0484Z" fill="white"/>
<path d="M52.6546 40.8202C52.2266 40.8202 51.8511 40.5185 51.7861 40.099C51.7153 39.6372 52.0471 39.2067 52.5265 39.1385C65.9704 37.2157 75.0023 32.7276 75.0023 27.9706C75.0023 24.2691 69.5421 20.6673 60.3956 18.3363C59.9264 18.2163 59.6472 17.754 59.772 17.3026C59.8967 16.8512 60.3786 16.5829 60.8466 16.7014C70.9599 19.2799 76.76 23.3875 76.76 27.9706C76.76 33.7756 67.5736 38.6961 52.7852 40.8109C52.7416 40.8175 52.6983 40.8202 52.6546 40.8202ZM24.0939 40.8202C24.0506 40.8202 24.007 40.8175 23.9636 40.8109C9.18204 38.6955 0 33.7753 0 27.9706C0 23.3896 5.80814 19.2781 15.9363 16.6901C16.4102 16.5722 16.8874 16.8405 17.0109 17.2907C17.1357 17.742 16.8565 18.205 16.3873 18.325C7.22722 20.6653 1.75767 24.2712 1.75767 27.9706C1.75767 32.7273 10.7853 37.2151 24.2221 39.1385C24.7027 39.2073 25.0336 39.6372 24.9627 40.099C24.8974 40.5185 24.522 40.8202 24.0939 40.8202Z" fill="white"/>
<path d="M61.1979 22.0262C61.0434 22.0262 60.8856 21.9866 60.7435 21.9036C60.3282 21.6618 60.1954 21.1416 60.447 20.7427C65.6198 12.5346 67.0884 5.75563 64.2774 3.05216C61.9645 0.827146 56.8305 1.34343 50.1904 4.47178C49.7534 4.67692 49.2278 4.50304 49.014 4.08353C48.801 3.66401 48.9808 3.15756 49.4169 2.95241C56.8834 -0.563002 62.6021 -0.951552 65.5204 1.85643C69.0361 5.23786 67.7349 12.4414 61.9509 21.6189C61.785 21.8812 61.4953 22.0262 61.1979 22.0262ZM16.6482 55.9319C14.3616 55.9319 12.5306 55.315 11.2397 54.0734C7.32568 50.3082 9.40059 41.8095 16.79 31.3383C17.0614 30.9531 17.6071 30.85 18.0101 31.1138C18.4118 31.3764 18.517 31.9023 18.2434 32.2884C11.5711 41.744 9.30991 49.8253 12.4823 52.8777C14.8869 55.1897 20.2874 54.5457 27.2995 51.1124C27.7309 50.9016 28.2617 51.0663 28.4806 51.4822C28.7012 51.8985 28.5285 52.4076 28.0962 52.6196C23.6006 54.8214 19.7142 55.9313 16.6482 55.9319Z" fill="white"/>
<ellipse cx="38.3095" cy="25.3282" rx="20.435" ry="19.6583" fill="white"/>
<path d="M41.9249 56.6576C41.4396 56.6576 41.0459 56.2789 41.0459 55.8121V34.7222C39.2573 34.8363 37.4993 34.8363 35.7611 34.7267V55.8121C35.7611 56.2789 35.3674 56.6576 34.8821 56.6576C34.3968 56.6576 34.0031 56.2789 34.0031 55.8121V34.4992L30.9418 33.9026C29.0811 33.5375 27.7295 31.9455 27.7295 30.1177V29.7961C27.7295 27.6658 29.5308 25.9324 31.7453 25.9324C33.9598 25.9324 35.7611 27.6658 35.7611 29.7961V33.0373C37.481 33.1493 39.2665 33.1496 41.0459 33.0323V29.7961C41.0459 27.6658 42.8472 25.9324 45.0617 25.9324C47.2762 25.9324 49.0787 27.6658 49.0787 29.7961V30.1177C49.0787 31.9458 47.7271 33.5378 45.8652 33.9026L42.8039 34.5037V55.8121C42.8039 56.2789 42.4099 56.6576 41.9249 56.6576ZM45.0617 27.6235C43.8166 27.6235 42.8039 28.5983 42.8039 29.7961V32.7819L45.5139 32.2456C46.5609 32.0402 47.3211 31.1452 47.3211 30.1174V29.7958C47.3208 28.5983 46.3068 27.6235 45.0617 27.6235ZM31.745 27.6235C30.4999 27.6235 29.4869 28.5983 29.4869 29.7961V30.1177C29.4869 31.1455 30.2467 32.0405 31.2928 32.2459L34.0028 32.7783V29.7964C34.0028 28.5983 32.9901 27.6235 31.745 27.6235ZM47.599 61.347H29.2089C28.7236 61.347 28.3299 60.9683 28.3299 60.5015C28.3299 60.0346 28.7236 59.6559 29.2089 59.6559H47.599C48.0843 59.6559 48.478 60.0346 48.478 60.5015C48.478 60.9683 48.0843 61.347 47.599 61.347ZM46.4922 66.2687H30.3154C29.8301 66.2687 29.4364 65.89 29.4364 65.4231C29.4364 64.9562 29.8301 64.5775 30.3154 64.5775H46.4922C46.9775 64.5775 47.3712 64.9562 47.3712 65.4231C47.3712 65.89 46.9775 66.2687 46.4922 66.2687ZM43.3279 71.19H33.4767C32.9914 71.19 32.5977 70.8113 32.5977 70.3444C32.5977 69.8776 32.9914 69.4989 33.4767 69.4989H43.3279C43.8132 69.4989 44.2068 69.8776 44.2068 70.3444C44.2068 70.8113 43.8132 71.19 43.3279 71.19Z" fill="#CECECE"/>
<path d="M47.0079 59.0008H29.7212C28.1019 59.0008 26.7847 57.7336 26.7847 56.1759V50.043C26.7847 47.355 25.5061 44.7992 23.2758 43.0306C17.7561 38.6863 14.5896 32.2474 14.5896 25.3666C14.5896 18.8673 17.4782 12.654 22.516 8.32073C27.6212 3.92848 34.2282 1.91992 41.0859 2.65981C51.4478 3.78229 60.1581 11.7531 61.7979 21.613C63.1253 29.7413 60.0331 37.7139 53.5248 42.9422C53.5239 42.9434 53.5227 42.9443 53.5214 42.9449C51.2484 44.7504 49.9451 47.3223 49.9451 50.0007V56.1759C49.9445 57.7336 48.6273 59.0008 47.0079 59.0008ZM38.3112 4.20031C32.8887 4.20031 27.772 6.06774 23.6875 9.58136C19.0226 13.594 16.347 19.3475 16.347 25.3663C16.347 31.738 19.2792 37.6996 24.3913 41.7236C27.0304 43.8164 28.542 46.848 28.542 50.0427V56.1756C28.542 56.8008 29.071 57.3097 29.7209 57.3097H47.0076C47.6576 57.3097 48.1865 56.8008 48.1865 56.1756V50.0004C48.1865 46.8161 49.7223 43.7696 52.4004 41.6417C58.4283 36.7981 61.2915 29.4102 60.0612 21.8774C58.5438 12.7556 50.4812 5.37877 40.8897 4.33936C40.0243 4.24646 39.1639 4.20031 38.3112 4.20031Z" fill="white"/>
</svg>
