<svg width="77" height="72" viewBox="0 0 77 72" fill="none" xmlns="http://www.w3.org/2000/svg">
<path d="M70.3865 1.57641L33.3775 30.8151C33.2329 30.9288 33.1154 31.0691 33.0323 31.227C32.9491 31.3849 32.9022 31.5572 32.8945 31.7328C32.8868 31.9084 32.9184 32.0836 32.9874 32.2473C33.0563 32.411 33.1612 32.5596 33.2952 32.6839L41.5194 40.3114C41.6475 40.4292 41.7994 40.5224 41.9664 40.5857C42.1334 40.6489 42.3123 40.681 42.4926 40.68C42.6813 40.6729 42.8664 40.6297 43.0362 40.5531C43.206 40.4766 43.357 40.3683 43.4796 40.2351L75.0058 5.91137C75.2318 5.66836 75.3503 5.3551 75.3376 5.03444C75.3248 4.71377 75.1819 4.40942 74.9373 4.18247L72.1959 1.63997C71.9541 1.4272 71.6371 1.30338 71.3041 1.29168C70.9711 1.27998 70.6449 1.3812 70.3865 1.57641Z" fill="white"/>
<path d="M17.8191 30.5101C20.0902 30.5101 21.9312 28.8026 21.9312 26.6963C21.9312 24.59 20.0902 22.8826 17.8191 22.8826C15.548 22.8826 13.707 24.59 13.707 26.6963C13.707 28.8026 15.548 30.5101 17.8191 30.5101Z" fill="white"/>
<path d="M29.4844 39.2686C28.5645 38.9808 27.5761 38.9379 26.6312 39.1446C25.6864 39.3513 24.8229 39.7994 24.1386 40.4381L23.6315 40.9085C23.3335 41.185 23.1661 41.56 23.1661 41.9509C23.1661 42.3419 23.3335 42.7168 23.6315 42.9934C24.1527 43.478 24.5317 44.0782 24.7326 44.7368C24.9335 45.3955 24.9496 46.0909 24.7793 46.7569C24.609 47.423 24.258 48.0376 23.7597 48.5426C23.2614 49.0475 22.6322 49.4259 21.9318 49.642L18.039 50.8497L21.2053 51.8285C22.7036 52.295 24.2867 52.4812 25.8631 52.3765C27.4395 52.2717 28.9778 51.8781 30.3891 51.2183C31.6301 50.6465 32.6598 49.7454 33.3475 48.6296C34.0352 47.5139 34.3498 46.2337 34.2514 44.9517C34.153 43.6698 33.646 42.4439 32.7947 41.4297C31.9435 40.4156 30.7865 39.6589 29.4707 39.2559L29.4844 39.2686Z" fill="white"/>
<path d="M27.4144 17.7974C28.9285 17.7974 30.1559 16.6591 30.1559 15.2549C30.1559 13.8507 28.9285 12.7124 27.4144 12.7124C25.9004 12.7124 24.673 13.8507 24.673 15.2549C24.673 16.6591 25.9004 17.7974 27.4144 17.7974Z" fill="white"/>
<path d="M45.6173 41.9513C45.2434 42.3393 44.7879 42.6523 44.2787 42.8709C43.7695 43.0895 43.2175 43.2092 42.6566 43.2226H42.4921C41.4019 43.2217 40.3566 42.8193 39.5862 42.1039L31.362 34.4764C30.9612 34.1047 30.6476 33.6602 30.4409 33.1708C30.2341 32.6814 30.1387 32.1576 30.1606 31.6324C30.1825 31.1072 30.3212 30.5918 30.568 30.1186C30.8149 29.6455 31.1645 29.2248 31.595 28.8829L57.5699 8.36492L57.282 8.09796C54.5173 5.52219 51.2295 3.48028 47.6086 2.09032C43.9877 0.700365 40.1056 -0.0100672 36.1868 0.000107766C31.1584 -0.0120874 26.2085 1.1566 21.7984 3.39725C17.3883 5.6379 13.6617 8.87756 10.9658 12.8143C3.77339 23.3082 -0.0315586 35.4916 0.000197159 47.9262C0.000210372 53.1673 1.90848 58.2549 5.41577 62.3644C8.92306 66.474 13.8239 69.3648 19.324 70.5683C24.8242 71.7718 30.6013 71.2176 35.7194 68.9954C40.8375 66.7733 44.9965 63.0134 47.5226 58.325C47.9308 57.571 48.5262 56.9178 49.2599 56.419C49.9935 55.9202 50.8445 55.5903 51.7426 55.4562C52.6407 55.3221 53.5603 55.3878 54.4256 55.6479C55.291 55.908 56.0774 56.3549 56.72 56.952L57.8714 58.0199C59.4185 59.4565 61.3903 60.4351 63.5374 60.8317C65.6845 61.2283 67.9101 61.0251 69.9326 60.2479C71.9551 59.4706 73.6834 58.1543 74.8987 56.4655C76.1141 54.7767 76.7617 52.7915 76.7598 50.7611C76.7939 39.4651 73.315 28.3996 66.7399 18.8909L45.6173 41.9513ZM38.38 5.0851C39.1933 5.0851 39.9883 5.30878 40.6645 5.72784C41.3408 6.14689 41.8678 6.74252 42.1791 7.43939C42.4903 8.13626 42.5718 8.90308 42.4131 9.64287C42.2544 10.3827 41.8628 11.0622 41.2877 11.5956C40.7126 12.1289 39.9799 12.4922 39.1822 12.6393C38.3845 12.7865 37.5577 12.7109 36.8063 12.4223C36.0549 12.1336 35.4127 11.6448 34.9609 11.0177C34.509 10.3905 34.2679 9.65314 34.2679 8.89885C34.2679 7.88738 34.7011 6.91734 35.4723 6.20212C36.2434 5.48691 37.2894 5.0851 38.38 5.0851ZM27.4143 10.1701C28.4987 10.1701 29.5588 10.4683 30.4604 11.0271C31.3621 11.5858 32.0648 12.38 32.4798 13.3091C32.8948 14.2383 33.0034 15.2607 32.7918 16.2471C32.5802 17.2335 32.0581 18.1396 31.2913 18.8507C30.5245 19.5619 29.5475 20.0462 28.484 20.2424C27.4204 20.4386 26.318 20.3379 25.3161 19.953C24.3143 19.5681 23.458 18.9164 22.8555 18.0802C22.2531 17.2439 21.9315 16.2608 21.9315 15.2551C21.9315 13.9065 22.5092 12.6131 23.5374 11.6595C24.5656 10.7058 25.9602 10.1701 27.4143 10.1701ZM17.8194 20.3401C19.1749 20.3401 20.4999 20.7129 21.627 21.4113C22.7541 22.1097 23.6325 23.1024 24.1512 24.2639C24.6699 25.4254 24.8057 26.7034 24.5412 27.9364C24.2768 29.1694 23.624 30.3019 22.6656 31.1909C21.7071 32.0798 20.4859 32.6852 19.1564 32.9304C17.827 33.1757 16.449 33.0498 15.1966 32.5687C13.9443 32.0876 12.874 31.2729 12.1209 30.2277C11.3678 29.1824 10.9658 27.9535 10.9658 26.6963C10.9658 25.0105 11.6879 23.3938 12.9732 22.2018C14.2585 21.0098 16.0017 20.3401 17.8194 20.3401ZM31.6224 53.4943C29.5772 54.4506 27.3197 54.9512 25.0293 54.9562C23.4357 54.9525 21.8531 54.7121 20.3415 54.2443L13.2686 52.1213C12.9944 52.0377 12.7556 51.8759 12.5863 51.6591C12.4171 51.4422 12.3259 51.1813 12.3259 50.9136C12.3259 50.6459 12.4171 50.385 12.5863 50.1681C12.7556 49.9513 12.9944 49.7895 13.2686 49.7059L21.068 47.3033C21.3269 47.2249 21.5592 47.0852 21.742 46.8978C21.9247 46.7105 22.0515 46.4822 22.1097 46.2354C22.1725 45.99 22.1665 45.7338 22.0921 45.4912C22.0177 45.2486 21.8775 45.0277 21.6848 44.8498C20.8762 44.0969 20.4222 43.0775 20.4222 42.0149C20.4222 40.9522 20.8762 39.9329 21.6848 39.18L22.1919 38.7096C23.2408 37.7217 24.5696 37.0291 26.0249 36.7119C27.4803 36.3947 29.0026 36.4659 30.4162 36.9172C32.2389 37.4857 33.8396 38.5417 35.0166 39.9522C36.1936 41.3627 36.8944 43.0646 37.0307 44.8437C37.1669 46.6227 36.7327 48.3994 35.7825 49.9501C34.8323 51.5007 33.4087 52.756 31.6909 53.5578L31.6224 53.4943Z" fill="white"/>
<path d="M38.3796 10.1699C39.1366 10.1699 39.7503 9.60078 39.7503 8.89869C39.7503 8.1966 39.1366 7.62744 38.3796 7.62744C37.6226 7.62744 37.0089 8.1966 37.0089 8.89869C37.0089 9.60078 37.6226 10.1699 38.3796 10.1699Z" fill="white"/>
</svg>

