<svg width="77" height="77" viewBox="0 0 77 77" fill="none" xmlns="http://www.w3.org/2000/svg">
<path d="M38.38 76.76C59.5767 76.76 76.76 59.5767 76.76 38.38C76.76 17.1833 59.5767 0 38.38 0C17.1833 0 0 17.1833 0 38.38C0 59.5767 17.1833 76.76 38.38 76.76Z" fill="white"/>
<path d="M38.0548 14.7588C26.8863 14.7588 17.802 23.8253 17.802 34.9762C17.802 45.637 25.478 53.6643 36.7971 54.922C36.8208 55.4682 36.8267 56.2299 36.8119 57.0093C36.7873 58.117 36.745 59.2242 36.685 60.3306C36.685 60.8325 37.0599 61.4613 37.4467 61.7064C37.7267 61.8904 38.0534 61.9908 38.3884 61.9957C38.8815 62.0252 39.2564 61.9249 39.6875 61.7891C40.5407 61.5174 41.5327 61.0096 42.5866 60.2361C44.5381 58.8013 46.5545 56.283 47.5376 52.7963C51.7358 51.1194 54.5937 48.6572 56.1879 45.6252C57.8707 42.419 58.2988 38.764 58.2988 34.9762C58.2988 23.8224 49.2175 14.7588 38.0548 14.7588ZM38.0548 17.7111C40.3247 17.7064 42.5731 18.1496 44.6714 19.0153C46.7697 19.881 48.6766 21.1521 50.2829 22.7559C51.8891 24.3597 53.1632 26.2646 54.0321 28.3616C54.901 30.4586 55.3477 32.7063 55.3465 34.9762C55.3465 38.5367 54.9214 41.6927 53.5751 44.2523C52.2318 46.812 49.9969 48.8904 45.9109 50.3725C45.6767 50.4574 45.4678 50.6002 45.3037 50.7876C45.1395 50.9749 45.0254 51.2008 44.9721 51.4442C44.4279 54.018 42.9569 56.3022 40.8389 57.8625C40.3901 58.1902 40.0919 58.2817 39.714 58.4736C39.7376 57.895 39.7524 57.7739 39.7642 57.0654C39.7819 56.221 39.7849 55.3766 39.7495 54.6828C39.7373 54.3618 39.7017 54.0422 39.6432 53.7263C39.6137 53.5698 39.5841 53.4104 39.466 53.1624C39.3871 52.9877 39.2759 52.8295 39.1383 52.6959C38.8693 52.436 38.5191 52.2765 38.1464 52.2442C27.3675 51.5504 20.7543 44.6243 20.7543 34.9732C20.7539 32.703 21.2014 30.455 22.0712 28.358C22.9409 26.2609 24.2159 24.3561 25.823 22.7526C27.4301 21.1491 29.3377 19.8784 31.4367 19.0133C33.5356 18.1482 35.7846 17.7057 38.0548 17.7111ZM49.2323 25.5229L41.4205 33.3377L39.5133 30.5566L38.4682 30.7013V30.7131L34.9047 30.9965L41.4205 37.5122L50.8885 28.0442H50.9682L49.2323 25.5229ZM26.6589 26.568V44.2819H50.2774V35.3334H47.3251V41.3296H29.6112V29.5203H41.3289V26.568H26.6589Z" fill="#0D0D0D"/>
</svg>
