<svg width="82" height="112" viewBox="0 0 82 112" fill="none" xmlns="http://www.w3.org/2000/svg">
<mask id="mask0_1374_5601" style="mask-type:alpha" maskUnits="userSpaceOnUse" x="0" y="0" width="82" height="112">
<rect width="82" height="112" fill="#D9D9D9"/>
</mask>
<g mask="url(#mask0_1374_5601)">
<mask id="path-2-outside-1_1374_5601" maskUnits="userSpaceOnUse" x="3.97656" y="5.30957" width="78" height="114" fill="black">
<rect fill="white" x="3.97656" y="5.30957" width="78" height="114"/>
<path d="M42.5193 117.041C36.8431 117.041 31.5517 116.031 26.6452 114.011C21.7386 111.99 17.5055 109.152 13.9459 105.496C10.3862 101.744 7.74054 97.3189 6.00881 92.2199L17.9866 87.3134C20.0069 92.7009 23.1817 96.8859 27.5111 99.8684C31.8404 102.851 36.8431 104.342 42.5193 104.342C46.9448 104.342 50.8893 103.476 54.3528 101.744C57.8162 100.013 60.51 97.5113 62.4342 94.2403C64.4545 90.9692 65.4647 87.0247 65.4647 82.4068C65.4647 77.6927 64.4545 73.7482 62.4342 70.5734C60.51 67.3023 57.8162 64.8009 54.3528 63.0692C50.8893 61.3375 46.8967 60.4716 42.375 60.4716C40.9319 60.4716 39.3445 60.5678 37.6128 60.7603C35.9773 60.9527 34.5823 61.2413 33.4278 61.6261L30.3973 55.1322L59.115 20.0647H11.4926V7.79835H75.1335V19.6318L47.7145 53.4004L46.8486 49.6484C53.2945 49.8408 58.9707 51.332 63.8773 54.122C68.7838 56.912 72.6321 60.7122 75.4221 65.5225C78.2121 70.2366 79.6071 75.7685 79.6071 82.1182C79.6071 88.6603 78.0197 94.577 74.8448 99.8684C71.67 105.16 67.2926 109.345 61.7126 112.423C56.1326 115.502 49.7348 117.041 42.5193 117.041Z"/>
</mask>
<path d="M26.6452 114.011L27.236 112.576L26.6452 114.011ZM13.9459 105.496L12.8202 106.564L12.8271 106.572L12.8341 106.579L13.9459 105.496ZM6.00881 92.2199L5.4206 90.784L4.07024 91.3372L4.53951 92.7189L6.00881 92.2199ZM17.9866 87.3134L19.4395 86.7685L18.878 85.2713L17.3984 85.8774L17.9866 87.3134ZM62.4342 94.2403L61.114 93.4248L61.1052 93.4391L61.0967 93.4535L62.4342 94.2403ZM62.4342 70.5734L61.0967 71.3601L61.1104 71.3835L61.125 71.4064L62.4342 70.5734ZM37.6128 60.7603L37.4414 59.218L37.4315 59.2192L37.6128 60.7603ZM33.4278 61.6261L32.0216 62.2823L32.6065 63.5356L33.9185 63.0982L33.4278 61.6261ZM30.3973 55.1321L29.1967 54.149L28.5784 54.904L28.9911 55.7884L30.3973 55.1321ZM59.115 20.0647L60.3156 21.0479L62.3914 18.513H59.115V20.0647ZM11.4926 20.0647H9.94088V21.6165H11.4926V20.0647ZM11.4926 7.79836V6.24663H9.94088V7.79836H11.4926ZM75.1335 7.79836H76.6852V6.24663H75.1335V7.79836ZM75.1335 19.6318L76.3381 20.6099L76.6852 20.1824V19.6318H75.1335ZM47.7145 53.4004L46.2025 53.7494L46.9168 56.8446L48.9191 54.3785L47.7145 53.4004ZM46.8486 49.6484L46.8949 48.0973L44.8844 48.0373L45.3367 49.9973L46.8486 49.6484ZM63.8773 54.122L64.6443 52.7731L63.8773 54.122ZM75.4221 65.5225L74.0798 66.3011L74.0867 66.3128L75.4221 65.5225ZM74.8448 99.8684L73.5143 99.07L74.8448 99.8684ZM61.7126 112.423L60.963 111.065L61.7126 112.423ZM42.5193 115.49C37.0315 115.49 31.9424 114.514 27.236 112.576L26.0544 115.446C31.1611 117.548 36.6547 118.593 42.5193 118.593V115.49ZM27.236 112.576C22.5173 110.633 18.4636 107.912 15.0576 104.414L12.8341 106.579C16.5475 110.393 20.9599 113.348 26.0544 115.446L27.236 112.576ZM15.0716 104.428C11.6726 100.846 9.14079 96.6166 7.47811 91.7209L4.53951 92.7189C6.34028 98.0212 9.09984 102.643 12.8202 106.564L15.0716 104.428ZM6.59702 93.6558L18.5748 88.7493L17.3984 85.8774L5.4206 90.784L6.59702 93.6558ZM16.5336 87.8582C18.6544 93.5135 22.0154 97.9667 26.6308 101.146L28.3914 98.5905C24.3481 95.8052 21.3594 91.8884 19.4395 86.7685L16.5336 87.8582ZM26.6308 101.146C31.2398 104.321 36.5551 105.894 42.5193 105.894V102.79C37.1312 102.79 32.4409 101.38 28.3914 98.5905L26.6308 101.146ZM42.5193 105.894C47.1512 105.894 51.3389 104.986 55.0467 103.132L53.6588 100.356C50.4398 101.966 46.7385 102.79 42.5193 102.79V105.894ZM55.0467 103.132C58.7725 101.269 61.6923 98.5619 63.7716 95.027L61.0967 93.4535C59.3277 96.4607 56.86 98.7559 53.6588 100.356L55.0467 103.132ZM63.7544 95.0557C65.954 91.4943 67.0164 87.2544 67.0164 82.4068H63.9129C63.9129 86.795 62.955 90.4441 61.114 93.4248L63.7544 95.0557ZM67.0164 82.4068C67.0164 77.4719 65.9577 73.2201 63.7433 69.7403L61.125 71.4064C62.9513 74.2763 63.9129 77.9135 63.9129 82.4068H67.0164ZM63.7716 69.7866C61.6923 66.2517 58.7725 63.5442 55.0467 61.6813L53.6588 64.4571C56.86 66.0577 59.3277 68.3529 61.0967 71.3601L63.7716 69.7866ZM55.0467 61.6813C51.3344 59.8252 47.0973 58.9199 42.375 58.9199V62.0234C46.6962 62.0234 50.4442 62.8498 53.6588 64.4571L55.0467 61.6813ZM42.375 58.9199C40.8644 58.9199 39.2188 59.0205 37.4414 59.218L37.7841 62.3025C39.4702 62.1152 40.9994 62.0234 42.375 62.0234V58.9199ZM37.4315 59.2192C35.725 59.4199 34.2202 59.7263 32.9371 60.154L33.9185 63.0982C34.9443 62.7563 36.2296 62.4854 37.7941 62.3014L37.4315 59.2192ZM34.8339 60.9699L31.8034 54.476L28.9911 55.7884L32.0216 62.2823L34.8339 60.9699ZM31.5978 56.1153L60.3156 21.0479L57.9145 19.0816L29.1967 54.149L31.5978 56.1153ZM59.115 18.513H11.4926V21.6165H59.115V18.513ZM13.0443 20.0647V7.79836H9.94088V20.0647H13.0443ZM11.4926 9.35007H75.1335V6.24663H11.4926V9.35007ZM73.5817 7.79836V19.6318H76.6852V7.79836H73.5817ZM73.9288 18.6537L46.5099 52.4223L48.9191 54.3785L76.3381 20.6099L73.9288 18.6537ZM49.2265 53.0515L48.3606 49.2994L45.3367 49.9973L46.2025 53.7494L49.2265 53.0515ZM46.8023 51.1994C53.0315 51.3853 58.4535 52.8229 63.1102 55.4709L64.6443 52.7731C59.488 49.8411 53.5575 48.2962 46.8949 48.0973L46.8023 51.1994ZM63.1102 55.4709C67.7817 58.1272 71.4298 61.7321 74.0798 66.301L76.7644 64.744C73.8344 59.6922 69.7859 55.6968 64.6443 52.7731L63.1102 55.4709ZM74.0867 66.3128C76.7139 70.7518 78.0554 76.0017 78.0554 82.1182H81.1588C81.1588 75.5353 79.7103 69.7215 76.7575 64.7322L74.0867 66.3128ZM78.0554 82.1182C78.0554 88.3966 76.5356 94.0345 73.5143 99.07L76.1754 100.667C79.5038 95.1195 81.1588 88.9239 81.1588 82.1182H78.0554ZM73.5143 99.07C70.485 104.119 66.3115 108.114 60.963 111.065L62.4622 113.782C68.2737 110.576 72.855 106.201 76.1754 100.667L73.5143 99.07ZM60.963 111.065C55.6415 114.001 49.5079 115.49 42.5193 115.49V118.593C49.9618 118.593 56.6237 117.003 62.4622 113.782L60.963 111.065Z" fill="#FF2A00" mask="url(#path-2-outside-1_1374_5601)"/>
</g>
</svg>
