<svg width="88" height="73" viewBox="0 0 88 73" fill="none" xmlns="http://www.w3.org/2000/svg">
<path d="M83.9581 2.24615C82.8235 1.12308 81.1217 1.12308 79.9871 2.24615C78.8525 3.36923 78.8525 5.05385 79.9871 6.17692C83.1072 9.26538 83.1072 14.0385 79.9871 17.1269C77.1507 19.9346 72.0451 19.9346 68.9251 17.1269L65.2377 13.4769C58.7139 5.33462 48.5028 0 36.8735 0C16.4513 0 0 16.2846 0 36.5C0 56.7154 16.4513 73 36.8735 73C57.2957 73 73.747 56.7154 73.747 36.5C73.747 32.2885 72.896 28.3577 71.7615 24.7077C72.6124 24.9885 73.747 24.9885 74.5979 24.9885C78.2852 24.9885 81.689 23.5846 83.9581 21.0577C89.3473 15.7231 89.3473 7.3 83.9581 2.24615ZM16.7349 16.5654C19.855 13.1962 25.5278 13.1962 28.6479 16.5654C30.3497 17.9692 31.2006 20.2154 31.2006 22.4615C31.2006 24.7077 30.3497 26.9538 28.6479 28.3577C27.2297 30.0423 24.9605 30.8846 22.6914 30.8846C20.4222 30.8846 18.1531 30.0423 16.7349 28.3577C15.033 26.9538 14.1821 24.7077 14.1821 22.4615C14.1821 20.2154 15.033 17.9692 16.7349 16.5654ZM28.6479 56.4346C27.2297 58.1192 24.9605 58.9615 22.6914 58.9615C20.4222 58.9615 18.1531 58.1192 16.7349 56.4346C15.033 55.0308 14.1821 52.7846 14.1821 50.5385C14.1821 48.2923 15.033 46.0462 16.7349 44.6423C19.855 41.5538 25.5278 41.5538 28.6479 44.6423C30.3497 46.3269 31.2006 48.2923 31.2006 50.5385C31.2006 52.7846 30.3497 55.0308 28.6479 56.4346ZM30.917 42.3962C29.2151 40.9923 28.3642 38.7462 28.3642 36.5C28.3642 34.2538 29.2151 32.0077 30.917 30.6038C34.0371 27.5154 39.7099 27.5154 42.83 30.6038C44.5318 32.2885 45.3828 34.2538 45.3828 36.5C45.3828 38.7462 44.5318 40.9923 42.83 42.3962C41.4118 44.0808 39.1426 44.9231 36.8735 44.9231C34.6044 44.9231 32.3352 44.0808 30.917 42.3962ZM57.0121 56.4346C55.5939 58.1192 53.3247 58.9615 51.0556 58.9615C48.7865 58.9615 46.5173 58.1192 45.0991 56.4346C43.3973 55.0308 42.5463 52.7846 42.5463 50.5385C42.5463 48.2923 43.3973 46.0462 45.0991 44.6423C48.2192 41.5538 53.892 41.5538 57.0121 44.6423C58.7139 46.3269 59.5649 48.2923 59.5649 50.5385C59.5649 52.7846 58.7139 55.0308 57.0121 56.4346ZM57.0121 28.3577C55.5939 30.0423 53.3247 30.8846 51.0556 30.8846C48.7865 30.8846 46.5173 30.0423 45.0991 28.3577C43.3973 26.9538 42.5463 24.7077 42.5463 22.4615C42.5463 20.2154 43.3973 17.9692 45.0991 16.5654C48.2192 13.4769 53.892 13.4769 57.0121 16.5654C58.7139 17.9692 59.5649 20.2154 59.5649 22.4615C59.5649 24.7077 58.7139 26.9538 57.0121 28.3577Z" fill="white"/>
</svg>
