<svg width="80" height="66" viewBox="0 0 80 66" fill="none" xmlns="http://www.w3.org/2000/svg">
<path d="M74.3651 65.1449C70.6852 67.0061 65.7786 65.7653 63.3253 62.0427L56.5788 53.3568H23.4595L16.713 62.0427C13.6464 66.3857 8.1265 67.0061 3.83325 63.904C0.766651 61.4223 -0.45999 57.6997 0.15333 54.5976L4.44657 31.6418C5.67322 24.1967 12.4197 18.6128 19.7796 18.6128H36.9526V9.30641C36.9526 4.34299 40.6325 0 45.539 0H64.552C66.3919 0 67.6186 1.24085 67.6186 3.10214C67.6186 4.96342 66.3919 6.20427 64.552 6.20427H46.1524C44.3124 6.20427 43.0858 7.44513 43.0858 8.68598V9.30641V18.6128H60.2587C67.6186 18.6128 74.3651 24.1967 75.5918 31.6418L79.885 54.5976C80.4983 58.9406 78.6584 63.2836 74.3651 65.1449ZM30.8194 34.1235C30.8194 29.1601 26.5261 24.8171 21.6195 24.8171C16.713 24.8171 12.4197 29.1601 12.4197 34.1235C12.4197 39.0869 16.713 43.4299 21.6195 43.4299C26.5261 43.4299 30.8194 39.0869 30.8194 34.1235ZM67.6186 34.1235C67.6186 32.2622 66.3919 31.0214 64.552 31.0214H61.4854V27.9192C61.4854 26.0579 60.2587 24.8171 58.4188 24.8171C56.5788 24.8171 55.3522 26.0579 55.3522 27.9192V31.0214H52.2856C50.4456 31.0214 49.219 32.2622 49.219 34.1235C49.219 35.9848 50.4456 37.2256 52.2856 37.2256H55.3522V40.3278C55.3522 42.1891 56.5788 43.4299 58.4188 43.4299C60.2587 43.4299 61.4854 42.1891 61.4854 40.3278V37.2256H64.552C66.3919 37.2256 67.6186 35.9848 67.6186 34.1235Z" fill="#ff2a00"/>
</svg>
