<svg xmlns="http://www.w3.org/2000/svg" xmlns:xlink="http://www.w3.org/1999/xlink" width="60" zoomAndPan="magnify" viewBox="0 0 45 44.999999" height="60" preserveAspectRatio="xMidYMid meet" version="1.0"><defs><clipPath id="a768d79d24"><path d="M 6.03125 6.074219 L 39 6.074219 L 39 39 L 6.03125 39 Z M 6.03125 6.074219 " clip-rule="nonzero"/></clipPath></defs><g clip-path="url(#a768d79d24)"><path fill="#ffffff" d="M 18.027344 31.984375 C 17.714844 31.894531 17.539062 31.566406 17.632812 31.253906 C 17.722656 30.945312 18.050781 30.769531 18.359375 30.859375 L 22.785156 32.195312 C 23.679688 32.464844 24.464844 31.515625 24.019531 30.6875 C 23.894531 30.449219 23.675781 30.257812 23.398438 30.175781 L 18.023438 28.554688 C 16.675781 28.148438 15.597656 28.691406 14.460938 29.257812 C 13.03125 29.976562 12.679688 30.074219 11.179688 30.4375 C 10.914062 30.503906 10.699219 30.554688 10.507812 30.601562 C 10.472656 30.609375 10.449219 30.636719 10.449219 30.671875 L 10.449219 37.054688 C 10.449219 37.074219 10.457031 37.09375 10.472656 37.109375 C 10.488281 37.121094 10.503906 37.128906 10.527344 37.128906 C 12.859375 37.109375 15.28125 37.125 17.570312 37.457031 C 19.285156 37.703125 21.109375 38.347656 22.761719 38.214844 C 24.890625 38.042969 27.269531 36.714844 28.960938 35.492188 L 37.695312 29.183594 C 38.953125 28.273438 37.6875 26.324219 37.128906 26.625 C 33.695312 28.480469 30.023438 30.800781 27.015625 31.808594 C 25.550781 32.296875 23.386719 33.632812 22.417969 33.308594 Z M 28.34375 13.234375 C 29.269531 14.164062 29.894531 15.398438 30.042969 16.773438 C 30.046875 16.8125 30.082031 16.839844 30.117188 16.839844 L 37.472656 16.839844 C 37.585938 16.839844 37.679688 16.746094 37.679688 16.632812 L 37.679688 15.238281 C 37.679688 14.882812 37.523438 14.59375 37.230469 14.398438 L 24.945312 6.320312 C 24.699219 6.15625 24.425781 6.078125 24.152344 6.078125 L 24.152344 6.074219 C 23.878906 6.074219 23.605469 6.15625 23.359375 6.320312 L 11.074219 14.398438 C 10.78125 14.59375 10.625 14.882812 10.625 15.238281 L 10.625 16.632812 C 10.625 16.746094 10.71875 16.839844 10.832031 16.839844 L 18.183594 16.839844 C 18.222656 16.839844 18.253906 16.8125 18.257812 16.773438 C 18.585938 13.792969 21.113281 11.5 24.152344 11.5 C 25.789062 11.5 27.269531 12.164062 28.34375 13.234375 Z M 27.511719 20.789062 C 25.65625 22.644531 22.648438 22.644531 20.789062 20.789062 C 18.933594 18.933594 18.933594 15.921875 20.789062 14.066406 C 22.648438 12.210938 25.65625 12.210938 27.511719 14.066406 C 29.367188 15.921875 29.367188 18.933594 27.511719 20.789062 Z M 23.449219 16.699219 Z M 26.457031 18.597656 C 26.390625 19.515625 25.636719 20.027344 24.796875 20.207031 C 24.765625 20.214844 24.738281 20.246094 24.738281 20.28125 L 24.738281 20.382812 C 24.738281 20.707031 24.476562 20.972656 24.152344 20.972656 C 23.828125 20.972656 23.5625 20.707031 23.5625 20.382812 L 23.5625 20.300781 C 23.5625 20.261719 23.535156 20.230469 23.5 20.226562 C 23.046875 20.160156 22.601562 20.027344 22.1875 19.835938 C 21.890625 19.699219 21.765625 19.347656 21.902344 19.054688 C 22.039062 18.761719 22.386719 18.632812 22.679688 18.769531 C 23.269531 19.042969 24.230469 19.257812 24.871094 18.964844 C 25.050781 18.882812 25.28125 18.730469 25.28125 18.554688 C 25.28125 18.398438 25.050781 18.226562 24.882812 18.15625 C 24.210938 17.875 23.871094 18.15625 22.984375 17.777344 L 22.988281 17.777344 C 21.480469 17.097656 21.527344 15.433594 22.988281 14.816406 C 23.160156 14.742188 23.332031 14.683594 23.503906 14.648438 C 23.539062 14.640625 23.5625 14.609375 23.5625 14.574219 L 23.5625 14.46875 C 23.5625 14.144531 23.828125 13.882812 24.152344 13.882812 C 24.476562 13.882812 24.738281 14.144531 24.738281 14.46875 L 24.738281 14.554688 C 24.738281 14.59375 24.765625 14.625 24.804688 14.628906 C 25.273438 14.695312 25.710938 14.824219 26.117188 15.023438 C 26.410156 15.164062 26.53125 15.515625 26.390625 15.808594 C 26.246094 16.101562 25.894531 16.222656 25.605469 16.078125 C 25.027344 15.796875 24.105469 15.609375 23.445312 15.890625 L 23.449219 15.894531 C 22.542969 16.277344 23.347656 16.84375 24.164062 16.839844 C 25.195312 16.839844 26.386719 17.382812 26.457031 18.523438 C 26.457031 18.546875 26.457031 18.574219 26.457031 18.597656 Z M 31.574219 18.089844 C 31.574219 18.046875 31.609375 18.015625 31.652344 18.015625 L 34.296875 18.015625 C 34.335938 18.015625 34.371094 18.046875 34.371094 18.089844 L 34.371094 26.789062 C 34.371094 26.816406 34.355469 26.839844 34.332031 26.855469 C 33.460938 27.34375 32.566406 27.84375 31.6875 28.316406 C 31.664062 28.332031 31.636719 28.328125 31.613281 28.316406 C 31.589844 28.300781 31.574219 28.277344 31.574219 28.25 Z M 22.753906 23.285156 C 22.753906 23.261719 22.765625 23.238281 22.78125 23.226562 C 22.800781 23.210938 22.824219 23.207031 22.847656 23.210938 C 23.703125 23.402344 24.601562 23.402344 25.457031 23.210938 C 25.480469 23.207031 25.503906 23.210938 25.519531 23.226562 C 25.539062 23.238281 25.550781 23.261719 25.550781 23.285156 L 25.550781 30.917969 C 25.550781 30.949219 25.53125 30.976562 25.5 30.988281 L 25.402344 31.023438 C 25.378906 31.03125 25.355469 31.027344 25.335938 31.015625 C 25.316406 31.003906 25.304688 30.984375 25.300781 30.960938 C 25.195312 30.097656 24.59375 29.308594 23.734375 29.050781 L 22.808594 28.773438 C 22.777344 28.761719 22.753906 28.734375 22.753906 28.699219 Z M 13.933594 18.089844 C 13.933594 18.046875 13.96875 18.015625 14.007812 18.015625 L 16.652344 18.015625 C 16.695312 18.015625 16.726562 18.046875 16.726562 18.089844 L 16.726562 27.171875 C 16.726562 27.210938 16.699219 27.246094 16.660156 27.25 C 15.695312 27.339844 14.894531 27.738281 14.042969 28.160156 C 14.019531 28.171875 13.992188 28.171875 13.96875 28.15625 C 13.945312 28.144531 13.933594 28.121094 13.933594 28.09375 Z M 9.273438 38.625 L 9.273438 29.804688 C 9.273438 29.644531 9.140625 29.511719 8.980469 29.511719 L 6.332031 29.511719 C 6.171875 29.511719 6.039062 29.644531 6.039062 29.804688 L 6.039062 38.625 C 6.039062 38.789062 6.171875 38.921875 6.332031 38.921875 L 8.980469 38.921875 C 9.140625 38.921875 9.273438 38.789062 9.273438 38.625 Z M 9.273438 38.625 " fill-opacity="1" fill-rule="evenodd"/></g></svg>