<svg xmlns="http://www.w3.org/2000/svg" xmlns:xlink="http://www.w3.org/1999/xlink" width="60" zoomAndPan="magnify" viewBox="0 0 45 44.999999" height="60" preserveAspectRatio="xMidYMid meet" version="1.0"><defs><clipPath id="d355a320cf"><path d="M 4 7.417969 L 38.496094 7.417969 L 38.496094 31 L 4 31 Z M 4 7.417969 " clip-rule="nonzero"/></clipPath><clipPath id="e5fc63b905"><path d="M 28 32 L 33 32 L 33 37.417969 L 28 37.417969 Z M 28 32 " clip-rule="nonzero"/></clipPath><clipPath id="e9f729462d"><path d="M 14 32 L 20 32 L 20 37.417969 L 14 37.417969 Z M 14 32 " clip-rule="nonzero"/></clipPath></defs><path fill="#ffffff" d="M 23.09375 25.125 C 23.121094 25.125 23.148438 25.152344 23.171875 25.152344 C 23.28125 25.152344 23.386719 25.074219 23.4375 24.96875 L 24.101562 23.109375 C 24.15625 22.976562 24.074219 22.816406 23.941406 22.761719 C 23.808594 22.710938 23.652344 22.789062 23.597656 22.921875 L 22.933594 24.78125 C 22.882812 24.941406 22.960938 25.074219 23.09375 25.125 Z M 23.09375 25.125 " fill-opacity="1" fill-rule="nonzero"/><path fill="#ffffff" d="M 22.457031 21.117188 L 20.703125 21.941406 C 20.570312 21.992188 20.519531 22.179688 20.570312 22.3125 C 20.625 22.417969 20.703125 22.472656 20.808594 22.472656 C 20.835938 22.472656 20.890625 22.472656 20.917969 22.445312 L 22.667969 21.621094 C 22.800781 21.570312 22.855469 21.382812 22.800781 21.25 C 22.75 21.117188 22.589844 21.0625 22.457031 21.117188 Z M 22.457031 21.117188 " fill-opacity="1" fill-rule="nonzero"/><path fill="#ffffff" d="M 23.066406 19.363281 C 23.121094 19.230469 23.039062 19.074219 22.90625 19.019531 L 21.074219 18.355469 C 20.941406 18.300781 20.785156 18.382812 20.730469 18.515625 C 20.675781 18.648438 20.757812 18.808594 20.890625 18.859375 L 22.722656 19.523438 C 22.75 19.523438 22.773438 19.550781 22.828125 19.550781 C 22.933594 19.550781 23.015625 19.472656 23.066406 19.363281 Z M 23.066406 19.363281 " fill-opacity="1" fill-rule="nonzero"/><path fill="#ffffff" d="M 24.449219 18.25 C 24.472656 18.25 24.527344 18.25 24.554688 18.222656 C 24.6875 18.171875 24.738281 17.984375 24.6875 17.851562 L 23.863281 16.074219 C 23.808594 15.941406 23.625 15.886719 23.492188 15.941406 C 23.386719 15.992188 23.332031 16.179688 23.386719 16.3125 L 24.207031 18.089844 C 24.261719 18.171875 24.339844 18.25 24.449219 18.25 Z M 24.449219 18.25 " fill-opacity="1" fill-rule="nonzero"/><path fill="#ffffff" d="M 26.546875 18.488281 C 26.652344 18.488281 26.757812 18.410156 26.8125 18.300781 L 27.476562 16.445312 C 27.527344 16.3125 27.449219 16.152344 27.316406 16.097656 C 27.183594 16.046875 27.023438 16.125 26.96875 16.257812 L 26.304688 18.117188 C 26.253906 18.25 26.332031 18.410156 26.464844 18.460938 C 26.464844 18.488281 26.492188 18.488281 26.546875 18.488281 Z M 26.546875 18.488281 " fill-opacity="1" fill-rule="nonzero"/><path fill="#ffffff" d="M 27.820312 20.160156 C 27.847656 20.160156 27.898438 20.160156 27.925781 20.136719 L 29.679688 19.3125 C 29.8125 19.257812 29.863281 19.074219 29.8125 18.941406 C 29.757812 18.808594 29.574219 18.753906 29.441406 18.808594 L 27.6875 19.628906 C 27.554688 19.683594 27.5 19.871094 27.554688 20.003906 C 27.632812 20.082031 27.742188 20.160156 27.820312 20.160156 Z M 27.820312 20.160156 " fill-opacity="1" fill-rule="nonzero"/><g clip-path="url(#d355a320cf)"><path fill="#ffffff" d="M 35.203125 12.621094 L 12.179688 12.621094 C 11.382812 8.875 9.207031 8.636719 9.019531 8.609375 L 7.347656 8.609375 C 7.082031 7.972656 6.472656 7.417969 5.726562 7.417969 C 4.773438 7.417969 4.003906 8.1875 4.003906 9.140625 C 4.003906 10.097656 4.773438 10.894531 5.726562 10.894531 C 6.472656 10.894531 7.082031 10.308594 7.347656 9.671875 L 8.914062 9.671875 C 8.96875 9.671875 10.429688 10.125 10.984375 13.179688 C 11.703125 17.242188 13.5625 27.4375 13.5625 27.4375 C 13.5625 28.578125 14.25 30.648438 16.800781 30.648438 L 26.625 30.648438 L 26.226562 29.613281 L 16.773438 29.613281 C 15.683594 29.613281 15.207031 28.816406 14.996094 28.261719 C 16.722656 28.152344 21.449219 27.835938 25.617188 27.542969 L 25.246094 26.242188 C 20.996094 26.535156 16.296875 26.851562 14.78125 26.957031 C 14.4375 25.234375 13.136719 17.90625 12.417969 13.921875 L 35.015625 13.921875 C 36.050781 13.921875 36.792969 14.769531 36.660156 15.808594 L 35.707031 23.613281 C 35.707031 23.640625 35.679688 23.800781 35.574219 24.011719 L 36.742188 24.597656 C 36.953125 24.144531 37.007812 23.824219 37.007812 23.773438 L 37.988281 15.753906 C 38.175781 14.027344 36.953125 12.621094 35.203125 12.621094 Z M 35.203125 12.621094 " fill-opacity="1" fill-rule="nonzero"/></g><path fill="#ffffff" d="M 32.597656 26.800781 L 34.828125 25.921875 C 35.042969 25.84375 35.175781 25.65625 35.175781 25.445312 C 35.175781 25.234375 35.070312 25.019531 34.882812 24.914062 L 25.484375 20.160156 C 25.296875 20.054688 25.058594 20.082031 24.871094 20.242188 C 24.714844 20.375 24.632812 20.613281 24.714844 20.824219 L 27.898438 31.101562 C 27.953125 31.3125 28.164062 31.472656 28.378906 31.5 C 28.589844 31.527344 28.800781 31.394531 28.910156 31.207031 L 30.183594 28.765625 L 32.917969 32.402344 C 32.996094 32.507812 33.128906 32.589844 33.289062 32.613281 C 33.316406 32.613281 33.34375 32.613281 33.371094 32.613281 C 33.476562 32.613281 33.609375 32.589844 33.714844 32.507812 L 35.386719 31.207031 C 35.492188 31.128906 35.574219 30.996094 35.601562 30.835938 C 35.625 30.675781 35.574219 30.542969 35.492188 30.410156 Z M 33.449219 31.285156 L 30.527344 27.410156 C 30.421875 27.277344 30.261719 27.199219 30.101562 27.199219 C 30.078125 27.199219 30.078125 27.199219 30.050781 27.199219 C 29.863281 27.222656 29.707031 27.332031 29.597656 27.488281 L 28.535156 29.535156 L 26.121094 21.753906 L 33.261719 25.367188 L 31.511719 26.054688 C 31.351562 26.109375 31.21875 26.269531 31.191406 26.429688 C 31.140625 26.585938 31.191406 26.773438 31.296875 26.90625 L 34.273438 30.675781 Z M 33.449219 31.285156 " fill-opacity="1" fill-rule="nonzero"/><g clip-path="url(#e5fc63b905)"><path fill="#ffffff" d="M 30.34375 32.960938 C 29.09375 32.960938 28.058594 33.996094 28.058594 35.269531 C 28.058594 36.542969 29.09375 37.582031 30.34375 37.582031 C 31.589844 37.582031 32.625 36.542969 32.625 35.269531 C 32.625 33.996094 31.589844 32.960938 30.34375 32.960938 Z M 30.34375 36.464844 C 29.679688 36.464844 29.148438 35.933594 29.148438 35.269531 C 29.148438 34.605469 29.679688 34.074219 30.34375 34.074219 C 31.007812 34.074219 31.539062 34.605469 31.539062 35.269531 C 31.539062 35.90625 31.007812 36.464844 30.34375 36.464844 Z M 30.34375 36.464844 " fill-opacity="1" fill-rule="nonzero"/></g><g clip-path="url(#e9f729462d)"><path fill="#ffffff" d="M 17.199219 32.960938 C 15.949219 32.960938 14.914062 33.996094 14.914062 35.269531 C 14.914062 36.542969 15.949219 37.582031 17.199219 37.582031 C 18.445312 37.582031 19.480469 36.542969 19.480469 35.269531 C 19.480469 33.996094 18.445312 32.960938 17.199219 32.960938 Z M 17.199219 36.464844 C 16.535156 36.464844 16.003906 35.933594 16.003906 35.269531 C 16.003906 34.605469 16.535156 34.074219 17.199219 34.074219 C 17.863281 34.074219 18.394531 34.605469 18.394531 35.269531 C 18.394531 35.90625 17.863281 36.464844 17.199219 36.464844 Z M 17.199219 36.464844 " fill-opacity="1" fill-rule="nonzero"/></g></svg>