<svg xmlns="http://www.w3.org/2000/svg" xmlns:xlink="http://www.w3.org/1999/xlink" width="60" zoomAndPan="magnify" viewBox="0 0 45 44.999999" height="60" preserveAspectRatio="xMidYMid meet" version="1.0"><defs><clipPath id="2b27d1053e"><path d="M 12 37 L 22 37 L 22 40.5 L 12 40.5 Z M 12 37 " clip-rule="nonzero"/></clipPath><clipPath id="87c051e5c4"><path d="M 4.5 20 L 20 20 L 20 37 L 4.5 37 Z M 4.5 20 " clip-rule="nonzero"/></clipPath><clipPath id="fb395f730c"><path d="M 25 37 L 35 37 L 35 40.5 L 25 40.5 Z M 25 37 " clip-rule="nonzero"/></clipPath><clipPath id="96495fca31"><path d="M 11 4.5 L 35 4.5 L 35 26 L 11 26 Z M 11 4.5 " clip-rule="nonzero"/></clipPath></defs><g clip-path="url(#2b27d1053e)"><path fill="#ffffff" d="M 12.222656 37.929688 L 21.222656 37.929688 L 21.222656 40.5 L 12.222656 40.5 Z M 12.222656 37.929688 " fill-opacity="1" fill-rule="nonzero"/></g><path fill="#ffffff" d="M 8.550781 21.019531 L 9.851562 24.917969 C 10.164062 24.539062 10.570312 24.269531 11.007812 24.101562 L 9.257812 18.855469 C 9.089844 18.347656 8.726562 17.949219 8.242188 17.722656 C 7.753906 17.5 7.214844 17.484375 6.710938 17.683594 L 6.578125 17.738281 L 7.007812 19.226562 C 7.726562 19.605469 8.289062 20.238281 8.550781 21.019531 Z M 8.550781 21.019531 " fill-opacity="1" fill-rule="nonzero"/><g clip-path="url(#87c051e5c4)"><path fill="#ffffff" d="M 13.507812 35.355469 L 13.507812 36.644531 L 19.9375 36.644531 L 19.9375 31.539062 C 19.9375 30.914062 19.632812 30.328125 19.125 29.96875 L 12.832031 25.46875 C 12.195312 25.019531 11.316406 25.140625 10.832031 25.753906 C 10.53125 26.125 10.441406 26.609375 10.558594 27.046875 L 10.589844 27.148438 L 10.609375 27.207031 C 10.699219 27.4375 10.851562 27.648438 11.058594 27.816406 L 15.835938 31.640625 C 16.117188 31.859375 16.164062 32.265625 15.9375 32.542969 C 15.71875 32.824219 15.3125 32.871094 15.039062 32.644531 L 10.253906 28.824219 C 9.792969 28.445312 9.476562 27.953125 9.324219 27.410156 L 7.328125 21.433594 C 7.148438 20.894531 6.746094 20.460938 6.230469 20.257812 C 5.761719 20.070312 5.246094 20.070312 4.785156 20.257812 L 4.648438 20.308594 L 7.464844 29.878906 C 7.574219 30.273438 7.804688 30.605469 8.125 30.855469 L 13.257812 34.847656 C 13.417969 34.972656 13.507812 35.15625 13.507812 35.355469 Z M 13.507812 35.355469 " fill-opacity="1" fill-rule="nonzero"/></g><path fill="#ffffff" d="M 41.515625 20.257812 C 41.054688 20.070312 40.539062 20.070312 40.070312 20.257812 C 39.554688 20.460938 39.152344 20.894531 38.972656 21.433594 L 36.972656 27.425781 C 36.824219 27.957031 36.507812 28.453125 36.046875 28.824219 L 31.261719 32.644531 C 30.988281 32.871094 30.582031 32.824219 30.363281 32.542969 C 30.136719 32.265625 30.183594 31.859375 30.464844 31.640625 L 35.242188 27.816406 C 35.441406 27.65625 35.597656 27.449219 35.6875 27.21875 C 35.691406 27.191406 35.699219 27.167969 35.710938 27.140625 C 35.710938 27.136719 35.738281 27.070312 35.738281 27.058594 L 35.738281 27.046875 C 35.859375 26.609375 35.769531 26.125 35.46875 25.753906 C 34.980469 25.140625 34.105469 25.019531 33.46875 25.46875 L 27.175781 29.96875 C 26.667969 30.328125 26.363281 30.914062 26.363281 31.539062 L 26.363281 36.644531 L 32.792969 36.644531 L 32.792969 35.355469 C 32.792969 35.15625 32.882812 34.972656 33.042969 34.847656 L 38.175781 30.855469 C 38.496094 30.605469 38.726562 30.273438 38.835938 29.878906 L 41.652344 20.308594 Z M 41.515625 20.257812 " fill-opacity="1" fill-rule="nonzero"/><path fill="#ffffff" d="M 36.449219 24.917969 L 37.75 21.019531 C 38.011719 20.238281 38.574219 19.605469 39.292969 19.222656 L 39.722656 17.738281 L 39.589844 17.683594 C 39.085938 17.484375 38.546875 17.5 38.058594 17.722656 C 37.574219 17.949219 37.210938 18.347656 37.042969 18.863281 L 35.292969 24.101562 C 35.730469 24.269531 36.136719 24.539062 36.449219 24.917969 Z M 36.449219 24.917969 " fill-opacity="1" fill-rule="nonzero"/><g clip-path="url(#fb395f730c)"><path fill="#ffffff" d="M 25.078125 37.929688 L 34.078125 37.929688 L 34.078125 40.5 L 25.078125 40.5 Z M 25.078125 37.929688 " fill-opacity="1" fill-rule="nonzero"/></g><g clip-path="url(#96495fca31)"><path fill="#ffffff" d="M 34.722656 11.828125 L 34.722656 11.082031 C 34.722656 7.445312 31.769531 4.5 28.140625 4.5 L 27.8125 4.5 C 26.0625 4.5 24.390625 5.195312 23.15625 6.429688 C 21.921875 5.195312 20.246094 4.5 18.503906 4.5 L 18.175781 4.5 C 14.535156 4.5 11.59375 7.449219 11.59375 11.082031 L 11.59375 11.828125 C 11.59375 13.710938 12.394531 15.5 13.804688 16.753906 L 23.164062 25.070312 L 32.523438 16.753906 C 33.929688 15.503906 34.734375 13.710938 34.734375 11.828125 Z M 27.007812 14.785156 L 24.4375 14.785156 L 24.4375 17.355469 L 21.863281 17.355469 L 21.863281 14.785156 L 19.292969 14.785156 L 19.292969 12.214844 L 21.863281 12.214844 L 21.863281 9.644531 L 24.4375 9.644531 L 24.4375 12.214844 L 27.007812 12.214844 Z M 27.007812 14.785156 " fill-opacity="1" fill-rule="nonzero"/></g></svg>