<svg xmlns="http://www.w3.org/2000/svg" xmlns:xlink="http://www.w3.org/1999/xlink" width="60" zoomAndPan="magnify" viewBox="0 0 45 44.999999" height="60" preserveAspectRatio="xMidYMid meet" version="1.0"><defs><clipPath id="1f60f84dc6"><path d="M 4.5 8 L 9 8 L 9 16 L 4.5 16 Z M 4.5 8 " clip-rule="nonzero"/></clipPath><clipPath id="9c9c3b9616"><path d="M 5 14 L 40.5 14 L 40.5 36 L 5 36 Z M 5 14 " clip-rule="nonzero"/></clipPath><clipPath id="c28cf7c6cc"><path d="M 4.5 12 L 40.5 12 L 40.5 17 L 4.5 17 Z M 4.5 12 " clip-rule="nonzero"/></clipPath><clipPath id="027c367860"><path d="M 34 12 L 40.5 12 L 40.5 16 L 34 16 Z M 34 12 " clip-rule="nonzero"/></clipPath><clipPath id="63696555bb"><path d="M 4.5 4.5 L 40.5 4.5 L 40.5 13 L 4.5 13 Z M 4.5 4.5 " clip-rule="nonzero"/></clipPath><clipPath id="6dd6ee6fca"><path d="M 34 4.5 L 40 4.5 L 40 9 L 34 9 Z M 34 4.5 " clip-rule="nonzero"/></clipPath><clipPath id="ca7da54456"><path d="M 4.5 8 L 9 8 L 9 13 L 4.5 13 Z M 4.5 8 " clip-rule="nonzero"/></clipPath><clipPath id="2fd1492d72"><path d="M 4.5 16 L 40.5 16 L 40.5 17 L 4.5 17 Z M 4.5 16 " clip-rule="nonzero"/></clipPath></defs><g clip-path="url(#1f60f84dc6)"><path fill="#787675" d="M 4.972656 9.652344 L 4.972656 14.9375 C 4.972656 15.148438 5.046875 15.332031 5.199219 15.484375 C 5.351562 15.636719 5.535156 15.710938 5.75 15.710938 L 7.90625 15.710938 C 8.121094 15.710938 8.304688 15.636719 8.457031 15.484375 C 8.609375 15.332031 8.6875 15.148438 8.6875 14.9375 L 8.6875 9.652344 C 8.6875 9.4375 8.609375 9.257812 8.457031 9.105469 C 8.304688 8.953125 8.121094 8.878906 7.90625 8.878906 L 5.75 8.878906 C 5.535156 8.878906 5.351562 8.953125 5.199219 9.105469 C 5.046875 9.257812 4.972656 9.4375 4.972656 9.652344 " fill-opacity="1" fill-rule="evenodd"/></g><g clip-path="url(#9c9c3b9616)"><path fill="#787675" d="M 5.765625 14.878906 L 39.644531 14.878906 C 39.832031 14.878906 39.988281 14.945312 40.121094 15.078125 C 40.25 15.207031 40.316406 15.367188 40.316406 15.550781 L 40.316406 35.246094 C 40.316406 35.433594 40.25 35.589844 40.121094 35.722656 C 39.988281 35.851562 39.832031 35.917969 39.644531 35.917969 L 5.765625 35.917969 C 5.582031 35.917969 5.421875 35.851562 5.292969 35.722656 C 5.160156 35.589844 5.09375 35.433594 5.09375 35.246094 L 5.09375 15.550781 C 5.09375 15.367188 5.160156 15.207031 5.292969 15.078125 C 5.421875 14.945312 5.582031 14.878906 5.765625 14.878906 " fill-opacity="1" fill-rule="evenodd"/></g><g clip-path="url(#c28cf7c6cc)"><path fill="#787675" d="M 4.929688 12.511719 L 40.480469 12.511719 L 40.480469 16.203125 L 4.929688 16.203125 Z M 4.929688 12.511719 " fill-opacity="1" fill-rule="evenodd"/></g><path fill="#ffffff" d="M 8.699219 15.996094 L 12.101562 15.996094 L 13.890625 12.71875 L 10.492188 12.71875 Z M 8.699219 15.996094 " fill-opacity="1" fill-rule="evenodd"/><path fill="#ffffff" d="M 17.410156 15.996094 L 20.8125 15.996094 L 22.601562 12.71875 L 19.199219 12.71875 Z M 17.410156 15.996094 " fill-opacity="1" fill-rule="evenodd"/><path fill="#ffffff" d="M 26.121094 15.996094 L 29.523438 15.996094 L 31.3125 12.71875 L 27.910156 12.71875 Z M 26.121094 15.996094 " fill-opacity="1" fill-rule="evenodd"/><g clip-path="url(#027c367860)"><path fill="#ffffff" d="M 34.832031 15.996094 L 38.230469 15.996094 L 40.023438 12.71875 L 36.621094 12.71875 Z M 34.832031 15.996094 " fill-opacity="1" fill-rule="evenodd"/></g><g clip-path="url(#63696555bb)"><path fill="#787675" d="M 39.792969 4.5 L 4.515625 8.863281 L 4.972656 12.527344 L 40.253906 8.164062 Z M 39.792969 4.5 " fill-opacity="1" fill-rule="evenodd"/></g><g clip-path="url(#6dd6ee6fca)"><path fill="#ffffff" d="M 39.777344 8.015625 L 36.402344 8.433594 L 34.21875 5.398438 L 37.59375 4.980469 Z M 39.777344 8.015625 " fill-opacity="1" fill-rule="evenodd"/></g><path fill="#ffffff" d="M 31.132812 9.085938 L 27.757812 9.503906 L 25.574219 6.464844 L 28.949219 6.050781 Z M 31.132812 9.085938 " fill-opacity="1" fill-rule="evenodd"/><path fill="#ffffff" d="M 22.492188 10.152344 L 19.117188 10.570312 L 16.933594 7.535156 L 20.308594 7.117188 Z M 22.492188 10.152344 " fill-opacity="1" fill-rule="evenodd"/><path fill="#ffffff" d="M 13.847656 11.222656 L 10.472656 11.640625 L 8.289062 8.605469 L 11.664062 8.1875 Z M 13.847656 11.222656 " fill-opacity="1" fill-rule="evenodd"/><path fill="#ffffff" d="M 7.546875 10.257812 C 7.574219 10.460938 7.523438 10.644531 7.398438 10.804688 C 7.273438 10.96875 7.105469 11.0625 6.902344 11.085938 C 6.699219 11.113281 6.515625 11.0625 6.351562 10.933594 C 6.1875 10.808594 6.097656 10.644531 6.074219 10.4375 C 6.046875 10.234375 6.09375 10.050781 6.222656 9.890625 C 6.347656 9.726562 6.511719 9.632812 6.71875 9.609375 C 6.921875 9.582031 7.105469 9.632812 7.269531 9.761719 C 7.429688 9.886719 7.523438 10.050781 7.546875 10.257812 Z M 7.546875 10.257812 " fill-opacity="1" fill-rule="evenodd"/><g clip-path="url(#ca7da54456)"><path stroke-linecap="butt" transform="matrix(0.0516177, -0.00638407, 0.00642306, 0.0513043, -0.0213597, 2.435712)" fill="none" stroke-linejoin="miter" d="M 125.702512 168.106787 C 125.739016 172.070552 124.331716 175.473962 121.564466 178.251313 C 118.787885 181.103641 115.359494 182.504361 111.428337 182.472019 C 107.48785 182.514655 104.106575 181.104098 101.28451 178.24035 C 98.453116 175.451579 97.130951 172.089221 97.1783 168.059751 C 97.141796 164.095986 98.474573 160.683303 101.316347 157.915225 C 104.092927 155.062897 107.446796 153.652903 111.452475 153.694519 C 115.392962 153.651883 118.774238 155.062439 121.596302 157.926188 C 124.353173 160.705686 125.749861 164.077317 125.702512 168.106787 Z M 125.702512 168.106787 " stroke="#ffffff" stroke-width="4" stroke-opacity="1" stroke-miterlimit="4"/></g><g clip-path="url(#2fd1492d72)"><path stroke-linecap="butt" transform="matrix(0.0749832, 0, 0, 0.0749832, -5.412503, -16.714251)" fill="none" stroke-linejoin="miter" d="M 137.874653 439.048686 L 612.043275 439.048686 " stroke="#cccccc" stroke-width="0.692" stroke-opacity="1" stroke-miterlimit="4"/></g><path stroke-linecap="butt" transform="matrix(0.0520159, 0, 0, 0.0517002, 1.097315, -2.136764)" fill="none" stroke-linejoin="miter" d="M 104.091395 618.349792 L 726.722932 618.349792 " stroke="#ffffff" stroke-width="4" stroke-opacity="1" stroke-miterlimit="4"/><path stroke-linecap="butt" transform="matrix(0.0520159, 0, 0, 0.0517002, 0.0162818, -2.136764)" fill="none" stroke-linejoin="miter" d="M 307.961313 713.172359 L 307.961313 619.332018 " stroke="#ffffff" stroke-width="4" stroke-opacity="1" stroke-miterlimit="4"/><path stroke-linecap="butt" transform="matrix(0.0520159, 0, 0, 0.0517002, 0.0162818, -2.136764)" fill="none" stroke-linejoin="miter" d="M 564.418519 713.172359 L 564.418519 619.332018 " stroke="#ffffff" stroke-width="4" stroke-opacity="1" stroke-miterlimit="4"/><path stroke-linecap="butt" transform="matrix(0.0520159, 0, 0, 0.0517002, 1.097315, -2.136764)" fill="none" stroke-linejoin="miter" d="M 104.091395 524.509451 L 726.722932 524.509451 " stroke="#ffffff" stroke-width="4" stroke-opacity="1" stroke-miterlimit="4"/><path stroke-linecap="butt" transform="matrix(0.0520159, 0, 0, 0.0517002, 1.097315, -2.136764)" fill="none" stroke-linejoin="miter" d="M 104.091395 430.593555 L 726.722932 430.593555 " stroke="#ffffff" stroke-width="4" stroke-opacity="1" stroke-miterlimit="4"/></svg>