<svg xmlns="http://www.w3.org/2000/svg" xmlns:xlink="http://www.w3.org/1999/xlink" width="60" zoomAndPan="magnify" viewBox="0 0 45 44.999999" height="60" preserveAspectRatio="xMidYMid meet" version="1.0"><defs><clipPath id="e0ca599051"><path d="M 6 12.679688 L 38.949219 12.679688 L 38.949219 34.429688 L 6 34.429688 Z M 6 12.679688 " clip-rule="nonzero"/></clipPath></defs><g clip-path="url(#e0ca599051)"><path fill="#ffffff" d="M 37.4375 22.667969 C 36.050781 17.382812 34.453125 13.902344 30.773438 12.902344 C 30.210938 12.753906 29.683594 12.679688 29.15625 12.679688 C 28.046875 12.679688 27.152344 13.011719 26.285156 13.335938 C 25.488281 13.632812 24.601562 13.960938 23.371094 14.070312 L 22.449219 14.097656 C 22.449219 14.101562 19.667969 13.695312 18.699219 13.332031 C 17.835938 13.011719 16.945312 12.675781 15.839844 12.675781 C 15.3125 12.675781 14.78125 12.75 14.222656 12.902344 C 10.539062 13.902344 8.941406 17.378906 7.558594 22.667969 C 5.957031 28.792969 6.398438 32.894531 8.773438 33.929688 C 9.160156 34.101562 9.570312 34.1875 9.984375 34.1875 C 12.097656 34.1875 14.042969 31.964844 15.460938 30.339844 L 15.847656 29.894531 C 17.003906 28.539062 19.429688 27.765625 22.496094 27.765625 C 25.832031 27.765625 27.886719 28.421875 29.144531 29.894531 L 29.53125 30.34375 C 30.949219 31.964844 32.890625 34.183594 35.007812 34.183594 C 35.425781 34.183594 35.832031 34.101562 36.214844 33.929688 C 38.59375 32.898438 39.035156 28.792969 37.4375 22.667969 Z M 17.449219 23.082031 L 15.859375 23.082031 L 15.859375 24.617188 C 15.859375 25.183594 15.363281 25.65625 14.777344 25.65625 C 14.191406 25.65625 13.695312 25.183594 13.695312 24.617188 L 13.695312 23.082031 L 12.203125 23.082031 C 11.640625 23.082031 11.167969 22.585938 11.167969 22 C 11.167969 21.410156 11.640625 20.914062 12.203125 20.914062 L 13.695312 20.914062 L 13.695312 19.375 C 13.695312 18.8125 14.191406 18.335938 14.777344 18.335938 C 15.363281 18.335938 15.859375 18.8125 15.859375 19.375 L 15.859375 20.914062 L 17.449219 20.914062 C 18.007812 20.914062 18.484375 21.410156 18.484375 22 C 18.484375 22.585938 18.007812 23.082031 17.449219 23.082031 Z M 28.714844 24.96875 C 27.835938 24.96875 27.121094 24.253906 27.121094 23.375 C 27.121094 22.496094 27.835938 21.785156 28.714844 21.785156 C 29.589844 21.785156 30.304688 22.496094 30.304688 23.375 C 30.304688 24.253906 29.589844 24.96875 28.714844 24.96875 Z M 31.683594 21.996094 C 30.804688 21.996094 30.09375 21.28125 30.09375 20.40625 C 30.09375 19.527344 30.804688 18.8125 31.683594 18.8125 C 32.5625 18.8125 33.277344 19.527344 33.277344 20.40625 C 33.277344 21.28125 32.5625 21.996094 31.683594 21.996094 Z M 31.683594 21.996094 " fill-opacity="1" fill-rule="nonzero"/></g></svg>