<svg xmlns="http://www.w3.org/2000/svg" xmlns:xlink="http://www.w3.org/1999/xlink" width="60" zoomAndPan="magnify" viewBox="0 0 45 44.999999" height="60" preserveAspectRatio="xMidYMid meet" version="1.0"><defs><clipPath id="c7d153f15c"><path d="M 4.5 4.5 L 41.25 4.5 L 41.25 40.5 L 4.5 40.5 Z M 4.5 4.5 " clip-rule="nonzero"/></clipPath></defs><g clip-path="url(#c7d153f15c)"><path fill="#ffffff" d="M 41.054688 15.628906 L 40.5625 15.628906 L 40.5625 14.867188 C 40.5625 14.144531 39.976562 13.554688 39.253906 13.554688 L 37.699219 13.554688 L 37.699219 7.230469 C 37.699219 5.722656 36.476562 4.5 34.972656 4.5 L 11.078125 4.5 C 9.574219 4.5 8.351562 5.722656 8.351562 7.230469 L 8.351562 13.554688 L 6.796875 13.554688 C 6.074219 13.554688 5.488281 14.144531 5.488281 14.867188 L 5.488281 15.628906 L 4.996094 15.628906 C 4.726562 15.628906 4.507812 15.847656 4.507812 16.121094 L 4.507812 20.59375 C 4.507812 20.863281 4.726562 21.085938 4.996094 21.085938 L 6.851562 21.085938 C 7.121094 21.085938 7.34375 20.863281 7.34375 20.59375 L 7.34375 16.121094 C 7.34375 15.847656 7.121094 15.628906 6.851562 15.628906 L 6.359375 15.628906 L 6.359375 14.867188 C 6.359375 14.625 6.554688 14.429688 6.796875 14.429688 L 8.351562 14.429688 L 8.351562 35.8125 C 8.351562 36.941406 9.039062 37.910156 10.015625 38.324219 L 10.015625 40.066406 C 10.015625 40.308594 10.210938 40.503906 10.453125 40.503906 L 13.726562 40.503906 C 13.964844 40.503906 14.160156 40.308594 14.160156 40.066406 L 14.160156 38.539062 L 32 38.539062 L 32 40.066406 C 32 40.308594 32.195312 40.503906 32.4375 40.503906 L 35.707031 40.503906 C 35.949219 40.503906 36.144531 40.308594 36.144531 40.066406 L 36.144531 38.273438 C 37.066406 37.835938 37.699219 36.898438 37.699219 35.8125 L 37.699219 14.429688 L 39.253906 14.429688 C 39.496094 14.429688 39.691406 14.625 39.691406 14.867188 L 39.691406 15.628906 L 39.199219 15.628906 C 38.929688 15.628906 38.710938 15.847656 38.710938 16.121094 L 38.710938 20.59375 C 38.710938 20.863281 38.929688 21.085938 39.199219 21.085938 L 41.054688 21.085938 C 41.324219 21.085938 41.546875 20.863281 41.546875 20.59375 L 41.546875 16.121094 C 41.542969 15.847656 41.324219 15.628906 41.054688 15.628906 Z M 13.695312 6.136719 L 32.351562 6.136719 C 32.652344 6.136719 32.898438 6.382812 32.898438 6.683594 L 32.898438 8.863281 C 32.898438 9.195312 32.628906 9.464844 32.296875 9.464844 L 13.75 9.464844 C 13.421875 9.464844 13.152344 9.195312 13.152344 8.863281 L 13.152344 6.683594 C 13.152344 6.382812 13.394531 6.136719 13.695312 6.136719 Z M 9.878906 12.738281 C 9.878906 11.984375 10.488281 11.375 11.242188 11.375 L 34.808594 11.375 C 35.5625 11.375 36.171875 11.984375 36.171875 12.738281 L 36.171875 27.246094 C 36.171875 28 35.5625 28.613281 34.808594 28.613281 L 11.242188 28.613281 C 10.488281 28.613281 9.878906 28 9.878906 27.246094 Z M 16.179688 33.738281 C 16.179688 34.070312 15.910156 34.339844 15.578125 34.339844 L 10.453125 34.339844 C 10.121094 34.339844 9.851562 34.070312 9.851562 33.738281 L 9.851562 31.886719 C 9.851562 31.554688 10.121094 31.285156 10.453125 31.285156 L 15.578125 31.285156 C 15.910156 31.285156 16.179688 31.554688 16.179688 31.886719 Z M 27.417969 36.957031 C 27.417969 37.167969 27.246094 37.339844 27.035156 37.339844 L 19.398438 37.339844 C 19.1875 37.339844 19.015625 37.167969 19.015625 36.957031 L 19.015625 35.757812 C 19.015625 35.546875 19.1875 35.375 19.398438 35.375 L 27.035156 35.375 C 27.246094 35.375 27.417969 35.546875 27.417969 35.757812 Z M 36.472656 33.738281 C 36.472656 34.070312 36.203125 34.339844 35.871094 34.339844 L 30.742188 34.339844 C 30.414062 34.339844 30.144531 34.070312 30.144531 33.738281 L 30.144531 31.886719 C 30.144531 31.554688 30.414062 31.285156 30.742188 31.285156 L 35.871094 31.285156 C 36.203125 31.285156 36.472656 31.554688 36.472656 31.886719 Z M 36.472656 33.738281 " fill-opacity="1" fill-rule="nonzero"/></g></svg>