<svg xmlns="http://www.w3.org/2000/svg" xmlns:xlink="http://www.w3.org/1999/xlink" width="60" zoomAndPan="magnify" viewBox="0 0 45 44.999999" height="60" preserveAspectRatio="xMidYMid meet" version="1.0"><defs><clipPath id="29c7125eca"><path d="M 5.363281 3 L 40.613281 3 L 40.613281 40.417969 L 5.363281 40.417969 Z M 5.363281 3 " clip-rule="nonzero"/></clipPath></defs><g clip-path="url(#29c7125eca)"><path fill="#ffffff" d="M 18.617188 37.9375 L 9.496094 38.019531 C 9.402344 38.03125 9.328125 38.121094 9.328125 38.214844 L 9.34375 39.992188 C 9.359375 40.085938 9.445312 40.160156 9.542969 40.160156 C 12.570312 40.132812 15.605469 40.109375 18.636719 40.082031 C 18.742188 40.082031 18.832031 39.988281 18.832031 39.882812 L 18.8125 38.109375 C 18.800781 38.011719 18.714844 37.9375 18.617188 37.9375 Z M 34.003906 18.941406 C 34.402344 18.929688 34.722656 18.597656 34.722656 18.199219 L 34.722656 17.652344 L 29.253906 17.652344 L 29.253906 18.199219 C 29.253906 18.605469 29.589844 18.941406 30 18.941406 L 30.023438 18.941406 L 30.023438 19.417969 L 28.585938 19.417969 C 28.25 19.417969 27.980469 19.6875 27.980469 20.023438 L 27.980469 23.757812 C 27.53125 23.980469 27.222656 24.445312 27.222656 24.980469 C 27.222656 25.734375 27.832031 26.34375 28.585938 26.34375 C 29.339844 26.34375 29.949219 25.734375 29.949219 24.980469 C 29.949219 24.445312 29.640625 23.980469 29.191406 23.757812 L 29.191406 20.628906 L 30.789062 20.628906 L 30.789062 20.765625 C 30.789062 21.175781 31.121094 21.511719 31.53125 21.511719 L 32.496094 21.511719 C 32.90625 21.511719 33.242188 21.175781 33.242188 20.765625 L 33.242188 20.273438 L 33.261719 20.273438 C 33.667969 20.273438 34.003906 19.9375 34.003906 19.527344 Z M 25.523438 28.855469 C 24.769531 28.855469 24.160156 28.246094 24.160156 27.492188 C 24.160156 26.957031 24.46875 26.492188 24.917969 26.269531 L 24.917969 15.835938 C 24.917969 15.5 25.191406 15.230469 25.523438 15.230469 L 28.984375 15.230469 C 28.457031 13.253906 27.410156 12.945312 27.410156 10.90625 C 27.410156 8.375 29.460938 6.328125 31.988281 6.328125 C 34.519531 6.328125 36.566406 8.375 36.566406 10.90625 C 36.566406 13.304688 35.125 13.304688 34.773438 16.441406 L 33.386719 16.441406 L 33.386719 12.609375 L 33.84375 12.609375 C 34.761719 12.609375 35.511719 11.859375 35.511719 10.941406 C 35.511719 10.019531 34.761719 9.269531 33.84375 9.269531 C 32.925781 9.269531 32.175781 10.019531 32.175781 10.941406 L 32.175781 11.398438 L 31.804688 11.398438 L 31.804688 10.941406 C 31.804688 10.019531 31.054688 9.269531 30.132812 9.269531 C 29.214844 9.269531 28.464844 10.019531 28.464844 10.941406 C 28.464844 11.859375 29.214844 12.609375 30.132812 12.609375 L 30.59375 12.609375 L 30.59375 16.441406 L 26.128906 16.441406 L 26.128906 26.269531 C 26.578125 26.492188 26.886719 26.957031 26.886719 27.492188 C 26.886719 28.246094 26.277344 28.855469 25.523438 28.855469 Z M 32.175781 16.441406 L 32.175781 12.609375 L 31.804688 12.609375 L 31.804688 16.441406 Z M 30.59375 11.398438 L 30.59375 10.9375 C 30.59375 10.6875 30.386719 10.480469 30.132812 10.480469 C 29.882812 10.480469 29.675781 10.6875 29.675781 10.9375 C 29.675781 11.191406 29.882812 11.398438 30.132812 11.398438 Z M 33.386719 11.398438 L 33.84375 11.398438 C 34.097656 11.398438 34.304688 11.191406 34.304688 10.9375 C 34.304688 10.6875 34.097656 10.480469 33.84375 10.480469 C 33.59375 10.480469 33.386719 10.6875 33.386719 10.9375 Z M 16.714844 6.089844 C 17.273438 6.222656 17.808594 6.445312 18.300781 6.746094 L 19.328125 6.289062 L 20.542969 7.503906 L 20.085938 8.53125 C 20.386719 9.023438 20.609375 9.558594 20.742188 10.117188 L 21.792969 10.523438 L 21.792969 12.238281 L 20.742188 12.644531 C 20.609375 13.203125 20.386719 13.738281 20.085938 14.226562 L 20.375 14.882812 L 20.734375 14.882812 C 21.066406 14.882812 21.339844 15.152344 21.339844 15.488281 L 21.339844 26.699219 C 21.789062 26.925781 22.097656 27.386719 22.097656 27.921875 C 22.097656 28.675781 21.484375 29.285156 20.734375 29.285156 C 19.980469 29.285156 19.371094 28.675781 19.371094 27.921875 C 19.371094 27.386719 19.679688 26.921875 20.128906 26.699219 L 20.128906 16.09375 L 19.710938 16.09375 L 19.328125 16.472656 L 18.472656 16.09375 L 18.171875 16.09375 C 17.878906 16.261719 17.574219 16.402344 17.257812 16.511719 L 17.328125 16.511719 C 17.664062 16.511719 17.933594 16.785156 17.933594 17.117188 L 17.933594 21.460938 C 18.382812 21.683594 18.691406 22.148438 18.691406 22.683594 C 18.691406 23.433594 18.082031 24.046875 17.328125 24.046875 C 16.574219 24.046875 15.964844 23.433594 15.964844 22.683594 C 15.964844 22.148438 16.273438 21.683594 16.722656 21.460938 L 16.722656 17.722656 C 16.011719 17.722656 15.304688 17.722656 14.59375 17.722656 L 14.1875 16.671875 C 13.628906 16.539062 13.09375 16.316406 12.601562 16.015625 L 11.574219 16.472656 L 10.359375 15.257812 L 10.816406 14.226562 C 10.515625 13.738281 10.292969 13.203125 10.160156 12.644531 L 9.109375 12.238281 L 9.109375 10.523438 L 10.160156 10.117188 C 10.292969 9.558594 10.515625 9.023438 10.816406 8.53125 L 10.359375 7.503906 L 11.574219 6.289062 L 12.601562 6.746094 C 13.09375 6.445312 13.628906 6.222656 14.1875 6.089844 L 14.59375 5.039062 L 16.308594 5.039062 Z M 15.453125 8.125 C 13.652344 8.125 12.195312 9.582031 12.195312 11.378906 C 12.195312 13.179688 13.652344 14.636719 15.453125 14.636719 C 17.25 14.636719 18.707031 13.179688 18.707031 11.378906 C 18.707031 9.582031 17.25 8.125 15.453125 8.125 Z M 32.59375 4.777344 C 32.59375 5.113281 32.324219 5.382812 31.988281 5.382812 C 31.65625 5.382812 31.386719 5.113281 31.386719 4.777344 L 31.386719 3.699219 C 31.386719 3.367188 31.65625 3.09375 31.988281 3.09375 C 32.324219 3.09375 32.59375 3.367188 32.59375 3.699219 Z M 35.964844 6.003906 L 36.503906 5.070312 C 36.671875 4.78125 36.570312 4.414062 36.28125 4.246094 C 35.996094 4.082031 35.625 4.179688 35.460938 4.46875 L 34.921875 5.402344 C 34.753906 5.691406 34.855469 6.0625 35.144531 6.226562 C 35.429688 6.390625 35.800781 6.292969 35.964844 6.003906 Z M 38.273438 8.753906 C 37.984375 8.921875 37.617188 8.824219 37.449219 8.535156 C 37.28125 8.246094 37.378906 7.875 37.667969 7.710938 L 38.605469 7.171875 C 38.890625 7.003906 39.261719 7.101562 39.429688 7.390625 C 39.59375 7.679688 39.496094 8.046875 39.207031 8.214844 Z M 26.308594 7.710938 L 25.375 7.171875 C 25.085938 7.003906 24.71875 7.101562 24.550781 7.390625 C 24.382812 7.679688 24.484375 8.046875 24.769531 8.214844 L 25.707031 8.753906 C 25.992188 8.921875 26.363281 8.824219 26.53125 8.535156 C 26.699219 8.246094 26.597656 7.875 26.308594 7.710938 Z M 29.058594 5.402344 L 28.519531 4.46875 C 28.351562 4.179688 27.984375 4.082031 27.695312 4.246094 C 27.40625 4.414062 27.308594 4.785156 27.472656 5.070312 L 28.015625 6.007812 C 28.179688 6.296875 28.550781 6.394531 28.839844 6.226562 C 29.125 6.058594 29.226562 5.691406 29.058594 5.402344 Z M 27.238281 38.09375 L 36.359375 38.171875 C 36.453125 38.1875 36.53125 38.273438 36.527344 38.367188 C 36.523438 38.957031 36.515625 39.554688 36.511719 40.144531 C 36.496094 40.238281 36.410156 40.316406 36.316406 40.3125 L 27.21875 40.234375 C 27.113281 40.234375 27.023438 40.144531 27.027344 40.035156 L 27.042969 38.261719 C 27.058594 38.167969 27.144531 38.089844 27.238281 38.09375 Z M 28.925781 36.902344 L 28.917969 32.34375 C 28.914062 30.335938 29.273438 30.015625 30.710938 28.800781 C 31.730469 27.945312 33.023438 26.855469 34.09375 25.597656 C 34.472656 25.273438 35.039062 25.230469 35.40625 25.597656 C 35.820312 26.007812 35.726562 26.460938 35.402344 26.894531 C 34.59375 27.808594 33.695312 28.621094 32.835938 29.480469 C 32.601562 29.71875 32.601562 30.101562 32.835938 30.335938 C 33.074219 30.574219 33.457031 30.574219 33.691406 30.335938 C 34.746094 29.285156 35.84375 28.289062 36.785156 27.125 C 37.421875 26.339844 37.769531 25.457031 37.765625 24.4375 L 37.742188 18.152344 C 37.738281 17.367188 37.859375 15.398438 39.003906 15.363281 C 39.496094 15.347656 40.136719 15.769531 40.148438 16.285156 L 40.476562 27.855469 C 40.503906 28.78125 40.183594 29.496094 39.546875 30.152344 L 34.3125 35.386719 C 34.183594 35.515625 34.125 35.691406 34.140625 35.863281 L 34.140625 36.945312 Z M 28.585938 39.371094 C 28.699219 39.09375 28.5625 38.777344 28.28125 38.664062 C 28.003906 38.554688 27.6875 38.691406 27.578125 38.96875 C 27.464844 39.25 27.601562 39.566406 27.882812 39.675781 C 28.160156 39.789062 28.476562 39.652344 28.585938 39.371094 Z M 16.929688 36.746094 L 16.9375 32.191406 C 16.941406 30.242188 16.605469 29.878906 15.144531 28.648438 C 14.128906 27.792969 12.835938 26.703125 11.761719 25.441406 C 11.382812 25.121094 10.816406 25.078125 10.449219 25.445312 C 10.039062 25.855469 10.109375 26.324219 10.457031 26.742188 C 11.238281 27.675781 12.160156 28.46875 13.019531 29.328125 C 13.257812 29.566406 13.257812 29.949219 13.019531 30.183594 C 12.785156 30.421875 12.398438 30.421875 12.164062 30.183594 C 11.109375 29.128906 10.015625 28.132812 9.070312 26.972656 C 8.433594 26.1875 8.085938 25.300781 8.089844 24.285156 L 8.113281 18 C 8.117188 17.214844 7.996094 15.246094 6.855469 15.207031 C 6.359375 15.191406 5.722656 15.617188 5.707031 16.132812 L 5.378906 27.703125 C 5.351562 28.625 5.675781 29.34375 6.308594 30 L 11.542969 35.230469 C 11.675781 35.363281 11.734375 35.539062 11.71875 35.710938 L 11.71875 36.792969 Z M 17.269531 39.21875 C 17.15625 38.941406 17.292969 38.625 17.574219 38.511719 C 17.851562 38.402344 18.167969 38.539062 18.28125 38.816406 C 18.390625 39.097656 18.253906 39.414062 17.976562 39.523438 C 17.695312 39.632812 17.378906 39.496094 17.269531 39.21875 Z M 17.269531 39.21875 " fill-opacity="1" fill-rule="evenodd"/></g></svg>