<svg xmlns="http://www.w3.org/2000/svg" xmlns:xlink="http://www.w3.org/1999/xlink" width="60" zoomAndPan="magnify" viewBox="0 0 45 44.999999" height="60" preserveAspectRatio="xMidYMid meet" version="1.0"><defs><clipPath id="886b5d0eba"><path d="M 4.5 25 L 9 25 L 9 36 L 4.5 36 Z M 4.5 25 " clip-rule="nonzero"/></clipPath><clipPath id="07bc786932"><path d="M 36 25 L 40.5 25 L 40.5 36 L 36 36 Z M 36 25 " clip-rule="nonzero"/></clipPath><clipPath id="98f77b93c4"><path d="M 21 39 L 23 39 L 23 40.5 L 21 40.5 Z M 21 39 " clip-rule="nonzero"/></clipPath><clipPath id="58616e949f"><path d="M 20 4.5 L 25 4.5 L 25 10 L 20 10 Z M 20 4.5 " clip-rule="nonzero"/></clipPath></defs><path fill="#ffffff" d="M 19.308594 35.875 C 19.308594 35.683594 19.230469 35.503906 19.097656 35.367188 C 18.960938 35.230469 18.78125 35.15625 18.589844 35.15625 C 18.398438 35.15625 18.21875 35.230469 18.082031 35.367188 L 16.160156 37.289062 C 16.023438 37.421875 15.949219 37.605469 15.949219 37.796875 C 15.949219 37.988281 16.023438 38.167969 16.160156 38.304688 C 16.296875 38.4375 16.476562 38.511719 16.667969 38.511719 C 16.859375 38.511719 17.039062 38.4375 17.175781 38.304688 L 19.097656 36.382812 C 19.230469 36.246094 19.308594 36.066406 19.308594 35.875 " fill-opacity="1" fill-rule="nonzero"/><path fill="#ffffff" d="M 17.386719 33.953125 C 17.386719 33.761719 17.3125 33.582031 17.175781 33.445312 C 17.039062 33.3125 16.859375 33.238281 16.667969 33.238281 C 16.476562 33.238281 16.296875 33.3125 16.160156 33.445312 L 14.242188 35.367188 C 14.105469 35.503906 14.03125 35.683594 14.03125 35.875 C 14.03125 36.066406 14.105469 36.246094 14.242188 36.382812 C 14.375 36.519531 14.554688 36.59375 14.746094 36.59375 C 14.941406 36.59375 15.121094 36.519531 15.253906 36.382812 L 17.175781 34.460938 C 17.3125 34.328125 17.386719 34.144531 17.386719 33.953125 " fill-opacity="1" fill-rule="nonzero"/><path fill="#ffffff" d="M 14.824219 32.675781 C 14.824219 32.484375 14.75 32.300781 14.617188 32.167969 C 14.480469 32.03125 14.300781 31.957031 14.109375 31.957031 C 13.917969 31.957031 13.734375 32.03125 13.601562 32.167969 L 12.320312 33.445312 C 12.183594 33.582031 12.109375 33.761719 12.109375 33.953125 C 12.109375 34.144531 12.183594 34.328125 12.320312 34.460938 C 12.457031 34.597656 12.636719 34.671875 12.828125 34.671875 C 13.019531 34.671875 13.199219 34.597656 13.335938 34.460938 L 14.617188 33.183594 C 14.75 33.046875 14.824219 32.867188 14.824219 32.675781 " fill-opacity="1" fill-rule="nonzero"/><g clip-path="url(#886b5d0eba)"><path fill="#ffffff" d="M 7.707031 25.632812 L 5.144531 25.632812 C 4.792969 25.632812 4.503906 25.917969 4.503906 26.273438 L 4.503906 35.234375 C 4.503906 35.585938 4.792969 35.875 5.144531 35.875 L 7.707031 35.875 C 8.058594 35.875 8.347656 35.585938 8.347656 35.234375 L 8.347656 26.273438 C 8.347656 25.917969 8.058594 25.632812 7.707031 25.632812 " fill-opacity="1" fill-rule="nonzero"/></g><path fill="#ffffff" d="M 24.949219 30.339844 L 22.824219 32.113281 C 22.367188 32.492188 21.8125 32.683594 21.257812 32.683594 C 20.632812 32.683594 20.011719 32.441406 19.53125 31.960938 C 19.046875 31.476562 18.789062 30.808594 18.820312 30.125 C 18.851562 29.441406 19.167969 28.796875 19.695312 28.359375 L 23.734375 24.992188 L 19.4375 24.992188 C 19.367188 24.992188 19.300781 25.003906 19.234375 25.023438 L 13.867188 26.8125 C 13.671875 26.878906 13.46875 26.914062 13.261719 26.914062 C 13.261719 26.914062 13.257812 26.914062 13.257812 26.914062 L 9.625 26.90625 L 9.625 33.949219 L 10.832031 33.953125 C 10.832031 33.441406 11.027344 32.929688 11.414062 32.542969 L 12.695312 31.261719 C 13.472656 30.480469 14.742188 30.480469 15.519531 31.261719 C 15.753906 31.496094 15.917969 31.773438 16.011719 32.066406 C 16.21875 31.996094 16.441406 31.957031 16.667969 31.957031 C 17.203125 31.957031 17.703125 32.164062 18.082031 32.542969 C 18.441406 32.902344 18.644531 33.375 18.664062 33.878906 C 19.167969 33.898438 19.640625 34.101562 20 34.460938 C 20.363281 34.820312 20.566406 35.292969 20.585938 35.800781 C 21.070312 35.816406 21.550781 36.011719 21.921875 36.382812 C 22.261719 36.722656 22.453125 37.152344 22.496094 37.597656 L 23.203125 38.304688 L 24.484375 39.582031 C 24.617188 39.71875 24.796875 39.792969 24.992188 39.792969 C 25.183594 39.792969 25.363281 39.71875 25.496094 39.582031 C 25.632812 39.449219 25.707031 39.265625 25.707031 39.074219 C 25.707031 38.882812 25.632812 38.703125 25.496094 38.566406 L 22.617188 35.6875 L 23.523438 34.78125 L 27.042969 38.304688 C 27.324219 38.582031 27.777344 38.582031 28.058594 38.304688 C 28.339844 38.023438 28.339844 37.566406 28.058594 37.289062 L 23.898438 33.125 L 24.800781 32.222656 L 29.605469 37.023438 C 29.882812 37.300781 30.339844 37.300781 30.617188 37.023438 C 30.898438 36.742188 30.898438 36.289062 30.617188 36.007812 L 24.949219 30.339844 " fill-opacity="1" fill-rule="nonzero"/><path fill="#ffffff" d="M 21.015625 37.289062 C 20.882812 37.152344 20.699219 37.078125 20.507812 37.078125 C 20.316406 37.078125 20.136719 37.152344 20 37.289062 L 18.722656 38.566406 C 18.585938 38.703125 18.511719 38.882812 18.511719 39.074219 C 18.511719 39.265625 18.585938 39.449219 18.722656 39.582031 C 18.855469 39.71875 19.039062 39.792969 19.230469 39.792969 C 19.421875 39.792969 19.601562 39.71875 19.738281 39.582031 L 21.015625 38.304688 C 21.152344 38.167969 21.226562 37.988281 21.226562 37.796875 C 21.226562 37.605469 21.152344 37.421875 21.015625 37.289062 " fill-opacity="1" fill-rule="nonzero"/><path fill="#ffffff" d="M 32.882812 26.796875 L 28.558594 25.226562 C 27.226562 24.742188 25.71875 25.003906 24.628906 25.910156 L 20.515625 29.339844 C 20.261719 29.554688 20.113281 29.851562 20.097656 30.183594 C 20.082031 30.511719 20.203125 30.824219 20.4375 31.058594 C 20.867188 31.484375 21.539062 31.515625 22.003906 31.128906 L 25.03125 28.605469 L 25.441406 29.019531 C 26.671875 30.25 28.621094 30.359375 29.980469 29.273438 L 30.351562 28.972656 L 31.152344 29.972656 L 30.777344 30.273438 C 29.878906 30.988281 28.792969 31.328125 27.71875 31.296875 L 31.015625 34.59375 L 33.179688 34.589844 C 33.558594 34.585938 33.925781 34.476562 34.238281 34.265625 L 35.234375 33.605469 L 35.234375 26.914062 L 33.539062 26.914062 C 33.3125 26.914062 33.09375 26.875 32.882812 26.796875 " fill-opacity="1" fill-rule="nonzero"/><g clip-path="url(#07bc786932)"><path fill="#ffffff" d="M 39.714844 25.632812 L 37.152344 25.632812 C 36.800781 25.632812 36.511719 25.917969 36.511719 26.273438 L 36.511719 35.234375 C 36.511719 35.585938 36.800781 35.875 37.152344 35.875 L 39.714844 35.875 C 40.066406 35.875 40.355469 35.585938 40.355469 35.234375 L 40.355469 26.273438 C 40.355469 25.917969 40.066406 25.632812 39.714844 25.632812 " fill-opacity="1" fill-rule="nonzero"/></g><g clip-path="url(#98f77b93c4)"><path fill="#ffffff" d="M 22.097656 39.007812 C 22.042969 39.078125 21.984375 39.144531 21.921875 39.207031 L 21.09375 40.035156 L 21.28125 40.222656 C 21.5625 40.503906 22.015625 40.503906 22.296875 40.222656 C 22.578125 39.941406 22.578125 39.488281 22.296875 39.207031 L 22.097656 39.007812 " fill-opacity="1" fill-rule="nonzero"/></g><path fill="#ffffff" d="M 30.996094 13.460938 L 31.148438 13.15625 L 22.429688 9.671875 L 13.710938 13.15625 L 13.863281 13.460938 L 30.996094 13.460938 " fill-opacity="1" fill-rule="nonzero"/><g clip-path="url(#58616e949f)"><path fill="#ffffff" d="M 24.351562 9.058594 L 24.351562 7.699219 C 24.351562 6.867188 23.816406 6.15625 23.070312 5.890625 L 23.070312 4.5 L 21.789062 4.5 L 21.789062 5.890625 C 21.042969 6.15625 20.507812 6.867188 20.507812 7.699219 L 20.507812 9.058594 L 22.429688 8.292969 L 24.351562 9.058594 " fill-opacity="1" fill-rule="nonzero"/></g><path fill="#ffffff" d="M 31.390625 21.144531 L 30.75 21.144531 L 30.75 14.742188 L 29.472656 14.742188 L 29.472656 21.144531 L 28.191406 21.144531 L 28.191406 14.742188 L 26.910156 14.742188 L 26.910156 21.144531 L 25.628906 21.144531 L 25.628906 14.742188 L 24.351562 14.742188 L 24.351562 21.144531 L 23.070312 21.144531 L 23.070312 14.742188 L 21.789062 14.742188 L 21.789062 21.144531 L 20.507812 21.144531 L 20.507812 14.742188 L 19.230469 14.742188 L 19.230469 21.144531 L 17.949219 21.144531 L 17.949219 14.742188 L 16.667969 14.742188 L 16.667969 21.144531 L 15.386719 21.144531 L 15.386719 14.742188 L 14.109375 14.742188 L 14.109375 21.144531 L 13.46875 21.144531 L 13.46875 22.425781 L 31.390625 22.425781 L 31.390625 21.144531 " fill-opacity="1" fill-rule="nonzero"/></svg>