<svg xmlns="http://www.w3.org/2000/svg" xmlns:xlink="http://www.w3.org/1999/xlink" width="60" zoomAndPan="magnify" viewBox="0 0 45 44.999999" height="60" preserveAspectRatio="xMidYMid meet" version="1.0"><defs><clipPath id="d27432d42e"><path d="M 10 7.035156 L 35 7.035156 L 35 32 L 10 32 Z M 10 7.035156 " clip-rule="nonzero"/></clipPath><clipPath id="3f810bcfef"><path d="M 33 31 L 40.5 31 L 40.5 39.285156 L 33 39.285156 Z M 33 31 " clip-rule="nonzero"/></clipPath><clipPath id="f7013e80ab"><path d="M 31 22 L 40.5 22 L 40.5 30 L 31 30 Z M 31 22 " clip-rule="nonzero"/></clipPath><clipPath id="9981b2edee"><path d="M 4.5 22 L 15 22 L 15 30 L 4.5 30 Z M 4.5 22 " clip-rule="nonzero"/></clipPath></defs><g clip-path="url(#d27432d42e)"><path fill="#ffffff" d="M 30.507812 28.210938 C 30.710938 28.035156 30.886719 27.871094 31.046875 27.707031 C 31.339844 27.410156 31.609375 27.109375 31.847656 26.8125 C 32.757812 25.695312 33.441406 24.464844 33.894531 23.179688 C 34.03125 22.789062 34.148438 22.394531 34.246094 21.996094 C 34.253906 21.960938 34.261719 21.925781 34.269531 21.890625 C 34.355469 21.523438 34.425781 21.148438 34.472656 20.777344 C 34.734375 18.871094 34.53125 16.925781 33.882812 15.101562 C 33.730469 14.683594 33.558594 14.269531 33.359375 13.867188 C 32.777344 12.667969 31.980469 11.542969 30.980469 10.554688 C 28.695312 8.28125 25.664062 7.035156 22.445312 7.035156 L 22.398438 7.035156 C 19.160156 7.046875 16.117188 8.320312 13.835938 10.621094 C 12.875 11.585938 12.113281 12.675781 11.546875 13.835938 C 11.347656 14.238281 11.175781 14.648438 11.027344 15.070312 C 10.375 16.890625 10.171875 18.839844 10.417969 20.742188 C 10.46875 21.117188 10.535156 21.492188 10.621094 21.859375 C 10.625 21.894531 10.632812 21.929688 10.644531 21.964844 C 10.734375 22.363281 10.851562 22.757812 10.988281 23.148438 C 11.570312 24.839844 12.539062 26.425781 13.890625 27.765625 C 14.339844 28.203125 14.816406 28.609375 15.308594 28.96875 C 15.332031 28.984375 15.355469 29 15.375 29.019531 C 15.449219 29.070312 15.519531 29.121094 15.59375 29.167969 C 15.921875 29.394531 16.257812 29.601562 16.597656 29.789062 C 20.234375 31.796875 24.613281 31.804688 28.25 29.804688 C 28.53125 29.652344 28.804688 29.488281 29.078125 29.308594 C 29.082031 29.308594 29.082031 29.304688 29.082031 29.304688 L 29.152344 29.261719 C 29.191406 29.238281 29.230469 29.214844 29.265625 29.1875 C 29.347656 29.132812 29.414062 29.085938 29.480469 29.039062 C 29.507812 29.019531 29.53125 29 29.558594 28.980469 C 29.765625 28.828125 29.96875 28.675781 30.164062 28.511719 C 30.261719 28.433594 30.359375 28.351562 30.445312 28.261719 C 30.46875 28.246094 30.488281 28.230469 30.507812 28.210938 Z M 30.257812 27.113281 C 30.242188 27.125 30.222656 27.140625 30.203125 27.160156 C 30.074219 27.285156 29.945312 27.40625 29.8125 27.523438 C 29.738281 27.589844 29.660156 27.65625 29.585938 27.71875 C 29.242188 28.007812 28.878906 28.273438 28.503906 28.515625 C 28.40625 28.578125 28.308594 28.640625 28.210938 28.699219 L 28.207031 28.699219 C 27.929688 28.875 27.628906 29.039062 27.316406 29.1875 L 27.308594 29.195312 C 27.308594 29.195312 27.296875 29.199219 27.289062 29.203125 C 27.144531 29.277344 26.992188 29.347656 26.835938 29.40625 C 26.730469 29.453125 26.625 29.496094 26.519531 29.539062 C 26.410156 29.582031 26.304688 29.625 26.195312 29.664062 C 25.539062 29.902344 24.84375 30.078125 24.125 30.183594 C 24.054688 30.195312 23.984375 30.203125 23.914062 30.210938 C 23.847656 30.222656 23.777344 30.230469 23.707031 30.238281 C 23.414062 30.273438 23.132812 30.296875 22.863281 30.304688 C 22.8125 30.304688 22.757812 30.308594 22.707031 30.308594 L 22.703125 30.308594 C 22.679688 30.308594 22.648438 30.308594 22.617188 30.308594 L 22.519531 30.308594 C 22.496094 30.308594 22.476562 30.308594 22.453125 30.308594 C 22.367188 30.308594 22.28125 30.308594 22.199219 30.304688 C 22.148438 30.304688 22.101562 30.304688 22.050781 30.300781 C 21.90625 30.296875 21.769531 30.289062 21.628906 30.277344 C 21.398438 30.257812 21.1875 30.238281 20.980469 30.210938 C 20.910156 30.203125 20.832031 30.191406 20.761719 30.183594 L 20.222656 30.085938 C 20.132812 30.070312 20.042969 30.050781 19.949219 30.03125 C 19.777344 29.992188 19.605469 29.945312 19.429688 29.894531 C 19.335938 29.871094 19.246094 29.839844 19.152344 29.8125 C 19.117188 29.800781 19.0625 29.785156 19.007812 29.761719 C 18.871094 29.726562 18.742188 29.679688 18.609375 29.628906 C 18.601562 29.625 18.589844 29.621094 18.582031 29.617188 C 18.570312 29.613281 18.554688 29.609375 18.542969 29.605469 C 18.40625 29.558594 18.246094 29.496094 18.085938 29.421875 L 18.058594 29.410156 C 18.042969 29.40625 18.027344 29.398438 18.015625 29.394531 C 17.914062 29.351562 17.808594 29.304688 17.703125 29.253906 L 17.621094 29.214844 L 17.59375 29.203125 C 17.59375 29.203125 17.574219 29.195312 17.566406 29.191406 C 17.550781 29.183594 17.535156 29.175781 17.519531 29.164062 C 17.480469 29.148438 17.441406 29.128906 17.402344 29.109375 C 17.386719 29.097656 17.371094 29.089844 17.351562 29.082031 C 17.3125 29.0625 17.273438 29.039062 17.234375 29.019531 C 17.230469 29.019531 17.230469 29.019531 17.230469 29.015625 C 17.191406 28.996094 17.15625 28.976562 17.117188 28.957031 C 17.050781 28.917969 16.972656 28.878906 16.898438 28.835938 C 16.859375 28.8125 16.820312 28.789062 16.785156 28.765625 C 16.746094 28.746094 16.707031 28.722656 16.671875 28.699219 C 16.65625 28.691406 16.640625 28.679688 16.625 28.667969 C 16.539062 28.621094 16.445312 28.5625 16.351562 28.5 C 16.316406 28.472656 16.28125 28.449219 16.246094 28.425781 C 16.242188 28.421875 16.234375 28.417969 16.230469 28.414062 C 16.085938 28.320312 15.9375 28.21875 15.785156 28.105469 C 15.632812 27.992188 15.476562 27.871094 15.320312 27.742188 L 15.316406 27.742188 C 15.089844 27.550781 14.878906 27.359375 14.671875 27.15625 C 14.664062 27.148438 14.65625 27.140625 14.648438 27.132812 C 14.644531 27.128906 14.640625 27.128906 14.636719 27.125 L 14.570312 27.058594 C 14.511719 27 14.457031 26.945312 14.402344 26.886719 C 13.316406 25.761719 12.519531 24.464844 12.003906 23.085938 C 11.863281 22.710938 11.746094 22.335938 11.648438 21.953125 C 11.640625 21.929688 11.636719 21.910156 11.632812 21.886719 C 11.535156 21.496094 11.457031 21.097656 11.402344 20.703125 C 11.28125 19.828125 11.265625 18.941406 11.351562 18.0625 C 11.386719 17.695312 11.441406 17.328125 11.515625 16.964844 C 11.5625 16.726562 11.617188 16.488281 11.683594 16.25 C 11.722656 16.082031 11.773438 15.910156 11.828125 15.746094 C 11.890625 15.546875 11.960938 15.351562 12.035156 15.160156 C 12.058594 15.097656 12.082031 15.035156 12.105469 14.976562 C 12.171875 14.8125 12.242188 14.648438 12.316406 14.484375 C 12.390625 14.328125 12.464844 14.171875 12.546875 14.015625 C 12.609375 13.890625 12.675781 13.769531 12.746094 13.648438 C 12.773438 13.601562 12.796875 13.558594 12.824219 13.515625 C 13.285156 12.726562 13.851562 11.984375 14.523438 11.304688 C 14.566406 11.261719 14.609375 11.21875 14.652344 11.175781 C 14.675781 11.15625 14.699219 11.132812 14.722656 11.109375 C 14.726562 11.109375 14.726562 11.109375 14.730469 11.105469 C 14.8125 11.023438 14.921875 10.921875 15.03125 10.824219 C 15.195312 10.679688 15.359375 10.539062 15.53125 10.40625 C 15.699219 10.269531 15.875 10.140625 16.050781 10.019531 C 16.195312 9.917969 16.335938 9.820312 16.484375 9.730469 C 16.703125 9.59375 16.925781 9.460938 17.152344 9.34375 C 17.285156 9.265625 17.433594 9.191406 17.582031 9.121094 C 17.746094 9.039062 17.90625 8.964844 18.066406 8.902344 C 18.066406 8.902344 18.085938 8.894531 18.09375 8.890625 C 18.132812 8.871094 18.171875 8.855469 18.214844 8.839844 C 18.246094 8.824219 18.285156 8.8125 18.320312 8.796875 C 18.332031 8.792969 18.347656 8.785156 18.359375 8.78125 C 18.496094 8.726562 18.613281 8.6875 18.730469 8.644531 L 18.816406 8.613281 C 18.972656 8.558594 19.117188 8.511719 19.253906 8.476562 C 19.40625 8.429688 19.574219 8.382812 19.738281 8.34375 C 19.820312 8.320312 19.941406 8.289062 20.070312 8.269531 C 20.09375 8.261719 20.121094 8.253906 20.148438 8.246094 C 20.179688 8.242188 20.207031 8.234375 20.238281 8.226562 C 20.242188 8.230469 20.242188 8.226562 20.242188 8.226562 C 20.273438 8.222656 20.304688 8.214844 20.339844 8.210938 L 20.34375 8.210938 C 20.378906 8.203125 20.414062 8.195312 20.449219 8.191406 C 20.597656 8.164062 20.726562 8.136719 20.859375 8.125 C 20.972656 8.109375 21.125 8.085938 21.269531 8.078125 C 22.949219 7.894531 24.628906 8.09375 26.1875 8.652344 C 26.523438 8.773438 26.855469 8.910156 27.179688 9.0625 C 28.316406 9.597656 29.371094 10.328125 30.289062 11.242188 L 30.292969 11.242188 C 30.359375 11.304688 30.425781 11.371094 30.488281 11.4375 C 30.554688 11.511719 30.625 11.582031 30.691406 11.65625 C 30.785156 11.761719 30.878906 11.871094 30.972656 11.980469 C 31.0625 12.089844 31.152344 12.199219 31.238281 12.308594 C 31.355469 12.457031 31.464844 12.609375 31.574219 12.761719 C 31.867188 13.171875 32.125 13.597656 32.355469 14.042969 C 32.546875 14.414062 32.714844 14.796875 32.863281 15.1875 C 33.335938 16.425781 33.582031 17.75 33.589844 19.117188 C 33.59375 19.664062 33.554688 20.207031 33.476562 20.738281 C 33.421875 21.136719 33.34375 21.53125 33.246094 21.917969 C 33.242188 21.941406 33.234375 21.964844 33.230469 21.984375 C 33.128906 22.367188 33.011719 22.746094 32.871094 23.113281 L 32.867188 23.113281 C 32.679688 23.613281 32.457031 24.089844 32.199219 24.554688 C 32.117188 24.710938 32.023438 24.859375 31.929688 25.011719 C 31.878906 25.101562 31.824219 25.1875 31.765625 25.273438 C 31.714844 25.351562 31.664062 25.425781 31.609375 25.5 C 31.558594 25.578125 31.503906 25.652344 31.449219 25.730469 C 31.441406 25.742188 31.433594 25.75 31.425781 25.761719 C 31.339844 25.878906 31.257812 25.988281 31.167969 26.097656 C 31.140625 26.128906 31.117188 26.164062 31.089844 26.195312 C 30.859375 26.476562 30.613281 26.753906 30.351562 27.015625 L 30.257812 27.109375 Z M 30.257812 27.113281 " fill-opacity="1" fill-rule="nonzero"/></g><g clip-path="url(#3f810bcfef)"><path fill="#ffffff" d="M 40.230469 37.539062 L 34.796875 32.144531 C 34.671875 32.023438 34.511719 31.957031 34.335938 31.957031 C 34.3125 31.953125 34.292969 31.953125 34.269531 31.957031 C 34.105469 31.960938 33.980469 32.039062 33.871094 32.148438 L 33.300781 32.722656 C 33.191406 32.832031 33.125 32.972656 33.113281 33.128906 C 33.109375 33.148438 33.109375 33.167969 33.109375 33.1875 C 33.109375 33.363281 33.179688 33.523438 33.304688 33.648438 L 38.738281 39.042969 C 38.992188 39.292969 39.410156 39.292969 39.664062 39.039062 L 40.234375 38.460938 C 40.488281 38.207031 40.484375 37.789062 40.230469 37.535156 Z M 40.230469 37.539062 " fill-opacity="1" fill-rule="nonzero"/></g><path fill="#ffffff" d="M 32.457031 31.140625 L 30.871094 29.5625 L 30.855469 29.546875 C 30.855469 29.546875 30.851562 29.554688 30.847656 29.554688 C 30.792969 29.601562 30.738281 29.640625 30.6875 29.683594 C 30.585938 29.761719 30.488281 29.835938 30.390625 29.910156 L 31.472656 30.988281 L 32.382812 31.890625 L 32.496094 32.003906 L 32.910156 31.582031 L 32.796875 31.472656 L 32.460938 31.140625 Z M 32.457031 31.140625 " fill-opacity="1" fill-rule="nonzero"/><g clip-path="url(#f7013e80ab)"><path fill="#ffffff" d="M 33.921875 29.964844 C 34.082031 29.960938 34.242188 29.949219 34.410156 29.9375 C 34.664062 29.917969 34.914062 29.890625 35.164062 29.851562 C 36.011719 29.726562 36.820312 29.496094 37.574219 29.160156 C 37.695312 29.109375 37.804688 29.058594 37.914062 29.007812 L 38.003906 28.96875 C 38.257812 28.839844 38.527344 28.691406 38.792969 28.535156 C 39.21875 28.277344 39.628906 27.984375 40.019531 27.660156 C 40.136719 27.5625 40.253906 27.457031 40.367188 27.351562 C 40.085938 26.074219 39.453125 24.917969 38.519531 23.984375 C 37.851562 23.316406 37.046875 22.789062 36.175781 22.445312 C 35.898438 22.625 35.601562 22.773438 35.292969 22.890625 C 34.804688 24.558594 33.980469 26.160156 32.8125 27.59375 C 32.550781 27.917969 32.253906 28.25 31.929688 28.578125 C 31.882812 28.625 31.832031 28.671875 31.785156 28.71875 L 33.015625 29.945312 C 33.167969 29.953125 33.296875 29.960938 33.429688 29.964844 Z M 33.921875 29.964844 " fill-opacity="1" fill-rule="nonzero"/></g><path fill="#ffffff" d="M 31.332031 23.535156 C 31.460938 23.273438 31.578125 23.007812 31.679688 22.742188 C 31.492188 22.65625 31.316406 22.558594 31.144531 22.445312 C 30.453125 22.71875 29.816406 23.097656 29.261719 23.5625 C 29.632812 24.136719 29.925781 24.753906 30.136719 25.402344 C 30.140625 25.398438 30.144531 25.394531 30.144531 25.394531 C 30.199219 25.328125 30.25 25.261719 30.296875 25.199219 C 30.351562 25.132812 30.398438 25.066406 30.449219 25 C 30.496094 24.933594 30.542969 24.863281 30.589844 24.796875 C 30.660156 24.695312 30.730469 24.59375 30.796875 24.492188 C 30.925781 24.285156 31.050781 24.074219 31.167969 23.863281 C 31.222656 23.753906 31.277344 23.644531 31.332031 23.535156 Z M 31.332031 23.535156 " fill-opacity="1" fill-rule="nonzero"/><path fill="#ffffff" d="M 35.699219 20.992188 C 35.683594 21.097656 35.671875 21.203125 35.652344 21.304688 C 35.757812 21.230469 35.859375 21.148438 35.953125 21.0625 C 36.648438 20.4375 37.085938 19.53125 37.085938 18.523438 C 37.085938 17.234375 36.375 16.109375 35.320312 15.523438 C 35.65625 16.710938 35.828125 17.933594 35.828125 19.160156 C 35.828125 19.773438 35.785156 20.382812 35.699219 20.992188 Z M 35.699219 20.992188 " fill-opacity="1" fill-rule="nonzero"/><path fill="#ffffff" d="M 32.054688 21.546875 C 32.113281 21.324219 32.160156 21.09375 32.195312 20.867188 C 32.496094 19.144531 32.339844 17.355469 31.722656 15.699219 C 30.824219 16.316406 30.234375 17.351562 30.234375 18.523438 C 30.234375 19.527344 30.671875 20.433594 31.367188 21.0625 C 31.574219 21.25 31.804688 21.414062 32.054688 21.546875 Z M 32.054688 21.546875 " fill-opacity="1" fill-rule="nonzero"/><path fill="#ffffff" d="M 22.4375 21.050781 C 23.320312 21.050781 24.125 20.714844 24.734375 20.167969 C 25.425781 19.539062 25.863281 18.632812 25.863281 17.625 C 25.863281 15.734375 24.328125 14.199219 22.4375 14.199219 C 20.550781 14.199219 19.011719 15.734375 19.011719 17.625 C 19.011719 18.632812 19.449219 19.539062 20.144531 20.167969 C 20.753906 20.714844 21.558594 21.050781 22.4375 21.050781 Z M 22.4375 21.050781 " fill-opacity="1" fill-rule="nonzero"/><path fill="#ffffff" d="M 27.613281 23.429688 C 27.511719 23.3125 27.40625 23.199219 27.296875 23.089844 C 26.628906 22.421875 25.824219 21.894531 24.953125 21.550781 C 24.226562 22.023438 23.363281 22.292969 22.4375 22.292969 C 21.515625 22.292969 20.652344 22.019531 19.925781 21.550781 C 18.886719 21.957031 17.980469 22.601562 17.273438 23.410156 C 16.992188 23.730469 16.742188 24.074219 16.523438 24.441406 C 16.160156 25.058594 15.890625 25.734375 15.730469 26.449219 C 15.808594 26.527344 15.890625 26.597656 15.96875 26.667969 C 16.015625 26.707031 16.0625 26.746094 16.109375 26.785156 C 16.175781 26.84375 16.246094 26.898438 16.316406 26.953125 C 16.523438 27.113281 16.726562 27.261719 16.933594 27.394531 C 17.058594 27.480469 17.171875 27.554688 17.285156 27.621094 C 17.292969 27.625 17.296875 27.632812 17.308594 27.636719 C 17.359375 27.667969 17.410156 27.699219 17.453125 27.722656 C 17.457031 27.722656 17.457031 27.726562 17.460938 27.726562 C 17.515625 27.761719 17.5625 27.789062 17.613281 27.816406 C 17.648438 27.832031 17.679688 27.851562 17.710938 27.867188 C 17.859375 27.953125 17.988281 28.019531 18.121094 28.082031 L 18.222656 28.128906 C 18.324219 28.175781 18.421875 28.222656 18.523438 28.261719 C 18.523438 28.261719 18.527344 28.265625 18.527344 28.265625 L 18.617188 28.300781 C 18.632812 28.308594 18.652344 28.316406 18.667969 28.324219 C 18.773438 28.367188 18.878906 28.410156 18.988281 28.449219 C 18.992188 28.449219 18.996094 28.449219 19 28.453125 C 19.121094 28.5 19.246094 28.539062 19.371094 28.578125 C 19.378906 28.582031 19.386719 28.585938 19.394531 28.585938 C 19.402344 28.589844 19.414062 28.59375 19.429688 28.597656 C 19.441406 28.601562 19.453125 28.605469 19.460938 28.609375 C 19.46875 28.609375 19.53125 28.628906 19.539062 28.632812 C 19.671875 28.675781 19.804688 28.714844 19.933594 28.75 C 20.105469 28.796875 20.277344 28.835938 20.441406 28.867188 L 20.457031 28.867188 C 20.457031 28.867188 20.960938 28.960938 20.960938 28.960938 C 21.007812 28.96875 21.054688 28.972656 21.101562 28.980469 C 21.117188 28.980469 21.136719 28.984375 21.15625 28.988281 C 21.246094 29 21.335938 29.011719 21.425781 29.019531 C 21.5625 29.03125 21.691406 29.042969 21.820312 29.050781 C 21.867188 29.050781 21.90625 29.054688 21.953125 29.058594 C 21.996094 29.0625 22.039062 29.066406 22.082031 29.066406 C 22.121094 29.066406 22.164062 29.070312 22.203125 29.070312 L 22.207031 29.070312 C 22.351562 29.074219 22.492188 29.074219 22.628906 29.070312 L 22.699219 29.070312 C 22.734375 29.070312 22.773438 29.070312 22.808594 29.066406 L 22.828125 29.066406 C 22.855469 29.066406 22.886719 29.0625 22.917969 29.058594 C 23.007812 29.054688 23.09375 29.046875 23.183594 29.042969 C 23.375 29.027344 23.5625 29.007812 23.75 28.984375 C 23.8125 28.976562 23.875 28.96875 23.9375 28.957031 C 24.726562 28.839844 25.484375 28.628906 26.1875 28.332031 C 26.242188 28.3125 26.292969 28.289062 26.347656 28.265625 C 26.464844 28.214844 26.570312 28.167969 26.675781 28.117188 L 26.761719 28.078125 L 26.777344 28.070312 C 26.980469 27.96875 27.191406 27.859375 27.398438 27.738281 C 27.457031 27.703125 27.511719 27.671875 27.566406 27.636719 C 27.652344 27.585938 27.734375 27.535156 27.820312 27.480469 C 28.15625 27.265625 28.480469 27.023438 28.792969 26.761719 C 28.847656 26.71875 28.902344 26.671875 28.957031 26.625 C 28.980469 26.601562 29.003906 26.582031 29.03125 26.558594 C 29.046875 26.546875 29.0625 26.53125 29.082031 26.515625 C 29.101562 26.496094 29.121094 26.476562 29.144531 26.457031 C 28.988281 25.75 28.722656 25.078125 28.359375 24.464844 C 28.144531 24.097656 27.894531 23.75 27.613281 23.429688 Z M 27.613281 23.429688 " fill-opacity="1" fill-rule="nonzero"/><path fill="#ffffff" d="M 13.191406 22.714844 C 13.390625 23.234375 13.628906 23.734375 13.917969 24.21875 C 14.042969 24.429688 14.175781 24.636719 14.316406 24.839844 C 14.367188 24.910156 14.414062 24.976562 14.464844 25.042969 C 14.550781 25.160156 14.640625 25.277344 14.734375 25.390625 C 14.953125 24.734375 15.253906 24.109375 15.625 23.535156 C 15.058594 23.066406 14.417969 22.679688 13.734375 22.414062 C 13.5625 22.527344 13.382812 22.628906 13.191406 22.714844 Z M 13.191406 22.714844 " fill-opacity="1" fill-rule="nonzero"/><path fill="#ffffff" d="M 14.644531 18.488281 C 14.644531 17.320312 14.058594 16.289062 13.167969 15.671875 C 13.136719 15.746094 13.113281 15.820312 13.085938 15.894531 C 13.066406 15.960938 13.042969 16.027344 13.019531 16.09375 C 12.976562 16.226562 12.9375 16.359375 12.902344 16.492188 C 12.863281 16.625 12.828125 16.761719 12.796875 16.894531 C 12.71875 17.234375 12.65625 17.578125 12.613281 17.921875 C 12.597656 18.058594 12.585938 18.191406 12.570312 18.328125 L 12.570312 18.332031 C 12.558594 18.46875 12.550781 18.605469 12.546875 18.742188 C 12.527344 19.1875 12.539062 19.636719 12.582031 20.078125 C 12.582031 20.109375 12.585938 20.136719 12.589844 20.167969 C 12.609375 20.386719 12.640625 20.609375 12.675781 20.832031 C 12.703125 20.984375 12.734375 21.140625 12.765625 21.296875 C 12.765625 21.296875 12.765625 21.300781 12.769531 21.300781 C 12.773438 21.335938 12.78125 21.375 12.792969 21.40625 C 12.800781 21.445312 12.808594 21.480469 12.820312 21.515625 C 13.070312 21.382812 13.304688 21.21875 13.515625 21.027344 C 14.210938 20.402344 14.644531 19.496094 14.644531 18.488281 Z M 14.644531 18.488281 " fill-opacity="1" fill-rule="nonzero"/><path fill="#ffffff" d="M 9.246094 21.285156 C 9.226562 21.175781 9.210938 21.066406 9.199219 20.957031 C 8.953125 19.128906 9.085938 17.257812 9.59375 15.472656 C 8.527344 16.054688 7.796875 17.1875 7.796875 18.488281 C 7.796875 19.496094 8.234375 20.398438 8.925781 21.027344 C 9.027344 21.121094 9.136719 21.203125 9.246094 21.285156 Z M 9.246094 21.285156 " fill-opacity="1" fill-rule="nonzero"/><g clip-path="url(#9981b2edee)"><path fill="#ffffff" d="M 9.597656 22.863281 C 9.28125 22.742188 8.984375 22.59375 8.707031 22.414062 C 6.574219 23.25 5.003906 25.089844 4.515625 27.316406 C 4.636719 27.429688 4.761719 27.542969 4.890625 27.648438 C 5.171875 27.878906 5.441406 28.078125 5.714844 28.257812 C 5.851562 28.351562 5.96875 28.429688 6.089844 28.5 C 6.238281 28.59375 6.367188 28.664062 6.496094 28.730469 C 6.644531 28.8125 6.773438 28.882812 6.902344 28.941406 L 6.996094 28.984375 C 7.101562 29.035156 7.207031 29.085938 7.3125 29.128906 L 7.40625 29.167969 C 7.53125 29.21875 7.65625 29.269531 7.785156 29.316406 C 7.917969 29.363281 8.046875 29.410156 8.179688 29.449219 C 8.203125 29.457031 8.222656 29.464844 8.246094 29.472656 C 8.253906 29.472656 8.3125 29.496094 8.320312 29.496094 C 8.628906 29.597656 8.933594 29.675781 9.226562 29.730469 L 9.746094 29.824219 C 9.976562 29.859375 10.222656 29.882812 10.472656 29.902344 C 10.664062 29.917969 10.824219 29.929688 10.992188 29.929688 L 11.484375 29.929688 C 11.640625 29.929688 11.804688 29.917969 11.96875 29.902344 C 12.226562 29.882812 12.472656 29.859375 12.722656 29.820312 C 13.167969 29.753906 13.597656 29.660156 14.015625 29.535156 C 13.671875 29.257812 13.339844 28.960938 13.019531 28.648438 C 11.34375 26.984375 10.203125 24.984375 9.597656 22.863281 Z M 9.597656 22.863281 " fill-opacity="1" fill-rule="nonzero"/></g></svg>