<svg xmlns="http://www.w3.org/2000/svg" xmlns:xlink="http://www.w3.org/1999/xlink" width="60" zoomAndPan="magnify" viewBox="0 0 45 44.999999" height="60" preserveAspectRatio="xMidYMid meet" version="1.0"><defs><clipPath id="ae5cd368c2"><path d="M 4.5 9.6875 L 42.75 9.6875 L 42.75 34.4375 L 4.5 34.4375 Z M 4.5 9.6875 " clip-rule="nonzero"/></clipPath></defs><path fill="#ffffff" d="M 12.667969 22.753906 L 12.667969 29.132812 C 12.667969 31.015625 17.164062 33.113281 23.609375 33.113281 C 30.058594 33.113281 34.550781 31.015625 34.550781 29.132812 L 34.550781 21.746094 L 22.429688 27.136719 L 12.667969 22.753906 " fill-opacity="1" fill-rule="nonzero"/><g clip-path="url(#ae5cd368c2)"><path fill="#ffffff" d="M 26.351562 18.40625 C 26.082031 18.40625 25.867188 18.191406 25.867188 17.921875 C 25.867188 17.65625 26.082031 17.4375 26.351562 17.4375 L 38.660156 17.4375 C 38.601562 17.53125 38.566406 17.636719 38.566406 17.753906 L 38.566406 18.40625 Z M 42.59375 32.730469 C 42.070312 28.375 40.371094 26.335938 39.75 25.722656 L 39.75 17.753906 C 39.75 17.636719 39.714844 17.53125 39.65625 17.4375 C 39.550781 17.273438 39.367188 17.164062 39.160156 17.164062 C 39.128906 17.164062 39.097656 17.167969 39.066406 17.171875 L 22.414062 9.695312 L 4.5 17.667969 L 22.433594 25.722656 L 38.566406 18.542969 L 38.566406 25.722656 C 37.949219 26.335938 36.246094 28.375 35.726562 32.730469 C 35.722656 32.746094 35.722656 32.761719 35.722656 32.78125 C 35.71875 32.867188 35.726562 33.335938 36.167969 33.796875 C 36.730469 34.378906 37.738281 34.675781 39.160156 34.675781 C 40.578125 34.675781 41.585938 34.378906 42.148438 33.796875 C 42.59375 33.335938 42.597656 32.867188 42.597656 32.78125 C 42.597656 32.761719 42.59375 32.746094 42.59375 32.730469 " fill-opacity="1" fill-rule="nonzero"/></g></svg>