<svg width="80" height="112" viewBox="0 0 80 112" fill="none" xmlns="http://www.w3.org/2000/svg">
<mask id="mask0_1374_5604" style="mask-type:alpha" maskUnits="userSpaceOnUse" x="0" y="0" width="80" height="112">
<rect width="80" height="112" fill="#D9D9D9"/>
</mask>
<g mask="url(#mask0_1374_5604)">
<mask id="path-2-outside-1_1374_5604" maskUnits="userSpaceOnUse" x="2" y="4" width="76" height="113" fill="black">
<rect fill="white" x="2" y="4" width="76" height="113"/>
<path d="M5.0983 115V105.187L34.8262 73.0057C40.6949 66.7522 45.3609 61.6052 48.8243 57.5645C52.384 53.5238 54.9816 49.916 56.6171 46.7412C58.2526 43.5664 59.0704 40.1991 59.0704 36.6395C59.0704 30.7709 57.3387 26.2491 53.8752 23.0743C50.4118 19.8995 45.8419 18.3121 40.1657 18.3121C34.3933 18.3121 29.4868 19.9957 25.4461 23.3629C21.4054 26.634 18.6154 31.3 17.0761 37.361L4.23244 34.0419C5.48313 28.2695 7.7921 23.2667 11.1593 19.0336C14.5266 14.8005 18.7116 11.5295 23.7143 9.22051C28.7171 6.91154 34.2009 5.75706 40.1657 5.75706C46.7078 5.75706 52.4321 7.05586 57.3387 9.65344C62.3414 12.1548 66.2378 15.6664 69.0278 20.1881C71.914 24.7098 73.3571 29.9531 73.3571 35.9179C73.3571 39.8624 72.5393 43.7107 70.9038 47.4628C69.2683 51.2148 66.8631 55.2074 63.6883 59.4405C60.5135 63.5774 56.3766 68.3878 51.2776 73.8715L24.7245 102.734H75.6661V115H5.0983Z"/>
</mask>
<path d="M5.0983 115H3.54658V116.552H5.0983V115ZM5.0983 105.187L3.95848 104.134L3.54658 104.58V105.187H5.0983ZM34.8262 73.0057L33.6947 71.9438L33.6864 71.9528L34.8262 73.0057ZM48.8243 57.5645L47.66 56.5387L47.653 56.5466L47.6462 56.5546L48.8243 57.5645ZM56.6171 46.7412L55.2377 46.0306H55.2377L56.6171 46.7412ZM25.4461 23.3629L26.4224 24.569L26.431 24.562L26.4395 24.555L25.4461 23.3629ZM17.0761 37.361L16.6878 38.8634L18.1965 39.2533L18.58 37.743L17.0761 37.361ZM4.23244 34.0419L2.71591 33.7133L2.40006 35.1711L3.84419 35.5443L4.23244 34.0419ZM11.1593 19.0336L12.3737 19.9996L11.1593 19.0336ZM57.3387 9.65344L56.6126 11.0248L56.6286 11.0333L56.6447 11.0414L57.3387 9.65344ZM69.0278 20.1881L67.7072 21.0029L67.7134 21.013L67.7198 21.023L69.0278 20.1881ZM70.9038 47.4628L72.3263 48.0828H72.3263L70.9038 47.4628ZM63.6883 59.4405L64.9193 60.3852L64.9245 60.3784L64.9297 60.3716L63.6883 59.4405ZM51.2776 73.8716L50.1412 72.8149L50.1357 72.8209L51.2776 73.8716ZM24.7245 102.734L23.5826 101.683L21.1884 104.285H24.7245V102.734ZM75.6661 102.734H77.2178V101.182H75.6661V102.734ZM75.6661 115V116.552H77.2178V115H75.6661ZM6.65003 115V105.187H3.54658V115H6.65003ZM6.23812 106.24L35.9661 74.0586L33.6864 71.9528L3.95848 104.134L6.23812 106.24ZM35.9577 74.0676C41.834 67.806 46.5176 62.64 50.0025 58.5743L47.6462 56.5546C44.2042 60.5703 39.5558 65.6985 33.6947 71.9438L35.9577 74.0676ZM49.9887 58.5902C53.5947 54.4969 56.281 50.7819 57.9965 47.4518L55.2377 46.0306C53.6821 49.0501 51.1733 52.5506 47.66 56.5387L49.9887 58.5902ZM57.9965 47.4518C59.7449 44.058 60.6221 40.4472 60.6221 36.6395H57.5187C57.5187 39.9511 56.7603 43.0748 55.2377 46.0306L57.9965 47.4518ZM60.6221 36.6395C60.6221 30.452 58.7844 25.4694 54.9237 21.9304L52.8267 24.2182C55.8929 27.0289 57.5187 31.0897 57.5187 36.6395H60.6221ZM54.9237 21.9304C51.117 18.4409 46.145 16.7603 40.1657 16.7603V19.8638C45.5389 19.8638 49.7065 21.358 52.8267 24.2182L54.9237 21.9304ZM40.1657 16.7603C34.0682 16.7603 28.8 18.5481 24.4527 22.1709L26.4395 24.555C30.1735 21.4433 34.7184 19.8638 40.1657 19.8638V16.7603ZM24.4697 22.1569C20.1194 25.6785 17.1766 30.6612 15.5721 36.9791L18.58 37.743C20.0541 31.9388 22.6913 27.5894 26.4224 24.569L24.4697 22.1569ZM17.4643 35.8587L4.62069 32.5395L3.84419 35.5443L16.6878 38.8634L17.4643 35.8587ZM5.74898 34.3705C6.95393 28.8091 9.16806 24.0296 12.3737 19.9996L9.94496 18.0676C6.41613 22.5039 4.01233 27.7298 2.71591 33.7133L5.74898 34.3705ZM12.3737 19.9996C15.5872 15.9598 19.5776 12.8388 24.3646 10.6294L23.0641 7.81161C17.8455 10.2202 13.466 13.6412 9.94496 18.0676L12.3737 19.9996ZM24.3646 10.6294C29.1471 8.42212 34.4066 7.30878 40.1657 7.30878V4.20534C33.9952 4.20534 28.2871 5.40097 23.0641 7.81161L24.3646 10.6294ZM40.1657 7.30878C46.4998 7.30878 51.9665 8.56512 56.6126 11.0248L58.0647 8.28205C52.8977 5.54659 46.9158 4.20534 40.1657 4.20534V7.30878ZM56.6447 11.0414C61.4036 13.4208 65.0769 16.74 67.7072 21.0029L70.3484 19.3733C67.3987 14.5928 63.2792 10.8888 58.0326 8.26554L56.6447 11.0414ZM67.7198 21.023C70.4294 25.268 71.8054 30.2147 71.8054 35.9179H74.9088C74.9088 29.6915 73.3986 24.1517 70.3358 19.3532L67.7198 21.023ZM71.8054 35.9179C71.8054 39.641 71.0349 43.2787 69.4814 46.8427L72.3263 48.0828C74.0438 44.1427 74.9088 40.0838 74.9088 35.9179H71.8054ZM69.4814 46.8427C67.9056 50.4578 65.5694 54.3462 62.4469 58.5095L64.9297 60.3716C68.1569 56.0686 70.6311 51.9718 72.3263 48.0828L69.4814 46.8427ZM62.4573 58.4958C59.322 62.5813 55.2199 67.3529 50.1412 72.8149L52.414 74.9282C57.5332 69.4226 61.705 64.5736 64.9193 60.3852L62.4573 58.4958ZM50.1357 72.8209L23.5826 101.683L25.8665 103.784L52.4196 74.9221L50.1357 72.8209ZM24.7245 104.285H75.6661V101.182H24.7245V104.285ZM74.1143 102.734V115H77.2178V102.734H74.1143ZM75.6661 113.448H5.0983V116.552H75.6661V113.448Z" fill="#FF2A00" mask="url(#path-2-outside-1_1374_5604)"/>
</g>
</svg>
